<?xml version="1.0" encoding="UTF-8" standalone="no"?>
<!DOCTYPE svg PUBLIC "-//W3C//DTD SVG 20010904//EN"
"http://www.w3.org/TR/2001/REC-SVG-20010904/DTD/svg10.dtd">
<!-- Created with Inkscape (http://www.inkscape.org/) -->
<svg
   id="svg1568"
   sodipodi:version="0.32"
   inkscape:version="0.40"
   width="128.00000pt"
   height="128.00000pt"
   sodipodi:docbase="/usr/share/icons/dlg-etiquette/scalable/stock"
   sodipodi:docname="print-preview.svg"
   xmlns="http://www.w3.org/2000/svg"
   xmlns:cc="http://web.resource.org/cc/"
   xmlns:inkscape="http://www.inkscape.org/namespaces/inkscape"
   xmlns:sodipodi="http://sodipodi.sourceforge.net/DTD/sodipodi-0.dtd"
   xmlns:rdf="http://www.w3.org/1999/02/22-rdf-syntax-ns#"
   xmlns:dc="http://purl.org/dc/elements/1.1/"
   xmlns:xlink="http://www.w3.org/1999/xlink">
  <defs
     id="defs1570">
    <linearGradient
       id="linearGradient2201">
      <stop
         offset="0.0000000"
         style="stop-color:#ffffff;stop-opacity:0.53389829;"
         id="stop2203" />
      <stop
         offset="1.0000000"
         style="stop-color:#cbd5e8;stop-opacity:0.53389829;"
         id="stop2202" />
    </linearGradient>
    <linearGradient
       inkscape:collect="always"
       id="linearGradient84">
      <stop
         style="stop-color:#000000;stop-opacity:1;"
         offset="0"
         id="stop85" />
      <stop
         style="stop-color:#000000;stop-opacity:0;"
         offset="1"
         id="stop86" />
    </linearGradient>
    <linearGradient
       id="linearGradient1492">
      <stop
         style="stop-color:#e5e5e5;stop-opacity:1.0000000;"
         offset="0.0000000"
         id="stop1493" />
      <stop
         style="stop-color:#f9f9f9;stop-opacity:1.0000000;"
         offset="0.34923077"
         id="stop1496" />
      <stop
         style="stop-color:#ffffff;stop-opacity:1.0000000;"
         offset="1.0000000"
         id="stop1494" />
    </linearGradient>
    <linearGradient
       inkscape:collect="always"
       xlink:href="#linearGradient1492"
       id="linearGradient7980"
       x1="76.923798"
       y1="78.524780"
       x2="76.923798"
       y2="40.786755"
       gradientTransform="matrix(1.254628,0.000000,0.000000,0.797049,0.000000,1.500000)"
       gradientUnits="userSpaceOnUse" />
    <linearGradient
       inkscape:collect="always"
       id="linearGradient2529">
      <stop
         style="stop-color:#ffffff;stop-opacity:0.0000000;"
         offset="0.0000000"
         id="stop2530" />
      <stop
         style="stop-color:#fff;stop-opacity:1;"
         offset="1"
         id="stop2532" />
    </linearGradient>
    <linearGradient
       inkscape:collect="always"
       xlink:href="#linearGradient2529"
       id="linearGradient7987"
       x1="33.681586"
       y1="174.26285"
       x2="33.681586"
       y2="121.15584"
       gradientTransform="matrix(2.454513,0.000000,0.000000,0.458960,-4.619461,-5.755349)"
       gradientUnits="userSpaceOnUse" />
    <linearGradient
       id="linearGradient2541">
      <stop
         style="stop-color:#000000;stop-opacity:0.0000000;"
         offset="0.0000000"
         id="stop2542" />
      <stop
         style="stop-color:#000000;stop-opacity:0.55084747;"
         offset="1.0000000"
         id="stop2543" />
    </linearGradient>
    <linearGradient
       inkscape:collect="always"
       xlink:href="#linearGradient2541"
       id="linearGradient7975"
       x1="31.095658"
       y1="330.08147"
       x2="31.503284"
       y2="286.77129"
       gradientTransform="matrix(2.995969,0.000000,0.000000,0.376012,-5.680121,-4.780475)"
       gradientUnits="userSpaceOnUse" />
    <linearGradient
       id="linearGradient1568">
      <stop
         style="stop-color:#dedede;stop-opacity:1.0000000;"
         offset="0.0000000"
         id="stop1569" />
      <stop
         style="stop-color:#c6deee;stop-opacity:1.0000000;"
         offset="0.42928788"
         id="stop1574" />
      <stop
         style="stop-color:#e3e3e3;stop-opacity:1.0000000;"
         offset="0.58570588"
         id="stop3320" />
      <stop
         style="stop-color:#ffffff;stop-opacity:1.0000000;"
         offset="1.0000000"
         id="stop1570" />
    </linearGradient>
    <linearGradient
       xlink:href="#linearGradient1568"
       id="linearGradient1495"
       x1="73.818423"
       y1="125.53583"
       x2="71.848418"
       y2="196.42090"
       gradientTransform="matrix(1.589702,0.000000,0.000000,0.708637,-5.680120,-4.780475)"
       gradientUnits="userSpaceOnUse" />
    <linearGradient
       id="linearGradient1806">
      <stop
         style="stop-color:#000000;stop-opacity:0.53103447;"
         offset="0.0000000"
         id="stop1807" />
      <stop
         style="stop-color:#000000;stop-opacity:0.073446326;"
         offset="0.64777780"
         id="stop3276" />
      <stop
         style="stop-color:#000000;stop-opacity:0.0000000;"
         offset="1.0000000"
         id="stop1808" />
    </linearGradient>
    <radialGradient
       xlink:href="#linearGradient1806"
       id="radialGradient1505"
       cx="24.825565"
       cy="176.56437"
       r="51.667703"
       fx="27.010122"
       fy="137.43433"
       gradientUnits="userSpaceOnUse" />
    <linearGradient
       inkscape:collect="always"
       xlink:href="#linearGradient1492"
       id="linearGradient1743"
       gradientTransform="matrix(2.070264,0.000000,0.000000,0.544143,-5.680120,-4.780475)"
       x1="48.756077"
       y1="228.23079"
       x2="49.343483"
       y2="263.54617"
       gradientUnits="userSpaceOnUse" />
    <radialGradient
       inkscape:collect="always"
       xlink:href="#linearGradient1806"
       id="radialGradient1752"
       cx="24.825565"
       cy="176.56437"
       fx="27.010122"
       fy="137.43433"
       r="51.667703"
       gradientUnits="userSpaceOnUse" />
    <linearGradient
       inkscape:collect="always"
       xlink:href="#linearGradient84"
       id="linearGradient87"
       gradientTransform="scale(2.822720,0.354268)"
       x1="29.849440"
       y1="299.49295"
       x2="29.849440"
       y2="327.79507"
       gradientUnits="userSpaceOnUse" />
    <linearGradient
       inkscape:collect="always"
       xlink:href="#linearGradient2541"
       id="linearGradient99"
       gradientUnits="userSpaceOnUse"
       gradientTransform="matrix(1.206352,0.000000,0.000000,0.715266,3.161706,7.824465)"
       x1="85.403702"
       y1="53.834229"
       x2="85.403702"
       y2="87.322479" />
    <metadata
       id="metadata68">
      <rdf:RDF
         id="RDF69">
        <cc:Work
           rdf:about=""
           id="Work70">
          <dc:format
             id="format71">image/svg+xml</dc:format>
          <dc:type
             id="type73"
             rdf:resource="http://purl.org/dc/dcmitype/StillImage" />
        </cc:Work>
      </rdf:RDF>
    </metadata>
    <defs
       id="defs192">
      <linearGradient
         id="XMLID_1_"
         gradientUnits="userSpaceOnUse"
         x1="86.394997"
         y1="86.276398"
         x2="312.32861"
         y2="312.20990">
        <stop
           offset="0"
           style="stop-color:#FFFFFF"
           id="stop161" />
        <stop
           offset="1"
           style="stop-color:#99CCFF"
           id="stop162" />
      </linearGradient>
      <linearGradient
         id="XMLID_2_"
         gradientUnits="userSpaceOnUse"
         x1="211.95700"
         y1="220.91991"
         x2="223.18260"
         y2="208.09070"
         gradientTransform="matrix(0.999900,1.200000e-2,-1.200000e-2,0.999900,2.579000,-2.600000)">
        <stop
           offset="0.0000000"
           style="stop-color:#ff5800;stop-opacity:1.0000000;"
           id="stop173" />
        <stop
           offset="1.0000000"
           style="stop-color:#ffcc31;stop-opacity:1.0000000;"
           id="stop174" />
      </linearGradient>
      <linearGradient
         id="XMLID_3_"
         gradientUnits="userSpaceOnUse"
         x1="98.557602"
         y1="135.62700"
         x2="189.67870"
         y2="135.62700"
         spreadMethod="pad"
         xlink:href="#linearGradient2201" />
    </defs>
    <sodipodi:namedview
       id="namedview1166"
       inkscape:zoom="5.2885695"
       inkscape:cx="4.9960863"
       inkscape:cy="24.856355"
       inkscape:window-width="640"
       inkscape:window-height="538"
       inkscape:window-x="0"
       inkscape:window-y="26"
       inkscape:current-layer="svg153" />
    <linearGradient
       inkscape:collect="always"
       xlink:href="#XMLID_2_"
       id="linearGradient1566"
       gradientUnits="userSpaceOnUse"
       gradientTransform="matrix(0.631095,7.573896e-3,-7.573896e-3,0.631095,-154.7527,-27.92565)"
       x1="211.957"
       y1="220.9199"
       x2="223.1826"
       y2="208.0907" />
    <linearGradient
       inkscape:collect="always"
       xlink:href="#linearGradient2201"
       id="linearGradient1567"
       gradientUnits="userSpaceOnUse"
       x1="98.5576"
       y1="135.627"
       x2="189.6787"
       y2="135.627"
       gradientTransform="matrix(0.631158,0.000000,0.000000,0.631158,-156.3804,-26.28464)" />
    <linearGradient
       inkscape:collect="always"
       xlink:href="#XMLID_2_"
       id="linearGradient1159"
       gradientUnits="userSpaceOnUse"
       gradientTransform="matrix(0.631095,7.573896e-3,-7.573896e-3,0.631095,-154.7527,-27.92565)"
       x1="211.957"
       y1="220.9199"
       x2="223.1826"
       y2="208.0907" />
    <linearGradient
       inkscape:collect="always"
       xlink:href="#linearGradient2201"
       id="linearGradient1160"
       gradientUnits="userSpaceOnUse"
       gradientTransform="matrix(0.631158,0.000000,0.000000,0.631158,-156.3804,-26.28464)"
       x1="98.5576"
       y1="135.627"
       x2="189.6787"
       y2="135.627" />
  </defs>
  <sodipodi:namedview
     id="base"
     pagecolor="#ffffff"
     bordercolor="#666666"
     borderopacity="1.0"
     inkscape:pageopacity="0.0"
     inkscape:pageshadow="2"
     inkscape:zoom="2.8284271"
     inkscape:cx="51.744726"
     inkscape:cy="69.948987"
     inkscape:window-width="861"
     inkscape:window-height="596"
     inkscape:window-x="70"
     inkscape:window-y="123"
     inkscape:current-layer="svg1568" />
  <metadata
     id="metadata1571">
    <rdf:RDF
       id="RDF1572">
      <cc:Work
         rdf:about=""
         id="Work1573">
        <dc:description
           id="description1574">Created with Inkscape
http://www.inkscape.org/</dc:description>
        <dc:format
           id="format1576">image/svg+xml</dc:format>
        <dc:type
           id="type1578"
           rdf:resource="http://purl.org/dc/dcmitype/StillImage" />
        <dc:creator
           id="creator1628">
          <cc:Agent
             id="Agent1629">
            <dc:title
               id="title1630">Andrew Fitzsimon</dc:title>
          </cc:Agent>
        </dc:creator>
        <cc:license
           id="license1697"
           rdf:resource="http://creativecommons.org/licenses/by/2.0/" />
      </cc:Work>
      <cc:License
         rdf:about="http://creativecommons.org/licenses/by/2.0/"
         id="License1698">
        <cc:permits
           rdf:resource="http://web.resource.org/cc/Reproduction"
           id="permits1699" />
        <cc:permits
           rdf:resource="http://web.resource.org/cc/Distribution"
           id="permits1700" />
        <cc:requires
           rdf:resource="http://web.resource.org/cc/Notice"
           id="requires1701" />
        <cc:requires
           rdf:resource="http://web.resource.org/cc/Attribution"
           id="requires1702" />
        <cc:prohibits
           rdf:resource="http://web.resource.org/cc/CommercialUse"
           id="prohibits1703" />
        <cc:permits
           rdf:resource="http://web.resource.org/cc/DerivativeWorks"
           id="permits1704" />
        <cc:requires
           rdf:resource="http://web.resource.org/cc/ShareAlike"
           id="requires1705" />
      </cc:License>
    </rdf:RDF>
  </metadata>
  <path
     sodipodi:type="arc"
     style="fill:url(#radialGradient1752);fill-opacity:0.75000000;fill-rule:evenodd;stroke-width:1.0000000pt"
     id="path1809"
     sodipodi:cx="25.912205"
     sodipodi:cy="175.83524"
     sodipodi:rx="56.143108"
     sodipodi:ry="56.143108"
     d="M 82.055313 175.83524 A 56.143108 56.143108 0 1 1  -30.230904,175.83524 A 56.143108 56.143108 0 1 1  82.055313 175.83524 z"
     transform="matrix(1.422704,0.000000,0.000000,0.536244,46.21155,29.91393)" />
  <path
     sodipodi:type="arc"
     style="fill:url(#radialGradient1505);fill-opacity:0.75000000;fill-rule:evenodd;stroke-width:1.0000000pt"
     id="path8072"
     sodipodi:cx="25.912205"
     sodipodi:cy="175.83524"
     sodipodi:rx="56.143108"
     sodipodi:ry="56.143108"
     d="M 82.055313 175.83524 A 56.143108 56.143108 0 1 1  -30.230904,175.83524 A 56.143108 56.143108 0 1 1  82.055313 175.83524 z"
     transform="matrix(1.406335,0.000000,0.000000,0.308729,46.44672,62.09003)" />
  <path
     style="fill:url(#linearGradient1495);fill-opacity:1.0000000;fill-rule:evenodd;stroke:#000000;stroke-width:4.1250000;stroke-linecap:butt;stroke-linejoin:miter;stroke-miterlimit:4.0000000;stroke-opacity:1.0000000;stroke-dasharray:none;"
     d="M 4.9817475,90.306120 L 4.9817475,106.79934 C 4.9817475,115.16394 15.529376,123.29258 23.893975,123.29258 L 42.806204,123.29258 L 61.718432,123.29258 L 80.630662,123.29258 L 99.542891,123.29258 L 118.45513,123.29258 L 137.36735,123.29258 C 145.73195,123.29258 156.27958,115.16394 156.27958,106.79934 L 156.27958,90.306120 C 156.27958,73.576927 135.18432,57.319683 118.45513,57.319683 L 99.542891,57.319683 L 80.630662,57.319683 L 61.718432,57.319683 L 42.806204,57.319683 C 26.077006,57.319683 4.9817475,73.576927 4.9817475,90.306120 z "
     id="rect7969"
     sodipodi:nodetypes="czzccccczzzzccczz" />
  <path
     style="fill:#333333;fill-opacity:1.0000000;fill-rule:evenodd;stroke:none;stroke-width:0.96216879pt;stroke-linecap:butt;stroke-linejoin:miter;stroke-opacity:1.0000000"
     d="M 21.158625,74.577317 C 21.158625,82.114103 25.159573,82.089863 33.891465,82.089863 L 58.328924,82.089863 C 75.209818,92.696465 100.92955,89.602873 115.60073,82.089863 L 131.64130,82.089863 C 139.93719,82.089863 146.19350,83.205623 144.07084,75.283738 C 141.74203,66.592477 131.98104,59.082899 121.98225,59.082899 L 41.902137,59.082899 C 32.196137,59.082899 21.158625,66.631441 21.158625,74.577317 z "
     id="path7972"
     sodipodi:nodetypes="czcczzzzz" />
  <rect
     style="fill:url(#linearGradient7975);fill-opacity:0.75000000;fill-rule:evenodd;stroke:none;stroke-width:1.0000000pt;stroke-linecap:butt;stroke-linejoin:miter;stroke-opacity:1.0000000"
     id="rect7973"
     width="108.63537"
     height="13.634398"
     x="27.412535"
     y="105.69981"
     rx="5.1742654"
     ry="5.1742654" />
  <path
     style="fill:none;fill-opacity:0.75000000;fill-rule:evenodd;stroke:#000000;stroke-width:4.0598292;stroke-linecap:round;stroke-linejoin:round;stroke-miterlimit:4.0000000;stroke-opacity:1.0000000"
     d="M 37.186452,67.616077 L 124.95450,67.616077"
     id="path7971" />
  <path
     style="fill:url(#linearGradient7987);fill-opacity:0.52201259;fill-rule:evenodd;stroke:none;stroke-width:0.96216879pt;stroke-linecap:butt;stroke-linejoin:miter;stroke-opacity:1.0000000"
     d="M 24.890616,74.337419 C 24.890616,81.418064 28.649423,81.395296 36.852855,81.395296 L 128.68679,81.395296 C 136.48062,81.395296 142.35830,82.443535 140.36411,75.001077 C 138.17625,66.835819 129.59491,59.780723 120.20124,59.780723 L 43.039893,59.780723 C 33.921306,59.780723 24.890616,66.872432 24.890616,74.337419 z "
     id="path7986"
     sodipodi:nodetypes="czzzzzz" />
  <rect
     style="fill:url(#linearGradient7980);fill-opacity:1.0000000;fill-rule:evenodd;stroke:#000000;stroke-width:4.1250000;stroke-linecap:butt;stroke-linejoin:miter;stroke-miterlimit:4.0000000;stroke-opacity:1.0000000;stroke-dasharray:none;"
     id="rect7979"
     width="77.967415"
     height="48.805847"
     x="43.186317"
     y="19.243002"
     rx="0.0000000"
     ry="0.0000000" />
  <path
     style="fill:#333333;fill-opacity:1.0000000;fill-rule:evenodd;stroke:none;stroke-width:0.95537262pt;stroke-linecap:butt;stroke-linejoin:miter;stroke-opacity:1.0000000"
     d="M 32.135020,110.98470 L 25.445970,137.71474 L 32.438969,137.71474 L 130.34096,137.71474 L 137.33395,137.71474 L 132.67412,110.98470 L 32.135020,110.98470 z "
     id="rect7981"
     sodipodi:nodetypes="ccccccc" />
  <path
     style="fill:url(#linearGradient1743);fill-opacity:1.0000000;fill-rule:evenodd;stroke:#000000;stroke-width:2.5000000;stroke-linecap:butt;stroke-linejoin:miter;stroke-opacity:0.42763159;stroke-miterlimit:4.0000000;stroke-dasharray:none;"
     d="M 40.722803,107.08437 L 36.162162,131.01028 L 127.19155,131.01028 L 123.97892,107.08437 L 40.722803,107.08437 z "
     id="rect7989"
     sodipodi:nodetypes="ccccc" />
  <path
     style="fill:url(#linearGradient87);fill-opacity:1.0000000;fill-rule:evenodd;stroke:none;stroke-width:1.0000000pt;stroke-linecap:butt;stroke-linejoin:miter;stroke-opacity:1.0000000"
     d="M 32.586800,105.69981 L 67.146143,105.69981 C 79.756130,101.28039 95.017768,102.60622 106.30193,105.69981 L 130.87364,105.69981 C 133.74018,105.69981 136.04790,108.00753 136.04790,110.87407 L 136.04790,114.15994 C 136.04790,117.02648 133.74018,119.33420 130.87364,119.33420 L 32.586800,119.33420 C 29.720257,119.33420 27.412535,117.02648 27.412535,114.15994 L 27.412535,110.87407 C 27.412535,108.00753 29.720257,105.69981 32.586800,105.69981 z "
     id="rect7982"
     sodipodi:nodetypes="ccccccccccc" />
  <rect
     style="opacity:0.21301772;fill:url(#linearGradient99);fill-opacity:1.0000000;fill-rule:evenodd;stroke:none;stroke-width:2.5000000;stroke-linecap:butt;stroke-linejoin:miter;stroke-miterlimit:4.0000000;stroke-opacity:0.58641976"
     id="rect98"
     width="74.967415"
     height="43.798027"
     x="44.686317"
     y="23.746912"
     rx="0.0000000"
     ry="0.0000000" />
  <g
     id="Layer_2"
     style="stroke:#000000;"
     transform="translate(169.7056,-29.16815)">
    <path
       d="M 256.00000,256.00000 L 0.0000000,256.00000 L 0.0000000,0.0000000 L 256.00000,0.0000000 L 256.00000,256.00000 z "
       id="path155"
       style="fill:none;stroke:none" />
  </g>
  <g
     id="g1149"
     transform="translate(152.0280,24.30680)">
    <path
       d="M 1.3598244,123.19062 L -29.416071,92.415355 C -30.997122,90.834304 -33.560254,90.834304 -35.141305,92.415355 L -35.499172,92.773222 L -39.560673,88.711720 C -33.047754,82.135054 -29.022228,73.089928 -29.022228,63.103115 C -29.022228,43.001995 -45.317466,26.706127 -65.419848,26.706127 C -85.520968,26.706127 -101.81621,43.001364 -101.81621,63.103115 C -101.81621,83.204867 -85.520968,99.500104 -65.419848,99.500104 C -56.763516,99.500104 -48.817868,96.473070 -42.570666,91.426962 L -38.362104,95.635523 L -38.720602,95.993390 C -40.301653,97.574441 -40.301653,100.13757 -38.720602,101.71799 L -7.9447069,132.49452 C -6.3630249,134.07494 -3.8005234,134.07494 -2.2194727,132.49452 L 1.3598244,128.91585 C 2.9408751,127.33543 2.9408751,124.77167 1.3598244,123.19062 z "
       id="path169"
       style="opacity:0.20000000;stroke:none" />
    <path
       d="M -45.376599,84.834712 L -32.994737,97.216574 L -30.131804,94.354904 L -42.513666,81.973042 L -45.376599,84.834712 z "
       id="path170"
       style="stroke:none"
       sodipodi:nodetypes="ccccc" />
    <path
       d="M -38.720602,92.207073 C -40.301653,93.788124 -40.301653,96.351257 -38.720602,97.931676 L -7.9447069,128.70820 C -6.3630249,130.28862 -3.8005234,130.28862 -2.2194727,128.70820 L 1.3598244,125.12954 C 2.9408751,123.54785 2.9408751,120.98472 1.3598244,119.40367 L -29.416071,88.628407 C -30.997122,87.047356 -33.560254,87.047356 -35.141305,88.628407 L -38.720602,92.207073 z "
       id="path171"
       style="fill:#000000;fill-opacity:1.0000000;stroke:none" />
    <path
       d="M -30.623476,89.914707 C -31.402956,89.116292 -32.687994,89.101145 -33.485778,89.880625 L -37.107362,93.417003 C -37.905777,94.195852 -37.920925,95.480890 -37.142076,96.278673 L -6.7373016,127.42064 C -5.9578215,128.22032 -4.6727838,128.23547 -3.8750001,127.45535 L -0.25404665,123.92024 C 0.54563054,123.14076 0.56077833,121.85572 -0.21933296,121.05794 L -30.623476,89.914707 z "
       id="path178"
       style="fill:url(#linearGradient1159);stroke:none" />
    <path
       d="M -99.728391,59.316799 C -99.728391,78.265473 -84.367885,93.625975 -65.419812,93.625975 C -46.470542,93.625975 -31.110042,78.265473 -31.110042,59.316799 C -31.110042,40.368725 -46.470542,25.007625 -65.419812,25.007625 C -84.367290,25.007625 -99.728391,40.368725 -99.728391,59.316799 z "
       id="path179"
       style="fill:none;stroke:#000000;stroke-width:4.0000000;stroke-miterlimit:4.0000000;stroke-opacity:1.0000000" />
    <path
       style="fill:#cccccc;stroke:none"
       d="M -65.416442,25.501105 C -84.062740,25.501104 -99.228942,40.667304 -99.228942,59.313605 C -99.228942,77.959898 -84.062112,93.126105 -65.416442,93.126105 C -46.769502,93.126105 -31.603942,77.959901 -31.603942,59.313605 C -31.603942,40.667301 -46.769512,25.501105 -65.416442,25.501105 z M -65.416442,28.532355 C -48.443972,28.532355 -34.635192,42.341763 -34.635192,59.313605 C -34.635192,76.286701 -48.443962,90.094855 -65.416442,90.094855 C -82.388281,90.094855 -96.197694,76.286698 -96.197692,59.313605 C -96.197692,42.341766 -82.388278,28.532356 -65.416442,28.532355 z "
       id="path180" />
    <path
       d="M -98.223653,59.822988 C -98.223653,41.177318 -83.053140,26.006804 -64.406839,26.006804 C -59.247122,26.006804 -54.355648,27.173184 -49.976042,29.248432 C -54.610004,26.859499 -59.856821,25.501247 -65.419848,25.501247 C -84.065517,25.501247 -99.236031,40.671129 -99.236031,59.317430 C -99.236031,72.804645 -91.297957,84.467815 -79.850013,89.891985 C -90.748849,84.271525 -98.223653,72.906893 -98.223653,59.822988 z "
       id="path181"
       style="fill:#ffffff;stroke:none" />
    <path
       d="M -94.174775,59.316799 C -94.174775,75.172750 -81.275168,88.072985 -65.419212,88.072985 C -49.562632,88.072985 -36.662392,75.173381 -36.662392,59.316799 C -36.662392,43.461479 -49.562002,30.561240 -65.419212,30.561240 C -81.275168,30.561240 -94.174775,43.461479 -94.174775,59.316799 z "
       id="path189"
       style="fill:url(#linearGradient1160);stroke:none" />
    <path
       d="M -92.912459,59.316799 C -92.912459,63.355579 -92.030100,67.189863 -90.459148,70.647347 C -89.423418,70.284431 -88.453328,69.765619 -87.584223,69.020222 C -73.643837,59.590090 -62.099326,45.367576 -47.934878,38.114939 C -52.690653,34.186612 -58.784484,31.823556 -65.419848,31.823556 C -80.579632,31.823556 -92.912459,44.157015 -92.912459,59.316799 z "
       id="path190"
       style="fill:#ffffff;fill-opacity:0.40807173;stroke:none" />
  </g>
</svg>
