<?xml version="1.0" encoding="UTF-8" standalone="no"?>
<!-- Created with Inkscape (http://www.inkscape.org/) -->
<svg
   xmlns:dc="http://purl.org/dc/elements/1.1/"
   xmlns:cc="http://web.resource.org/cc/"
   xmlns:rdf="http://www.w3.org/1999/02/22-rdf-syntax-ns#"
   xmlns:svg="http://www.w3.org/2000/svg"
   xmlns="http://www.w3.org/2000/svg"
   xmlns:xlink="http://www.w3.org/1999/xlink"
   xmlns:sodipodi="http://inkscape.sourceforge.net/DTD/sodipodi-0.dtd"
   xmlns:inkscape="http://www.inkscape.org/namespaces/inkscape"
   width="102.40000pt"
   height="102.40000pt"
   id="svg2"
   sodipodi:version="0.32"
   inkscape:version="0.41"
   sodipodi:docbase="/usr/share/icons/dlg-etiquette/scalable/stock"
   sodipodi:docname="stock_reload.svg">
  <defs
     id="defs3">
    <linearGradient
       id="linearGradient8905">
      <stop
         style="stop-color:#00a300;stop-opacity:1;"
         offset="0"
         id="stop8907" />
      <stop
         style="stop-color:#d4ef00;stop-opacity:1.0000000;"
         offset="1.0000000"
         id="stop8909" />
    </linearGradient>
    <linearGradient
       inkscape:collect="always"
       xlink:href="#linearGradient8905"
       id="linearGradient8911"
       gradientTransform="scale(1.020304,0.980100)"
       x1="222.70201"
       y1="186.96918"
       x2="461.12482"
       y2="670.94348"
       gradientUnits="userSpaceOnUse" />
    <linearGradient
       inkscape:collect="always"
       xlink:href="#linearGradient8905"
       id="linearGradient8920"
       gradientUnits="userSpaceOnUse"
       gradientTransform="scale(1.020304,0.980100)"
       x1="222.70201"
       y1="186.96918"
       x2="461.12482"
       y2="670.94348" />
    <linearGradient
       inkscape:collect="always"
       xlink:href="#linearGradient8905"
       id="linearGradient8924"
       gradientUnits="userSpaceOnUse"
       gradientTransform="matrix(0.223979,0.000000,0.000000,0.215154,-19.99904,-25.54174)"
       x1="222.70201"
       y1="186.96918"
       x2="461.12482"
       y2="670.94348" />
    <linearGradient
       y2="670.94348"
       x2="461.12482"
       y1="186.96918"
       x1="222.70201"
       gradientTransform="matrix(0.223979,0.000000,0.000000,0.215154,-19.28475,-21.25603)"
       gradientUnits="userSpaceOnUse"
       id="linearGradient2061"
       xlink:href="#linearGradient8905"
       inkscape:collect="always" />
  </defs>
  <sodipodi:namedview
     id="base"
     pagecolor="#ffffff"
     bordercolor="#666666"
     borderopacity="1.0"
     inkscape:pageopacity="0.0"
     inkscape:pageshadow="2"
     inkscape:zoom="0.98994949"
     inkscape:cx="171.80956"
     inkscape:cy="32.579855"
     inkscape:document-units="px"
     inkscape:current-layer="layer1"
     inkscape:window-width="640"
     inkscape:window-height="542"
     inkscape:window-x="298"
     inkscape:window-y="109" />
  <metadata
     id="metadata4">
    <rdf:RDF
       id="RDF5">
      <cc:Work
         rdf:about=""
         id="Work6">
        <dc:format
           id="format7">image/svg+xml</dc:format>
        <dc:type
           id="type9"
           rdf:resource="http://purl.org/dc/dcmitype/StillImage" />
      </cc:Work>
    </rdf:RDF>
  </metadata>
  <g
     inkscape:label="Layer 1"
     inkscape:groupmode="layer"
     id="layer1">
    <path
       style="fill:#000000;fill-opacity:0.40585771;stroke:none;stroke-width:2.5999999;stroke-linecap:round;stroke-linejoin:round;stroke-miterlimit:4.0000000;stroke-opacity:0.17991628"
       d="M 68.071625,16.199174 C 52.727904,16.199174 38.851923,22.388497 28.858493,32.353466 L 14.730286,22.896607 L 20.167129,61.425748 L 61.750167,54.379480 L 44.852285,43.066535 C 51.140486,37.886191 59.230999,34.752968 68.071625,34.752968 C 84.852050,34.752968 98.943579,45.998823 103.06567,61.232175 L 121.84349,57.610742 C 116.35225,33.373556 94.360737,16.199174 68.071625,16.199174 z M 123.19245,72.926217 L 81.288567,79.327241 L 97.949663,90.484923 C 91.425981,99.870394 80.495495,106.05345 68.071625,106.05345 C 49.855174,106.05345 34.807818,92.796573 32.252421,75.572726 L 13.345449,78.609407 C 16.511858,105.57458 39.811393,124.60019 68.071625,124.60018 C 86.970195,124.60018 103.63789,115.21234 113.56317,100.93687 L 128.30128,110.81011 L 123.19245,72.926217 z "
       id="path5869"
       sodipodi:nodetypes="cccccccccccccccccccc" />
    <path
       style="fill:url(#linearGradient2061);fill-opacity:1.0000000;stroke:#000000;stroke-width:10.670000;stroke-linecap:round;stroke-linejoin:round;stroke-miterlimit:4.0000000;stroke-opacity:1.0000000"
       d="M 60.682995,12.502342 C 46.013424,12.502342 32.747106,18.518636 23.192753,28.205025 L 9.6852899,19.012541 L 14.883257,56.464561 L 54.639279,49.615280 L 38.483832,38.618599 C 44.495752,33.583077 52.230796,30.537446 60.682995,30.537446 C 76.726145,30.537446 90.198542,41.468913 94.139519,56.276400 L 112.09231,52.756209 C 106.84234,29.196597 85.817054,12.502342 60.682995,12.502342 z M 113.38200,67.643524 L 73.319230,73.865601 L 89.248295,84.711359 C 83.011240,93.834457 72.561003,99.844657 60.682995,99.844657 C 43.266912,99.844660 28.880684,86.958384 26.437563,70.216047 L 8.3612979,73.167835 C 11.388585,99.379178 33.664420,117.87290 60.682995,117.87290 C 78.751227,117.87290 94.686597,108.74749 104.17579,94.871112 L 118.26636,104.46834 L 113.38200,67.643524 z "
       id="path1293"
       sodipodi:nodetypes="cccccccccccccccccccc" />
    <path
       style="fill:none;fill-opacity:1.0000000;stroke:#ffffff;stroke-width:5.5599999;stroke-linecap:round;stroke-linejoin:round;stroke-miterlimit:4.0000000;stroke-opacity:1.0000000"
       d="M 61.047632,15.180128 C 47.337506,15.180128 31.994299,21.482271 24.005647,31.873477 L 13.071766,24.456974 L 16.988958,51.943938 L 47.872731,47.992099 L 33.401117,38.560167 C 40.587848,30.360724 52.834637,27.801501 60.734029,27.801501 C 78.236720,27.487899 92.082383,37.171921 96.706414,52.707260 L 108.46738,49.386801 C 101.67916,29.986362 84.537829,15.180128 61.047632,15.180128 z M 110.29992,72.096456 L 81.280182,75.823065 L 94.277529,83.849950 C 88.448401,95.738408 73.403186,103.21987 62.302044,103.21987 C 43.829819,103.21987 27.248475,90.742867 24.337938,73.382459 L 11.834369,75.225954 C 14.663660,99.950096 36.109777,113.62300 61.361234,113.62299 C 78.247738,113.62299 93.951275,103.69987 102.81985,90.610822 L 114.67336,98.661643 L 110.29992,72.096456 z "
       id="path7387"
       sodipodi:nodetypes="cccccccccccccccccccc" />
  </g>
</svg>
