<?xml version="1.0" encoding="UTF-8" standalone="no"?>
<!-- Created with Inkscape (http://www.inkscape.org/) -->
<svg
   xmlns:a="http://ns.adobe.com/AdobeSVGViewerExtensions/3.0/"
   xmlns:dc="http://purl.org/dc/elements/1.1/"
   xmlns:cc="http://web.resource.org/cc/"
   xmlns:rdf="http://www.w3.org/1999/02/22-rdf-syntax-ns#"
   xmlns:svg="http://www.w3.org/2000/svg"
   xmlns="http://www.w3.org/2000/svg"
   xmlns:xlink="http://www.w3.org/1999/xlink"
   xmlns:sodipodi="http://inkscape.sourceforge.net/DTD/sodipodi-0.dtd"
   xmlns:inkscape="http://www.inkscape.org/namespaces/inkscape"
   width="102.40000pt"
   height="102.40000pt"
   id="svg1673"
   sodipodi:version="0.32"
   inkscape:version="0.41+cvs"
   sodipodi:docbase="/usr/share/icons/dlg-etiquette/scalable/stock/evolution"
   sodipodi:docname="stock_lock-ok.svg">
  <defs
     id="defs3"><linearGradient
   id="linearGradient23822">
  <stop
   id="stop23824"
   offset="0.0000000"
   style="stop-color:#000000;stop-opacity:0.64406782;" />


  <stop
   id="stop23826"
   offset="1"
   style="stop-color:#000000;stop-opacity:0;" />


</linearGradient>
<linearGradient
   id="linearGradient23816">
  <stop
   style="stop-color:#000000;stop-opacity:0.64406782;"
   offset="0.0000000"
   id="stop23818" />


  <stop
   style="stop-color:#000000;stop-opacity:0;"
   offset="1"
   id="stop23820" />


</linearGradient>
<linearGradient
   id="linearGradient23810">
  <stop
   id="stop23812"
   offset="0.0000000"
   style="stop-color:#000000;stop-opacity:0.64406782;" />


  <stop
   id="stop23814"
   offset="1"
   style="stop-color:#000000;stop-opacity:0;" />


</linearGradient>
<linearGradient
   id="linearGradient23804">
  <stop
   style="stop-color:#ffffff;stop-opacity:0.56779659;"
   offset="0.0000000"
   id="stop23806" />


  <stop
   style="stop-color:#ffffff;stop-opacity:0.0000000;"
   offset="1.0000000"
   id="stop23808" />


</linearGradient>
<linearGradient
   id="linearGradient23798">
  <stop
   id="stop23800"
   offset="0.0000000"
   style="stop-color:#ffffff;stop-opacity:0.56779659;" />


  <stop
   id="stop23802"
   offset="1.0000000"
   style="stop-color:#ffffff;stop-opacity:0.0000000;" />


</linearGradient>
<linearGradient
   id="linearGradient2485">
  <stop
     style="stop-color:#000000;stop-opacity:0.41666666;"
     offset="0.0000000"
     id="stop2487" />
  <stop
     style="stop-color:#000000;stop-opacity:0;"
     offset="1"
     id="stop2489" />
</linearGradient>
<linearGradient
   id="linearGradient3290">
  <stop
     style="stop-color:#ffea00;stop-opacity:1.0000000;"
     offset="0.0000000"
     id="stop3291" />
  <stop
     style="stop-color:#ea9a00;stop-opacity:1.0000000;"
     offset="1.0000000"
     id="stop3292" />
</linearGradient>
<linearGradient
   inkscape:collect="always"
   xlink:href="#linearGradient3290"
   id="linearGradient1711"
   gradientUnits="userSpaceOnUse"
   gradientTransform="matrix(5.237492,0.000000,0.000000,3.890182,-50.70374,-43.86445)"
   x1="13.518266"
   y1="32.270412"
   x2="29.259930"
   y2="32.270412" />
<radialGradient
   inkscape:collect="always"
   xlink:href="#linearGradient2485"
   id="radialGradient2493"
   gradientTransform="scale(2.604940,0.383886)"
   cx="23.581566"
   cy="296.21893"
   fx="23.581566"
   fy="296.21893"
   r="26.049402"
   gradientUnits="userSpaceOnUse" />


<linearGradient
   inkscape:collect="always"
   xlink:href="#linearGradient2554"
   id="linearGradient2557"
   gradientTransform="scale(1.106904,0.903421)"
   x1="46.588264"
   y1="49.499783"
   x2="166.01636"
   y2="187.18365"
   gradientUnits="userSpaceOnUse" />


<linearGradient
   inkscape:collect="always"
   xlink:href="#linearGradient2545"
   id="linearGradient2548"
   gradientTransform="scale(1.106904,0.903421)"
   x1="221.22369"
   y1="214.99857"
   x2="132.21596"
   y2="119.03709"
   gradientUnits="userSpaceOnUse" />



  <radialGradient
   id="XMLID_8_"
   cx="54.2729"
   cy="89.3477"
   r="120.8132"
   fx="54.2729"
   fy="89.3477"
   gradientUnits="userSpaceOnUse">
      <stop
   offset="0.000000"
   style="stop-color:#ffffff;stop-opacity:1;"
   id="stop577" />



      <stop
   offset="1.000000"
   style="stop-color:#92ff00;stop-opacity:1;"
   id="stop578" />



      <a:midPointStop
   offset="0"
   style="stop-color:#FFFFFF"
   id="midPointStop579" />



      <a:midPointStop
   offset="0.5"
   style="stop-color:#FFFFFF"
   id="midPointStop580" />



      <a:midPointStop
   offset="1"
   style="stop-color:#000000"
   id="midPointStop581" />



    </radialGradient>



    <linearGradient
   id="XMLID_7_"
   gradientUnits="userSpaceOnUse"
   x1="127.9536"
   y1="77.3672"
   x2="127.9536"
   y2="307.3626">
      <stop
   offset="0.0056"
   style="stop-color:#CCFF66"
   id="stop570" />



      <stop
   offset="1"
   style="stop-color:#009900"
   id="stop571" />



      <a:midPointStop
   offset="0.0056"
   style="stop-color:#CCFF66"
   id="midPointStop572" />



      <a:midPointStop
   offset="0.5"
   style="stop-color:#CCFF66"
   id="midPointStop573" />



      <a:midPointStop
   offset="1"
   style="stop-color:#009900"
   id="midPointStop574" />



    </linearGradient>



    <linearGradient
   id="XMLID_6_"
   gradientUnits="userSpaceOnUse"
   x1="127.9536"
   y1="77.2075"
   x2="127.9536"
   y2="307.6057">
      <stop
   offset="0.0000000"
   style="stop-color:#33cc33;stop-opacity:1.0000000;"
   id="stop563" />



      <stop
   offset="1"
   style="stop-color:#336666"
   id="stop564" />



      <a:midPointStop
   offset="0"
   style="stop-color:#33CC33"
   id="midPointStop565" />



      <a:midPointStop
   offset="0.5"
   style="stop-color:#33CC33"
   id="midPointStop566" />



      <a:midPointStop
   offset="1"
   style="stop-color:#336666"
   id="midPointStop567" />



    </linearGradient>



    <linearGradient
   id="XMLID_5_"
   gradientUnits="userSpaceOnUse"
   x1="127.9536"
   y1="47.3267"
   x2="127.9536"
   y2="212.9885">
      <stop
   offset="0"
   style="stop-color:#009900"
   id="stop556" />



      <stop
   offset="1"
   style="stop-color:#334966"
   id="stop557" />



      <a:midPointStop
   offset="0"
   style="stop-color:#009900"
   id="midPointStop558" />



      <a:midPointStop
   offset="0.5"
   style="stop-color:#009900"
   id="midPointStop559" />



      <a:midPointStop
   offset="1"
   style="stop-color:#334966"
   id="midPointStop560" />



    </linearGradient>



    <linearGradient
   id="linearGradient2545">
  <stop
   style="stop-color:#000000;stop-opacity:0.64406782;"
   offset="0.0000000"
   id="stop2546" />


  <stop
   style="stop-color:#000000;stop-opacity:0;"
   offset="1"
   id="stop2547" />


</linearGradient>


<linearGradient
   id="linearGradient2554">
  <stop
   style="stop-color:#ffffff;stop-opacity:0.56779659;"
   offset="0.0000000"
   id="stop2555" />


  <stop
   style="stop-color:#ffffff;stop-opacity:0.0000000;"
   offset="1.0000000"
   id="stop2556" />


</linearGradient>
<linearGradient
   y2="187.18365"
   x2="166.01636"
   y1="49.499783"
   x1="46.588264"
   gradientTransform="matrix(0.294639,0.000000,0.000000,0.240475,58.42853,62.14286)"
   gradientUnits="userSpaceOnUse"
   id="linearGradient23031"
   xlink:href="#linearGradient23804"
   inkscape:collect="always" />
<linearGradient
   y2="119.03709"
   x2="132.21596"
   y1="214.99857"
   x1="221.22369"
   gradientTransform="matrix(0.294639,0.000000,0.000000,0.240475,58.42853,62.14286)"
   gradientUnits="userSpaceOnUse"
   id="linearGradient23034"
   xlink:href="#linearGradient23822"
   inkscape:collect="always" />
</defs>
  <sodipodi:namedview
     id="base"
     pagecolor="#ffffff"
     bordercolor="#666666"
     borderopacity="1.0"
     inkscape:pageopacity="0.0"
     inkscape:pageshadow="2"
     inkscape:zoom="2.8000000"
     inkscape:cx="72.881056"
     inkscape:cy="35.001777"
     inkscape:document-units="px"
     inkscape:current-layer="layer1"
     inkscape:window-width="847"
     inkscape:window-height="542"
     inkscape:window-x="256"
     inkscape:window-y="98" />
  <metadata
     id="metadata4">
    <rdf:RDF
       id="RDF5">
      <cc:Work
         rdf:about=""
         id="Work6">
        <dc:format
           id="format7">image/svg+xml</dc:format>
        <dc:type
           id="type9"
           rdf:resource="http://purl.org/dc/dcmitype/StillImage" />
      </cc:Work>
    </rdf:RDF>
  </metadata>
  <g
     inkscape:label="Layer 1"
     inkscape:groupmode="layer"
     id="layer1">
    <g
       id="g2495">
      <path
         sodipodi:type="arc"
         style="fill:url(#radialGradient2493);fill-opacity:1.0000000;stroke:none;stroke-width:2.3293400;stroke-linecap:round;stroke-linejoin:round;stroke-miterlimit:4.0000000;stroke-opacity:1.0000000"
         id="path1724"
         sodipodi:cx="61.428570"
         sodipodi:cy="113.71429"
         sodipodi:rx="67.857140"
         sodipodi:ry="10.000000"
         d="M 129.28571 113.71429 A 67.857140 10.000000 0 1 1  -6.4285698,113.71429 A 67.857140 10.000000 0 1 1  129.28571 113.71429 z"
         transform="matrix(0.952632,0.000000,0.000000,1.000000,6.124060,0.000000)" />
      <path
         d="M 29.715657,40.620017 C 29.715657,40.620017 29.715657,45.699658 29.715657,49.932691 C 23.717754,50.355995 18.642607,55.435635 18.642607,60.938578 L 18.642607,105.80873 C 18.642607,112.15829 24.179132,116.81462 30.638410,116.81462 L 96.615330,116.81462 C 103.53598,116.81462 108.61113,111.73497 108.61113,105.80873 L 108.61113,60.515275 C 108.61113,55.012331 103.99736,50.355995 98.460840,49.509388 C 98.460840,45.699658 98.460840,40.196714 98.460840,40.196714 C 98.460840,22.841276 82.774012,8.4489640 63.857558,8.4489640 C 44.941099,8.4489640 29.254279,22.841276 29.254279,40.196714 L 29.715657,40.620017 z M 51.400377,40.620017 C 51.400377,34.270467 56.936902,28.767523 64.318934,28.767523 C 71.239590,28.767523 77.237491,33.847164 77.237491,40.620017 C 77.237491,40.620017 77.237491,45.699658 77.237491,49.509388 C 71.239590,49.509388 57.398279,49.509388 51.400377,49.509388 C 51.400377,45.699658 51.400377,40.620017 51.400377,40.620017 z "
         id="path2540"
         style="fill:#000000;fill-opacity:0.50224215" />
      <path
         d="M 26.978905,38.967823 C 26.978905,38.967823 26.978905,44.047464 26.978905,48.280497 C 20.981004,48.703801 15.905857,53.783441 15.905857,59.286385 L 15.905857,104.15654 C 15.905857,110.50609 21.442382,115.16243 27.901660,115.16243 L 93.878577,115.16243 C 100.79923,115.16243 105.87438,110.08279 105.87438,104.15654 L 105.87438,58.863081 C 105.87438,53.360138 101.26060,48.703801 95.724086,47.857194 C 95.724086,44.047464 95.724086,38.544520 95.724086,38.544520 C 95.724086,21.189082 80.037260,6.7967681 61.120807,6.7967681 C 42.204348,6.7967681 26.517527,21.189082 26.517527,38.544520 L 26.978905,38.967823 z M 48.663626,38.967823 C 48.663626,32.618273 54.200150,27.115329 61.582183,27.115329 C 68.502839,27.115329 74.500740,32.194970 74.500740,38.967823 C 74.500740,38.967823 74.500740,44.047464 74.500740,47.857194 C 68.502839,47.857194 54.661529,47.857194 48.663626,47.857194 C 48.663626,44.047464 48.663626,38.967823 48.663626,38.967823 z "
         id="path897" />
      <path
         style="fill:#d2d2d2"
         d="M 31.277279,37.931902 L 31.277279,64.614134 L 44.319714,64.614134 L 44.319714,37.931902 C 44.319714,28.746216 52.238336,21.310185 62.020163,21.310185 C 71.801988,21.310185 79.720610,28.746216 79.720610,37.931902 L 79.720610,64.614134 L 92.763045,64.614134 L 92.763045,37.931902 C 92.763045,22.185011 79.254808,9.5000166 62.485963,9.5000166 C 45.717118,9.5000166 32.208881,22.185011 32.208881,37.931902 L 31.277279,37.931902 z "
         id="path899" />
      <g
         id="g901"
         transform="matrix(4.658013,0.000000,0.000000,4.374136,-50.70374,-43.86445)">
        <path
           style="opacity:0.49999997;stroke:none"
           d="M 24.600000,12.600000 C 27.900000,12.500000 30.500000,14.900000 30.700000,18.600000 L 30.700000,24.700000 L 30.100000,24.700000 L 30.100000,19.000000 C 30.100000,15.400000 27.600000,12.900000 24.600000,12.600000 z "
           id="path903" />
      </g>
      <g
         id="g906"
         transform="matrix(4.658013,0.000000,0.000000,4.374136,-50.70374,-43.86445)">
        <path
           style="opacity:0.49999997;fill:#ffffff;stroke:none"
           d="M 24.600000,12.600000 C 25.900000,12.600000 27.200000,13.000000 28.200000,13.700000 C 27.100000,12.800000 25.600000,12.200000 24.000000,12.200000 C 20.400000,12.200000 17.500000,15.100000 17.500000,18.700000 L 17.500000,24.800000 L 18.100000,24.800000 L 18.100000,19.100000 C 18.100000,15.500000 21.000000,12.600000 24.600000,12.600000 L 24.600000,12.600000 z "
           id="path908" />
      </g>
      <g
         id="g911"
         transform="matrix(4.658013,0.000000,0.000000,4.374136,-50.70374,-43.86445)">
        <path
           style="opacity:0.49999997;fill:#ffffff;stroke:none"
           d="M 28.400000,24.700000 L 28.400000,18.900000 C 28.400000,17.400000 27.500000,16.100000 26.300000,15.500000 C 27.300000,16.200000 27.900000,17.300000 27.900000,18.600000 L 27.900000,24.700000 L 28.400000,24.700000 L 28.400000,24.700000 z "
           id="path913" />
      </g>
      <g
         id="g916"
         transform="matrix(4.658013,0.000000,0.000000,4.374136,-50.70374,-43.86445)">
        <path
           style="opacity:0.49999997;stroke:none"
           d="M 20.000000,24.800000 L 20.000000,19.000000 C 20.000000,17.500000 20.900000,16.200000 22.100000,15.600000 C 21.100000,16.300000 20.500000,17.400000 20.500000,18.700000 L 20.500000,24.800000 L 20.000000,24.800000 L 20.000000,24.800000 z "
           id="path918" />
      </g>
      <path
         style="fill:url(#linearGradient1711);fill-opacity:1.0000000"
         d="M 102.54487,104.85619 C 102.54487,108.79291 99.284264,112.29222 94.626251,112.29222 L 28.016670,112.29222 C 23.824458,112.29222 20.098049,109.23033 20.098049,104.85619 L 20.098049,58.490344 C 20.098049,54.553620 23.358657,51.054311 28.016670,51.054311 L 94.626251,51.054311 C 98.818462,51.054311 102.54487,54.116207 102.54487,58.490344 L 102.54487,104.85619 z "
         id="path950" />
      <path
         style="opacity:0.49999997;fill:#ffffff"
         d="M 74.130994,73.799821 C 74.130994,68.988270 69.007182,64.176720 63.883367,64.176720 C 58.759553,64.176720 55.964745,68.988270 55.964745,73.799821 C 55.964745,77.299129 58.293752,80.361025 61.554361,81.673265 L 53.635739,94.358260 L 73.665194,95.670502 L 68.075578,81.673265 C 71.336188,80.361025 73.665194,77.299129 73.665194,73.799821 L 74.130994,73.799821 z "
         id="path952" />
      <path
         style="opacity:0.49999997"
         d="M 72.267789,72.050165 C 72.267789,67.238616 67.609777,61.989652 61.088559,61.989652 C 55.964745,61.989652 52.238336,65.926374 52.238336,70.300511 C 52.238336,75.549475 55.033144,78.611369 58.293752,79.923611 L 54.101541,94.358260 L 70.404585,92.608606 L 64.349169,78.611369 C 67.609777,77.299129 72.267789,75.549475 72.267789,72.050165 z "
         id="path954" />
      <path
         d="M 72.267789,72.487579 C 72.267789,67.676028 68.075578,64.176720 63.417566,64.176720 C 58.759553,64.176720 54.567342,68.113442 54.567342,72.487579 C 54.567342,75.986889 56.896348,79.048783 60.156956,80.361025 L 54.567342,94.358260 L 72.733591,94.358260 L 67.143975,80.361025 C 70.404585,79.048783 72.733591,75.986889 72.733591,72.487579 L 72.267789,72.487579 z "
         id="path956" />
      <path
         style="opacity:0.49999997"
         d="M 29.278870,113.95719 C 29.278870,113.95719 92.162042,113.95719 95.888453,113.95719 C 100.08066,113.95719 103.80707,110.89530 103.80707,106.52116 C 103.80707,102.58444 103.80707,60.155341 103.80707,60.155341 C 103.80707,60.155341 99.149058,102.14703 98.683261,104.33410 C 98.217455,106.52116 96.354250,109.58305 93.093645,109.58305 C 90.298836,109.58305 29.278870,113.51977 29.278870,113.51977 L 29.278870,113.95719 z "
         id="path958" />
      <path
         style="opacity:0.49999997;fill:#ffffff"
         d="M 96.294141,50.377039 C 96.294141,50.377039 33.410970,50.377039 29.684559,50.377039 C 25.492348,50.377039 21.765939,53.438934 21.765939,57.813069 C 21.765939,62.187202 21.765939,104.17889 21.765939,104.17889 C 21.765939,104.17889 26.423951,62.187202 26.889753,60.000135 C 27.355553,58.250481 29.218758,54.751174 32.479367,54.751174 C 35.274175,54.751174 96.294141,50.814453 96.294141,50.814453 L 96.294141,50.377039 z "
         id="path960" />
    </g>
    <rect
       height="68.142845"
       width="68.142845"
       style="font-size:12.000000;fill:none;overflow:visible"
       id="_x3C_Slice_x3E_"
       x="58.428532"
       y="62.142860" />
    <g
       id="g23828">
      <path
         style="font-size:12.000000;opacity:0.20000000;fill:#000000;fill-opacity:0.51569510;overflow:visible"
         d="M 117.48070,76.008213 C 117.48070,76.008213 82.728376,99.823875 82.190686,100.19227 C 81.741103,99.744286 71.069827,89.120390 71.069827,89.120390 C 70.277134,88.330356 69.235560,88.037555 68.283689,88.337011 C 67.248238,88.664950 66.579320,89.403076 66.399114,90.415636 L 66.287317,91.044627 C 66.251382,91.248257 66.254843,91.452419 66.297166,91.652855 L 66.453947,92.398700 L 66.562550,92.730630 L 78.874579,119.79984 C 79.260278,120.64710 80.039129,121.24442 80.958791,121.39721 C 81.874727,121.55133 82.805037,121.23803 83.447336,120.56033 L 121.04143,80.821334 C 121.59136,80.243983 121.90705,79.420413 121.90705,78.563836 L 121.87272,78.234834 L 121.72046,77.510017 C 121.53493,76.623628 120.96131,75.965091 120.06294,75.604946 C 119.48958,75.374697 118.57604,75.257577 117.48070,76.008213 z "
         id="path552" />
      <path
         style="font-size:12.000000;fill:#000000;fill-opacity:1.0000000;stroke:#000000;stroke-width:2.1152675;stroke-miterlimit:4.0000000;stroke-dasharray:none;stroke-opacity:1.0000000;overflow:visible"
         d="M 115.88360,73.804603 C 115.88360,73.804603 81.131278,97.620263 80.593588,97.988660 C 80.144005,97.540674 69.472729,86.916778 69.472729,86.916778 C 68.680036,86.126747 67.638462,85.833946 66.686591,86.133401 C 65.651140,86.461339 64.982222,87.199464 64.802016,88.212024 L 64.690219,88.841015 C 64.654284,89.044645 64.657745,89.248807 64.700068,89.449243 L 64.856849,90.195088 L 64.965452,90.527018 L 77.277481,117.59623 C 77.663180,118.44349 78.442031,119.04081 79.361693,119.19360 C 80.277629,119.34772 81.207939,119.03442 81.850238,118.35672 L 119.44433,78.617724 C 119.99426,78.040373 120.30996,77.216803 120.30996,76.360226 L 120.27562,76.031224 L 120.12336,75.306408 C 119.93783,74.420019 119.36421,73.761482 118.46584,73.401336 C 117.89248,73.171088 116.97894,73.053967 115.88360,73.804603 z "
         id="path561" />
      <path
         style="font-size:12.000000;fill:#00dc00;fill-opacity:1.0000000;overflow:visible"
         d="M 116.78622,75.122209 C 116.78622,75.122209 80.730673,99.830380 80.404598,100.05424 C 79.045468,98.701232 68.345976,88.048588 68.345976,88.048588 C 68.030017,87.733960 67.591880,87.522611 67.166519,87.656767 C 66.741425,87.791189 66.452084,88.052048 66.374093,88.491250 L 66.262296,89.120507 L 66.419077,89.866352 C 66.420941,89.870611 78.730574,116.93477 78.730574,116.93477 C 78.895873,117.29757 79.229933,117.55258 79.623351,117.61806 C 80.016504,117.68381 80.416044,117.54752 80.690213,117.25791 L 118.28377,77.520252 C 118.55554,77.234904 118.71259,76.810874 118.71259,76.360226 L 118.56033,75.634079 C 118.47808,75.242524 118.24304,75.032506 117.87145,74.883443 C 117.50039,74.734647 117.11576,74.896486 116.78622,75.122209 z "
         id="path568" />
      <path
         style="font-size:12.000000;fill:url(#linearGradient23034);fill-opacity:1.0000000;overflow:visible"
         d="M 116.70383,75.011427 C 116.70383,75.011427 80.648280,99.719597 80.322200,99.943457 C 78.963070,98.590449 68.263580,87.937805 68.263580,87.937805 C 67.947620,87.623178 67.509480,87.411829 67.084120,87.545985 C 66.659030,87.680407 66.369690,87.941266 66.291700,88.380468 L 66.179900,89.009724 L 66.336680,89.755569 C 66.338540,89.759828 78.648180,116.82398 78.648180,116.82398 C 78.813480,117.18679 79.147540,117.44180 79.540960,117.50728 C 79.934110,117.57302 80.333650,117.43674 80.607820,117.14713 L 118.20138,77.409470 C 118.47315,77.124122 118.63020,76.700092 118.63020,76.249444 L 118.47794,75.523297 C 118.39569,75.131742 118.16065,74.921724 117.78906,74.772661 C 117.41800,74.623865 117.03337,74.785704 116.70383,75.011427 z "
         id="path2537" />
      <path
         style="font-size:12.000000;fill:url(#linearGradient23031);fill-opacity:1.0000000;overflow:visible"
         d="M 116.70383,75.011429 C 116.70383,75.011429 80.648280,99.719600 80.322200,99.943460 C 78.963070,98.590452 68.263580,87.937807 68.263580,87.937807 C 67.947620,87.623179 67.509480,87.411829 67.084120,87.545986 C 66.659030,87.680408 66.369690,87.941267 66.291700,88.380469 L 66.179900,89.009727 L 66.336680,89.755572 C 66.338540,89.759831 78.648180,116.82399 78.648180,116.82399 C 78.813480,117.18679 79.147540,117.44180 79.540960,117.50728 C 79.934110,117.57303 80.333650,117.43674 80.607820,117.14713 L 118.20137,77.409472 C 118.47315,77.124123 118.63019,76.700094 118.63019,76.249446 L 118.47794,75.523299 C 118.39569,75.131744 118.16065,74.921725 117.78906,74.772663 C 117.41800,74.623867 117.03336,74.785706 116.70383,75.011429 z "
         id="path2549" />
    </g>
  </g>
</svg>
