<?xml version="1.0" encoding="UTF-8" standalone="no"?>
<!-- Created with Inkscape (http://www.inkscape.org/) -->
<svg
   xmlns:a="http://ns.adobe.com/AdobeSVGViewerExtensions/3.0/"
   xmlns:dc="http://purl.org/dc/elements/1.1/"
   xmlns:cc="http://web.resource.org/cc/"
   xmlns:rdf="http://www.w3.org/1999/02/22-rdf-syntax-ns#"
   xmlns:svg="http://www.w3.org/2000/svg"
   xmlns="http://www.w3.org/2000/svg"
   xmlns:xlink="http://www.w3.org/1999/xlink"
   xmlns:sodipodi="http://inkscape.sourceforge.net/DTD/sodipodi-0.dtd"
   xmlns:inkscape="http://www.inkscape.org/namespaces/inkscape"
   width="102.40000pt"
   height="102.40000pt"
   id="svg1673"
   sodipodi:version="0.32"
   inkscape:version="0.41+cvs"
   sodipodi:docbase="/usr/share/icons/dlg-etiquette/scalable/stock/evolution"
   sodipodi:docname="stock_lock-broken.svg">
  <defs
     id="defs3"><linearGradient
   id="linearGradient23822">
  <stop
   id="stop23824"
   offset="0.0000000"
   style="stop-color:#000000;stop-opacity:0.64406782;" />


  <stop
   id="stop23826"
   offset="1"
   style="stop-color:#000000;stop-opacity:0;" />


</linearGradient>
<linearGradient
   id="linearGradient23816">
  <stop
   style="stop-color:#000000;stop-opacity:0.64406782;"
   offset="0.0000000"
   id="stop23818" />


  <stop
   style="stop-color:#000000;stop-opacity:0;"
   offset="1"
   id="stop23820" />


</linearGradient>
<linearGradient
   id="linearGradient23810">
  <stop
   id="stop23812"
   offset="0.0000000"
   style="stop-color:#000000;stop-opacity:0.64406782;" />


  <stop
   id="stop23814"
   offset="1"
   style="stop-color:#000000;stop-opacity:0;" />


</linearGradient>
<linearGradient
   id="linearGradient23804">
  <stop
   style="stop-color:#ffffff;stop-opacity:0.56779659;"
   offset="0.0000000"
   id="stop23806" />


  <stop
   style="stop-color:#ffffff;stop-opacity:0.0000000;"
   offset="1.0000000"
   id="stop23808" />


</linearGradient>
<linearGradient
   id="linearGradient23798">
  <stop
   id="stop23800"
   offset="0.0000000"
   style="stop-color:#ffffff;stop-opacity:0.56779659;" />


  <stop
   id="stop23802"
   offset="1.0000000"
   style="stop-color:#ffffff;stop-opacity:0.0000000;" />


</linearGradient>
<linearGradient
   id="linearGradient2485">
  <stop
     style="stop-color:#000000;stop-opacity:0.41666666;"
     offset="0.0000000"
     id="stop2487" />
  <stop
     style="stop-color:#000000;stop-opacity:0;"
     offset="1"
     id="stop2489" />
</linearGradient>
<linearGradient
   id="linearGradient3290">
  <stop
     style="stop-color:#ffea00;stop-opacity:1.0000000;"
     offset="0.0000000"
     id="stop3291" />
  <stop
     style="stop-color:#ea9a00;stop-opacity:1.0000000;"
     offset="1.0000000"
     id="stop3292" />
</linearGradient>
<linearGradient
   inkscape:collect="always"
   xlink:href="#linearGradient3290"
   id="linearGradient1711"
   gradientUnits="userSpaceOnUse"
   gradientTransform="matrix(5.237492,0.000000,0.000000,3.890182,-50.70374,-43.86445)"
   x1="13.518266"
   y1="32.270412"
   x2="29.259930"
   y2="32.270412" />
<radialGradient
   inkscape:collect="always"
   xlink:href="#linearGradient2485"
   id="radialGradient2493"
   gradientTransform="scale(2.604940,0.383886)"
   cx="23.581566"
   cy="296.21893"
   fx="23.581566"
   fy="296.21893"
   r="26.049402"
   gradientUnits="userSpaceOnUse" />


<linearGradient
   inkscape:collect="always"
   xlink:href="#linearGradient2554"
   id="linearGradient2557"
   gradientTransform="scale(1.106904,0.903421)"
   x1="46.588264"
   y1="49.499783"
   x2="166.01636"
   y2="187.18365"
   gradientUnits="userSpaceOnUse" />


<linearGradient
   inkscape:collect="always"
   xlink:href="#linearGradient2545"
   id="linearGradient2548"
   gradientTransform="scale(1.106904,0.903421)"
   x1="221.22369"
   y1="214.99857"
   x2="132.21596"
   y2="119.03709"
   gradientUnits="userSpaceOnUse" />



  <radialGradient
   id="XMLID_8_"
   cx="54.2729"
   cy="89.3477"
   r="120.8132"
   fx="54.2729"
   fy="89.3477"
   gradientUnits="userSpaceOnUse">
      <stop
   offset="0.000000"
   style="stop-color:#ffffff;stop-opacity:1;"
   id="stop577" />



      <stop
   offset="1.000000"
   style="stop-color:#92ff00;stop-opacity:1;"
   id="stop578" />



      <a:midPointStop
   offset="0"
   style="stop-color:#FFFFFF"
   id="midPointStop579" />



      <a:midPointStop
   offset="0.5"
   style="stop-color:#FFFFFF"
   id="midPointStop580" />



      <a:midPointStop
   offset="1"
   style="stop-color:#000000"
   id="midPointStop581" />



    </radialGradient>



    <linearGradient
   id="XMLID_7_"
   gradientUnits="userSpaceOnUse"
   x1="127.9536"
   y1="77.3672"
   x2="127.9536"
   y2="307.3626">
      <stop
   offset="0.0056"
   style="stop-color:#CCFF66"
   id="stop570" />



      <stop
   offset="1"
   style="stop-color:#009900"
   id="stop571" />



      <a:midPointStop
   offset="0.0056"
   style="stop-color:#CCFF66"
   id="midPointStop572" />



      <a:midPointStop
   offset="0.5"
   style="stop-color:#CCFF66"
   id="midPointStop573" />



      <a:midPointStop
   offset="1"
   style="stop-color:#009900"
   id="midPointStop574" />



    </linearGradient>



    <linearGradient
   id="XMLID_6_"
   gradientUnits="userSpaceOnUse"
   x1="127.9536"
   y1="77.2075"
   x2="127.9536"
   y2="307.6057">
      <stop
   offset="0.0000000"
   style="stop-color:#33cc33;stop-opacity:1.0000000;"
   id="stop563" />



      <stop
   offset="1"
   style="stop-color:#336666"
   id="stop564" />



      <a:midPointStop
   offset="0"
   style="stop-color:#33CC33"
   id="midPointStop565" />



      <a:midPointStop
   offset="0.5"
   style="stop-color:#33CC33"
   id="midPointStop566" />



      <a:midPointStop
   offset="1"
   style="stop-color:#336666"
   id="midPointStop567" />



    </linearGradient>



    <linearGradient
   id="XMLID_5_"
   gradientUnits="userSpaceOnUse"
   x1="127.9536"
   y1="47.3267"
   x2="127.9536"
   y2="212.9885">
      <stop
   offset="0.0000000"
   style="stop-color:#ff0000;stop-opacity:1.0000000;"
   id="stop556" />



      <stop
   offset="1.0000000"
   style="stop-color:#ff0000;stop-opacity:1.0000000;"
   id="stop557" />



      <a:midPointStop
   offset="0"
   style="stop-color:#009900"
   id="midPointStop558" />



      <a:midPointStop
   offset="0.5"
   style="stop-color:#009900"
   id="midPointStop559" />



      <a:midPointStop
   offset="1"
   style="stop-color:#334966"
   id="midPointStop560" />



    </linearGradient>



    <linearGradient
   id="linearGradient2545">
  <stop
   style="stop-color:#000000;stop-opacity:0.64406782;"
   offset="0.0000000"
   id="stop2546" />


  <stop
   style="stop-color:#000000;stop-opacity:0;"
   offset="1"
   id="stop2547" />


</linearGradient>


<linearGradient
   id="linearGradient2554">
  <stop
   style="stop-color:#ffffff;stop-opacity:0.56779659;"
   offset="0.0000000"
   id="stop2555" />


  <stop
   style="stop-color:#ffffff;stop-opacity:0.0000000;"
   offset="1.0000000"
   id="stop2556" />


</linearGradient>








    
  <linearGradient
   id="linearGradient24261"
   gradientUnits="userSpaceOnUse"
   x1="127.5972"
   y1="36.8535"
   x2="127.5972"
   y2="139.1456">
      <stop
   offset="0.0056"
   style="stop-color:#FFFFFF"
   id="stop573" />




      <stop
   offset="1"
   style="stop-color:#FF6666"
   id="stop574" />




      <a:midPointStop
   offset="0.0056"
   style="stop-color:#FFFFFF"
   id="midPointStop575" />




      <a:midPointStop
   offset="0.5"
   style="stop-color:#FFFFFF"
   id="midPointStop576" />




      <a:midPointStop
   offset="1"
   style="stop-color:#FF6666"
   id="midPointStop577" />




    </linearGradient>




    
    <linearGradient
   id="linearGradient24247"
   gradientUnits="userSpaceOnUse"
   x1="32.4849"
   y1="127.5029"
   x2="222.7139"
   y2="127.5029">
      <stop
   offset="0.0056"
   style="stop-color:#FF6D00"
   id="stop24249" />




      <stop
   offset="0.5"
   style="stop-color:#CF0000"
   id="stop24251" />




      <stop
   offset="1"
   style="stop-color:#FF6666"
   id="stop565" />




      <a:midPointStop
   offset="0.0056"
   style="stop-color:#FF6D00"
   id="midPointStop24254" />




      <a:midPointStop
   offset="0.5"
   style="stop-color:#FF6D00"
   id="midPointStop24256" />




      <a:midPointStop
   offset="0.5"
   style="stop-color:#CF0000"
   id="midPointStop568" />




      <a:midPointStop
   offset="0.5"
   style="stop-color:#CF0000"
   id="midPointStop569" />




      <a:midPointStop
   offset="1"
   style="stop-color:#FF6666"
   id="midPointStop570" />




    </linearGradient>




    
    <linearGradient
   id="XMLID_4_"
   gradientUnits="userSpaceOnUse"
   x1="20.0864"
   y1="127.5"
   x2="235.1136"
   y2="127.5">
      <stop
   offset="0.0056"
   style="stop-color:#AA0000"
   id="stop24237" />




      <stop
   offset="1"
   style="stop-color:#663333"
   id="stop24239" />




      <a:midPointStop
   offset="0.0056"
   style="stop-color:#AA0000"
   id="midPointStop24241" />




      <a:midPointStop
   offset="0.5"
   style="stop-color:#AA0000"
   id="midPointStop24243" />




      <a:midPointStop
   offset="1"
   style="stop-color:#663333"
   id="midPointStop24245" />




    </linearGradient>



    
    
    
    
    <linearGradient
   id="linearGradient1837">
  <stop
   style="stop-color:#000000;stop-opacity:0.20338982;"
   offset="0.0000000"
   id="stop1838" />


  <stop
   style="stop-color:#000000;stop-opacity:0;"
   offset="1"
   id="stop1839" />


</linearGradient>


<linearGradient
   id="linearGradient1846">
  <stop
   style="stop-color:#ffffff;stop-opacity:0.83050847;"
   offset="0.0000000"
   id="stop1847" />


  <stop
   style="stop-color:#ffffff;stop-opacity:0;"
   offset="1"
   id="stop1848" />


</linearGradient>
<linearGradient
   y2="212.9885"
   x2="127.9536"
   y1="47.3267"
   x1="127.9536"
   gradientTransform="matrix(0.187143,0.000000,0.000000,0.187143,290.6955,76.37239)"
   gradientUnits="userSpaceOnUse"
   id="linearGradient25065"
   xlink:href="#XMLID_5_"
   inkscape:collect="always" />
<linearGradient
   y2="66.408051"
   x2="157.60197"
   y1="274.47455"
   x1="162.06055"
   gradientTransform="matrix(0.187141,0.000000,0.000000,0.187145,288.2934,75.03789)"
   gradientUnits="userSpaceOnUse"
   id="linearGradient25067"
   xlink:href="#linearGradient1837"
   inkscape:collect="always" />
<linearGradient
   y2="164.79666"
   x2="118.72784"
   y1="34.012009"
   x1="56.307877"
   gradientTransform="matrix(0.187141,0.000000,0.000000,0.187145,290.6955,76.37239)"
   gradientUnits="userSpaceOnUse"
   id="linearGradient25069"
   xlink:href="#linearGradient1846"
   inkscape:collect="always" />
</defs>
  <sodipodi:namedview
     id="base"
     pagecolor="#ffffff"
     bordercolor="#666666"
     borderopacity="1.0"
     inkscape:pageopacity="0.0"
     inkscape:pageshadow="2"
     inkscape:zoom="1.9798990"
     inkscape:cx="157.84922"
     inkscape:cy="17.677631"
     inkscape:document-units="px"
     inkscape:current-layer="layer1"
     inkscape:window-width="847"
     inkscape:window-height="542"
     inkscape:window-x="256"
     inkscape:window-y="98" />
  <metadata
     id="metadata4">
    <rdf:RDF
       id="RDF5">
      <cc:Work
         rdf:about=""
         id="Work6">
        <dc:format
           id="format7">image/svg+xml</dc:format>
        <dc:type
           id="type9"
           rdf:resource="http://purl.org/dc/dcmitype/StillImage" />
      </cc:Work>
    </rdf:RDF>
  </metadata>
  <g
     inkscape:label="Layer 1"
     inkscape:groupmode="layer"
     id="layer1">
    <g
       id="g2495">
      <path
         sodipodi:type="arc"
         style="fill:url(#radialGradient2493);fill-opacity:1.0000000;stroke:none;stroke-width:2.3293400;stroke-linecap:round;stroke-linejoin:round;stroke-miterlimit:4.0000000;stroke-opacity:1.0000000"
         id="path1724"
         sodipodi:cx="61.428570"
         sodipodi:cy="113.71429"
         sodipodi:rx="67.857140"
         sodipodi:ry="10.000000"
         d="M 129.28571 113.71429 A 67.857140 10.000000 0 1 1  -6.4285698,113.71429 A 67.857140 10.000000 0 1 1  129.28571 113.71429 z"
         transform="matrix(0.952632,0.000000,0.000000,1.000000,6.124060,0.000000)" />
      <path
         d="M 29.715657,40.620017 C 29.715657,40.620017 29.715657,45.699658 29.715657,49.932691 C 23.717754,50.355995 18.642607,55.435635 18.642607,60.938578 L 18.642607,105.80873 C 18.642607,112.15829 24.179132,116.81462 30.638410,116.81462 L 96.615330,116.81462 C 103.53598,116.81462 108.61113,111.73497 108.61113,105.80873 L 108.61113,60.515275 C 108.61113,55.012331 103.99736,50.355995 98.460840,49.509388 C 98.460840,45.699658 98.460840,40.196714 98.460840,40.196714 C 98.460840,22.841276 82.774012,8.4489640 63.857558,8.4489640 C 44.941099,8.4489640 29.254279,22.841276 29.254279,40.196714 L 29.715657,40.620017 z M 51.400377,40.620017 C 51.400377,34.270467 56.936902,28.767523 64.318934,28.767523 C 71.239590,28.767523 77.237491,33.847164 77.237491,40.620017 C 77.237491,40.620017 77.237491,45.699658 77.237491,49.509388 C 71.239590,49.509388 57.398279,49.509388 51.400377,49.509388 C 51.400377,45.699658 51.400377,40.620017 51.400377,40.620017 z "
         id="path2540"
         style="fill:#000000;fill-opacity:0.50224215" />
      <path
         d="M 26.978905,38.967823 C 26.978905,38.967823 26.978905,44.047464 26.978905,48.280497 C 20.981004,48.703801 15.905857,53.783441 15.905857,59.286385 L 15.905857,104.15654 C 15.905857,110.50609 21.442382,115.16243 27.901660,115.16243 L 93.878577,115.16243 C 100.79923,115.16243 105.87438,110.08279 105.87438,104.15654 L 105.87438,58.863081 C 105.87438,53.360138 101.26060,48.703801 95.724086,47.857194 C 95.724086,44.047464 95.724086,38.544520 95.724086,38.544520 C 95.724086,21.189082 80.037260,6.7967681 61.120807,6.7967681 C 42.204348,6.7967681 26.517527,21.189082 26.517527,38.544520 L 26.978905,38.967823 z M 48.663626,38.967823 C 48.663626,32.618273 54.200150,27.115329 61.582183,27.115329 C 68.502839,27.115329 74.500740,32.194970 74.500740,38.967823 C 74.500740,38.967823 74.500740,44.047464 74.500740,47.857194 C 68.502839,47.857194 54.661529,47.857194 48.663626,47.857194 C 48.663626,44.047464 48.663626,38.967823 48.663626,38.967823 z "
         id="path897" />
      <path
         style="fill:#d2d2d2"
         d="M 31.277279,37.931902 L 31.277279,64.614134 L 44.319714,64.614134 L 44.319714,37.931902 C 44.319714,28.746216 52.238336,21.310185 62.020163,21.310185 C 71.801988,21.310185 79.720610,28.746216 79.720610,37.931902 L 79.720610,64.614134 L 92.763045,64.614134 L 92.763045,37.931902 C 92.763045,22.185011 79.254808,9.5000166 62.485963,9.5000166 C 45.717118,9.5000166 32.208881,22.185011 32.208881,37.931902 L 31.277279,37.931902 z "
         id="path899" />
      <g
         id="g901"
         transform="matrix(4.658013,0.000000,0.000000,4.374136,-50.70374,-43.86445)">
        <path
           style="opacity:0.49999997;stroke:none"
           d="M 24.600000,12.600000 C 27.900000,12.500000 30.500000,14.900000 30.700000,18.600000 L 30.700000,24.700000 L 30.100000,24.700000 L 30.100000,19.000000 C 30.100000,15.400000 27.600000,12.900000 24.600000,12.600000 z "
           id="path903" />
      </g>
      <g
         id="g906"
         transform="matrix(4.658013,0.000000,0.000000,4.374136,-50.70374,-43.86445)">
        <path
           style="opacity:0.49999997;fill:#ffffff;stroke:none"
           d="M 24.600000,12.600000 C 25.900000,12.600000 27.200000,13.000000 28.200000,13.700000 C 27.100000,12.800000 25.600000,12.200000 24.000000,12.200000 C 20.400000,12.200000 17.500000,15.100000 17.500000,18.700000 L 17.500000,24.800000 L 18.100000,24.800000 L 18.100000,19.100000 C 18.100000,15.500000 21.000000,12.600000 24.600000,12.600000 L 24.600000,12.600000 z "
           id="path908" />
      </g>
      <g
         id="g911"
         transform="matrix(4.658013,0.000000,0.000000,4.374136,-50.70374,-43.86445)">
        <path
           style="opacity:0.49999997;fill:#ffffff;stroke:none"
           d="M 28.400000,24.700000 L 28.400000,18.900000 C 28.400000,17.400000 27.500000,16.100000 26.300000,15.500000 C 27.300000,16.200000 27.900000,17.300000 27.900000,18.600000 L 27.900000,24.700000 L 28.400000,24.700000 L 28.400000,24.700000 z "
           id="path913" />
      </g>
      <g
         id="g916"
         transform="matrix(4.658013,0.000000,0.000000,4.374136,-50.70374,-43.86445)">
        <path
           style="opacity:0.49999997;stroke:none"
           d="M 20.000000,24.800000 L 20.000000,19.000000 C 20.000000,17.500000 20.900000,16.200000 22.100000,15.600000 C 21.100000,16.300000 20.500000,17.400000 20.500000,18.700000 L 20.500000,24.800000 L 20.000000,24.800000 L 20.000000,24.800000 z "
           id="path918" />
      </g>
      <path
         style="fill:url(#linearGradient1711);fill-opacity:1.0000000"
         d="M 102.54487,104.85619 C 102.54487,108.79291 99.284264,112.29222 94.626251,112.29222 L 28.016670,112.29222 C 23.824458,112.29222 20.098049,109.23033 20.098049,104.85619 L 20.098049,58.490344 C 20.098049,54.553620 23.358657,51.054311 28.016670,51.054311 L 94.626251,51.054311 C 98.818462,51.054311 102.54487,54.116207 102.54487,58.490344 L 102.54487,104.85619 z "
         id="path950" />
      <path
         style="opacity:0.49999997;fill:#ffffff"
         d="M 74.130994,73.799821 C 74.130994,68.988270 69.007182,64.176720 63.883367,64.176720 C 58.759553,64.176720 55.964745,68.988270 55.964745,73.799821 C 55.964745,77.299129 58.293752,80.361025 61.554361,81.673265 L 53.635739,94.358260 L 73.665194,95.670502 L 68.075578,81.673265 C 71.336188,80.361025 73.665194,77.299129 73.665194,73.799821 L 74.130994,73.799821 z "
         id="path952" />
      <path
         style="opacity:0.49999997"
         d="M 72.267789,72.050165 C 72.267789,67.238616 67.609777,61.989652 61.088559,61.989652 C 55.964745,61.989652 52.238336,65.926374 52.238336,70.300511 C 52.238336,75.549475 55.033144,78.611369 58.293752,79.923611 L 54.101541,94.358260 L 70.404585,92.608606 L 64.349169,78.611369 C 67.609777,77.299129 72.267789,75.549475 72.267789,72.050165 z "
         id="path954" />
      <path
         d="M 72.267789,72.487579 C 72.267789,67.676028 68.075578,64.176720 63.417566,64.176720 C 58.759553,64.176720 54.567342,68.113442 54.567342,72.487579 C 54.567342,75.986889 56.896348,79.048783 60.156956,80.361025 L 54.567342,94.358260 L 72.733591,94.358260 L 67.143975,80.361025 C 70.404585,79.048783 72.733591,75.986889 72.733591,72.487579 L 72.267789,72.487579 z "
         id="path956" />
      <path
         style="opacity:0.49999997"
         d="M 29.278870,113.95719 C 29.278870,113.95719 92.162042,113.95719 95.888453,113.95719 C 100.08066,113.95719 103.80707,110.89530 103.80707,106.52116 C 103.80707,102.58444 103.80707,60.155341 103.80707,60.155341 C 103.80707,60.155341 99.149058,102.14703 98.683261,104.33410 C 98.217455,106.52116 96.354250,109.58305 93.093645,109.58305 C 90.298836,109.58305 29.278870,113.51977 29.278870,113.51977 L 29.278870,113.95719 z "
         id="path958" />
      <path
         style="opacity:0.49999997;fill:#ffffff"
         d="M 96.294141,50.377039 C 96.294141,50.377039 33.410970,50.377039 29.684559,50.377039 C 25.492348,50.377039 21.765939,53.438934 21.765939,57.813069 C 21.765939,62.187202 21.765939,104.17889 21.765939,104.17889 C 21.765939,104.17889 26.423951,62.187202 26.889753,60.000135 C 27.355553,58.250481 29.218758,54.751174 32.479367,54.751174 C 35.274175,54.751174 96.294141,50.814453 96.294141,50.814453 L 96.294141,50.377039 z "
         id="path960" />
    </g>
    <rect
       height="68.142845"
       width="68.142845"
       style="font-size:12.000000;fill:none;overflow:visible"
       id="_x3C_Slice_x3E_"
       x="58.428532"
       y="62.142860" />
    <g
       transform="translate(-214.0000,0.000000)"
       id="g25055">
      <rect
         y="76.372391"
         x="290.69550"
         id="rect24272"
         style="fill:none;overflow:visible"
         width="47.908607"
         height="47.908607" />
      <path
         style="opacity:0.20000000;overflow:visible"
         d="M 327.03306,82.395213 L 327.03306,82.395213 L 327.03306,82.395213 M 325.10174,83.196559 L 316.29273,92.004071 C 316.07602,92.221905 315.78071,92.343922 315.47342,92.343922 L 315.47342,92.343922 C 315.16538,92.343922 314.87063,92.221905 314.65299,92.004071 L 305.84529,83.195998 C 304.78101,82.131716 303.04769,82.131154 301.98247,83.195062 L 297.31288,87.864654 C 296.79674,88.380046 296.51321,89.065925 296.51321,89.795970 C 296.51321,90.526015 296.79674,91.212081 297.31288,91.726725 C 297.31288,91.727660 306.12020,100.53629 306.12020,100.53629 C 306.57346,100.98918 306.57346,101.72390 306.12020,102.17716 L 297.31288,110.98467 C 296.79748,111.50100 296.51321,112.18688 296.51321,112.91580 C 296.51321,113.64604 296.79674,114.33266 297.31288,114.84693 L 301.98116,119.51690 C 302.49655,120.03285 303.18243,120.31637 303.91322,120.31637 C 304.64252,120.31637 305.32933,120.03266 305.84529,119.51690 L 314.65280,110.70864 C 315.10606,110.25613 315.83985,110.25613 316.29255,110.70864 L 325.10080,119.51690 C 325.61638,120.03285 326.30339,120.31637 327.03324,120.31637 C 327.76310,120.31637 328.44823,120.03266 328.96400,119.51690 L 333.63209,114.84862 C 334.14842,114.33117 334.43288,113.64604 334.43288,112.91580 C 334.43288,112.18538 334.14823,111.50082 333.63247,110.98467 C 333.63209,110.98467 324.82533,102.17698 324.82533,102.17698 C 324.59870,101.95053 324.48567,101.65316 324.48567,101.35598 C 324.48567,101.05992 324.59870,100.76255 324.82533,100.53611 L 333.63209,91.727660 C 334.14187,91.220128 334.43288,90.516284 334.43288,89.795970 C 334.43288,89.065364 334.14823,88.379485 333.63209,87.864093 L 328.96400,83.196185 C 328.44804,82.679671 327.76348,82.395775 327.03287,82.395400 C 326.30339,82.395213 325.61751,82.679483 325.10174,83.196559 z "
         id="path552" />
      <path
         style="opacity:0.20000000;overflow:visible"
         d="M 326.58391,82.170642 L 326.58391,82.170642 L 326.58391,82.170642 M 324.65260,82.971988 L 315.84340,91.779686 C 315.62688,91.997520 315.33138,92.119351 315.02409,92.119351 L 315.02409,92.119351 C 314.71624,92.119351 314.42149,91.997333 314.20366,91.779686 L 305.39596,82.971426 C 304.33167,81.907144 302.59854,81.906583 301.53333,82.970491 L 296.86373,87.639896 C 296.34759,88.155288 296.06407,88.841167 296.06407,89.571212 C 296.06407,90.301069 296.34759,90.987323 296.86373,91.501779 C 296.86373,91.502714 305.67106,100.31135 305.67106,100.31135 C 306.12432,100.76423 306.12432,101.49896 305.67106,101.95203 L 296.86373,110.76010 C 296.34834,111.27643 296.06407,111.96250 296.06407,112.69123 C 296.06407,113.42146 296.34759,114.10828 296.86373,114.62255 L 301.53202,119.29233 C 302.04741,119.80828 302.73329,120.09199 303.46408,120.09199 C 304.19338,120.09199 304.88019,119.80809 305.39596,119.29233 L 314.20366,110.48425 C 314.65692,110.03156 315.39070,110.03156 315.84340,110.48425 L 324.65166,119.29233 C 325.16724,119.80828 325.85443,120.09199 326.58410,120.09199 C 327.31396,120.09199 327.99928,119.80809 328.51485,119.29233 L 333.18295,114.62404 C 333.69928,114.10659 333.98392,113.42146 333.98392,112.69123 C 333.98392,111.96081 333.69928,111.27624 333.18351,110.76010 C 333.18295,110.76010 324.37619,101.95241 324.37619,101.95241 C 324.14956,101.72596 324.03652,101.42859 324.03652,101.13141 C 324.03652,100.83535 324.14956,100.53798 324.37619,100.31172 L 333.18295,91.503089 C 333.69273,90.995557 333.98392,90.291899 333.98392,89.571399 C 333.98392,88.840792 333.69928,88.154913 333.18295,87.639334 L 328.51485,82.971426 C 327.99909,82.454912 327.31433,82.171016 326.58373,82.170829 C 325.85443,82.170642 325.16836,82.454912 324.65260,82.971988 z "
         id="path553" />
      <path
         style="opacity:0.20000000;overflow:visible"
         d="M 326.58391,81.721498 L 326.58391,81.721498 L 326.58391,81.721498 M 324.65260,82.522845 L 315.84340,91.330356 C 315.62688,91.548190 315.33138,91.670207 315.02409,91.670207 L 315.02409,91.670207 C 314.71624,91.670207 314.42149,91.548190 314.20366,91.330356 L 305.39596,82.522283 C 304.33167,81.458001 302.59854,81.457440 301.53333,82.521348 L 296.86373,87.190940 C 296.34759,87.706332 296.06407,88.392211 296.06407,89.122255 C 296.06407,89.852113 296.34759,90.538367 296.86373,91.052823 C 296.86373,91.053758 305.67106,99.862392 305.67106,99.862392 C 306.12432,100.31528 306.12432,101.05000 305.67106,101.50307 L 296.86373,110.31115 C 296.34834,110.82729 296.06407,111.51335 296.06407,112.24228 C 296.06407,112.97251 296.34759,113.65914 296.86373,114.17340 L 301.53202,118.84337 C 302.04741,119.35914 302.73329,119.64285 303.46408,119.64285 C 304.19338,119.64285 304.88019,119.35895 305.39596,118.84337 L 314.20366,110.03511 C 314.65692,109.58241 315.39070,109.58241 315.84340,110.03511 L 324.65166,118.84337 C 325.16724,119.35914 325.85443,119.64285 326.58410,119.64285 C 327.31396,119.64285 327.99928,119.35895 328.51485,118.84337 L 333.18295,114.17490 C 333.69928,113.65764 333.98392,112.97251 333.98392,112.24228 C 333.98392,111.51186 333.69928,110.82710 333.18351,110.31115 C 333.18295,110.31115 324.37619,101.50326 324.37619,101.50326 C 324.14956,101.27701 324.03652,100.97964 324.03652,100.68245 C 324.03652,100.38621 324.14956,100.08902 324.37619,99.862579 L 333.18295,91.053945 C 333.69273,90.546414 333.98392,89.842756 333.98392,89.122255 C 333.98392,88.391649 333.69928,87.705770 333.18295,87.190191 L 328.51485,82.522283 C 327.99909,82.005769 327.31433,81.721873 326.58373,81.721498 C 325.85443,81.721498 325.16836,82.005769 324.65260,82.522845 z "
         id="path554" />
      <path
         style="fill:#000000;fill-opacity:1.0000000;stroke:#000000;stroke-width:2.7846878;stroke-miterlimit:4.0000000;stroke-dasharray:none;stroke-opacity:1.0000000;overflow:visible"
         d="M 326.13458,81.272355 L 326.13458,81.272355 L 326.13458,81.272355 M 324.20345,82.073701 L 315.39445,90.881213 C 315.17773,91.099047 314.88242,91.221064 314.57513,91.221064 L 314.57513,91.221064 C 314.26710,91.221064 313.97253,91.099047 313.75470,90.881213 L 304.94681,82.073140 C 303.88253,81.008858 302.14940,81.008296 301.08418,82.072204 L 296.41459,86.741796 C 295.89845,87.257188 295.61493,87.943067 295.61493,88.673112 C 295.61493,89.403157 295.89864,90.089223 296.41459,90.603867 C 296.41459,90.604802 305.22191,99.413436 305.22191,99.413436 C 305.67517,99.866322 305.67517,100.60086 305.22191,101.05412 L 296.41459,109.86182 C 295.89920,110.37814 295.61493,111.06402 295.61493,111.79295 C 295.61493,112.52318 295.89864,113.20981 296.41459,113.72407 L 301.08287,118.39404 C 301.59826,118.90999 302.28414,119.19352 303.01475,119.19352 C 303.74405,119.19352 304.43086,118.90981 304.94681,118.39404 L 313.75451,109.58578 C 314.20777,109.13327 314.94156,109.13327 315.39426,109.58578 L 324.20233,118.39404 C 324.71810,118.90999 325.40510,119.19352 326.13496,119.19352 C 326.86463,119.19352 327.54995,118.90981 328.06571,118.39404 L 332.73381,113.72576 C 333.25013,113.20831 333.53459,112.52318 333.53459,111.79295 C 333.53459,111.06253 333.24995,110.37796 332.73418,109.86182 C 332.73381,109.86182 323.92686,101.05412 323.92686,101.05412 C 323.70041,100.82768 323.58738,100.53031 323.58738,100.23312 C 323.58738,99.937062 323.70041,99.639692 323.92686,99.413436 L 332.73381,90.604802 C 333.24358,90.097270 333.53459,89.393426 333.53459,88.673112 C 333.53459,87.942506 333.24995,87.256627 332.73381,86.741235 L 328.06571,82.073327 C 327.54976,81.556813 326.86519,81.272917 326.13440,81.272542 C 325.40529,81.272355 324.71941,81.556625 324.20345,82.073701 z "
         id="path561" />
      <path
         style="fill:url(#linearGradient25065);overflow:visible"
         d="M 321.46742,100.23312 C 323.28140,98.416151 331.91393,89.784367 331.91393,89.784367 C 332.20943,89.489991 332.37487,89.089318 332.37487,88.673112 C 332.37487,88.256719 332.20943,87.856982 331.91393,87.561670 L 327.24528,82.893762 C 326.63294,82.279559 325.63660,82.279559 325.02370,82.893762 C 325.02370,82.893762 316.39080,91.525172 314.57495,93.342892 C 312.75835,91.525172 304.12638,82.893762 304.12638,82.893762 C 303.51218,82.279559 302.51770,82.280869 301.90293,82.893762 L 297.23465,87.561483 C 296.92736,87.868772 296.77465,88.271129 296.77465,88.672925 C 296.77465,89.075844 296.92717,89.477266 297.23465,89.784180 C 297.23465,89.784180 305.86662,98.416151 307.68322,100.23294 C 305.86662,102.04953 297.23465,110.68150 297.23465,110.68150 C 296.92736,110.98935 296.77465,111.39059 296.77465,111.79276 C 296.77465,112.19512 296.92717,112.59785 297.23465,112.90439 L 301.90293,117.57304 C 302.19806,117.86742 302.59798,118.03416 303.01475,118.03416 C 303.43227,118.03416 303.83088,117.86742 304.12638,117.57304 C 304.12638,117.57304 312.75835,108.94070 314.57495,107.12448 C 316.39080,108.94070 325.02370,117.57304 325.02370,117.57304 C 325.63660,118.18725 326.63294,118.18725 327.24528,117.57304 L 331.91393,112.90439 C 332.22197,112.59766 332.37487,112.19512 332.37487,111.79276 C 332.37487,111.39059 332.22197,110.98917 331.91393,110.68150 C 331.91393,110.68169 323.28140,102.04972 321.46742,100.23312 z "
         id="path571" />
      <path
         style="fill:url(#linearGradient25067);fill-opacity:1.0000000;overflow:visible"
         d="M 321.34229,100.25945 C 323.15627,98.442482 331.78880,89.810699 331.78880,89.810699 C 332.08430,89.516323 332.24974,89.115650 332.24974,88.699444 C 332.24974,88.283051 332.08430,87.883314 331.78880,87.588002 L 327.12015,82.920094 C 326.50782,82.305891 325.51147,82.305891 324.89857,82.920094 C 324.89857,82.920094 316.26567,91.551504 314.44982,93.369223 C 312.63322,91.551504 304.00125,82.920094 304.00125,82.920094 C 303.38704,82.305891 302.39257,82.307201 301.77780,82.920094 L 297.10952,87.587815 C 296.80223,87.895104 296.64952,88.297461 296.64952,88.699257 C 296.64952,89.102176 296.80204,89.503598 297.10952,89.810512 C 297.10952,89.810512 305.74149,98.442482 307.55809,100.25927 C 305.74149,102.07586 297.10952,110.70783 297.10952,110.70783 C 296.80223,111.01568 296.64952,111.41692 296.64952,111.81909 C 296.64952,112.22145 296.80204,112.62418 297.10952,112.93072 L 301.77780,117.59938 C 302.07293,117.89375 302.47285,118.06050 302.88962,118.06050 C 303.30713,118.06050 303.70575,117.89375 304.00125,117.59938 C 304.00125,117.59938 312.63322,108.96703 314.44982,107.15081 C 316.26567,108.96703 324.89857,117.59938 324.89857,117.59938 C 325.51147,118.21358 326.50782,118.21358 327.12015,117.59938 L 331.78880,112.93072 C 332.09684,112.62399 332.24974,112.22145 332.24974,111.81909 C 332.24974,111.41692 332.09684,111.01550 331.78880,110.70783 C 331.78880,110.70802 323.15627,102.07605 321.34229,100.25945 z "
         id="path1211" />
      <path
         style="fill:url(#linearGradient25069);fill-opacity:1.0000000;overflow:visible"
         d="M 321.47574,100.25946 C 323.28972,98.442484 331.92225,89.810700 331.92225,89.810700 C 332.21775,89.516324 332.38319,89.115650 332.38319,88.699444 C 332.38319,88.283052 332.21775,87.883314 331.92225,87.588002 L 327.25360,82.920095 C 326.64126,82.305891 325.64492,82.305891 325.03202,82.920095 C 325.03202,82.920095 316.39912,91.551504 314.58327,93.369224 C 312.76667,91.551504 304.13470,82.920095 304.13470,82.920095 C 303.52049,82.305891 302.52602,82.307201 301.91125,82.920095 L 297.24297,87.587815 C 296.93568,87.895104 296.78297,88.297462 296.78297,88.699257 C 296.78297,89.102176 296.93549,89.503598 297.24297,89.810512 C 297.24297,89.810512 305.87494,98.442484 307.69154,100.25927 C 305.87494,102.07587 297.24297,110.70784 297.24297,110.70784 C 296.93568,111.01569 296.78297,111.41692 296.78297,111.81909 C 296.78297,112.22145 296.93549,112.62418 297.24297,112.93072 L 301.91125,117.59938 C 302.20638,117.89375 302.60630,118.06050 303.02307,118.06050 C 303.44058,118.06050 303.83920,117.89375 304.13470,117.59938 C 304.13470,117.59938 312.76667,108.96703 314.58327,107.15081 C 316.39912,108.96703 325.03202,117.59938 325.03202,117.59938 C 325.64492,118.21358 326.64126,118.21358 327.25360,117.59938 L 331.92225,112.93072 C 332.23029,112.62399 332.38319,112.22145 332.38319,111.81909 C 332.38319,111.41692 332.23029,111.01550 331.92225,110.70784 C 331.92225,110.70802 323.28972,102.07605 321.47574,100.25946 z "
         id="path1841" />
    </g>
  </g>
</svg>
