<?xml version="1.0" encoding="UTF-8" standalone="no"?>
<!-- Created with Sodipodi ("http://www.sodipodi.com/") -->
<svg
   xmlns:dc="http://purl.org/dc/elements/1.1/"
   xmlns:cc="http://web.resource.org/cc/"
   xmlns:rdf="http://www.w3.org/1999/02/22-rdf-syntax-ns#"
   xmlns:svg="http://www.w3.org/2000/svg"
   xmlns="http://www.w3.org/2000/svg"
   xmlns:xlink="http://www.w3.org/1999/xlink"
   xmlns:sodipodi="http://inkscape.sourceforge.net/DTD/sodipodi-0.dtd"
   xmlns:inkscape="http://www.inkscape.org/namespaces/inkscape"
   version="1"
   x="0.00000000"
   y="0.00000000"
   width="128.00000px"
   height="128.00000px"
   id="svg548"
   sodipodi:version="0.32"
   sodipodi:docname="emblem-symbolic-link.svg"
   sodipodi:docbase="/usr/share/icons/dlg-etiquette/scalable/emblems"
   inkscape:version="0.41">
  <metadata
     id="metadata15">
    <rdf:RDF
       id="RDF17">
      <cc:Work
         rdf:about=""
         id="Work19">
        <dc:format
           id="format21">image/svg+xml</dc:format>
        <dc:type
           id="type23"
           rdf:resource="http://purl.org/dc/dcmitype/StillImage" />
      </cc:Work>
    </rdf:RDF>
  </metadata>
  <sodipodi:namedview
     id="base"
     inkscape:zoom="1.6042485"
     inkscape:cx="14.877526"
     inkscape:cy="106.10011"
     inkscape:window-width="640"
     inkscape:window-height="542"
     inkscape:window-x="3"
     inkscape:window-y="45"
     inkscape:current-layer="svg548" />
  <defs
     id="defs550">
    <linearGradient
       x1="0.00000000"
       y1="0.00000000"
       x2="1.00000000"
       y2="0.00000000"
       id="linearGradient556"
       gradientUnits="objectBoundingBox"
       spreadMethod="pad">
      <stop
         style="stop-color:#ff8700;stop-opacity:1;"
         offset="0.00000000"
         id="stop557" />
      <stop
         style="stop-color:#ffff8d;stop-opacity:0;"
         offset="1.00000000"
         id="stop558" />
    </linearGradient>
    <linearGradient
       x1="0.00000000"
       y1="0.00000000"
       x2="1.00000000"
       y2="0.00000000"
       id="linearGradient559"
       xlink:href="#linearGradient556"
       gradientUnits="objectBoundingBox"
       spreadMethod="pad" />
  </defs>
  <g
     transform="translate(43.63414,46.12752)"
     id="g1299">
    <g
       transform="matrix(1.308646,0.000000,0.000000,1.308646,-59.57362,-11.89549)"
       style="font-size:12.000000;stroke:none;stroke-opacity:1.0000000"
       id="g584">
      <path
         d="M 51.966500,36.048600 C 53.960200,37.045400 65.472400,34.771300 65.757200,32.635300 C 66.873800,29.083900 63.844700,27.777700 64.064000,26.235800 C 64.491200,24.811700 69.389700,19.309400 68.835800,17.580500 C 67.242300,14.436200 62.970200,10.566800 59.959400,12.438100 C 57.364500,14.781300 55.630700,20.715100 54.064200,20.145500 C 52.497700,19.575900 51.112100,20.063400 50.684900,21.060200 C 50.257700,22.057000 49.688100,35.336500 51.966500,36.048600 z "
         transform="matrix(1.369638,0.000000,0.000000,1.207417,-21.85404,-4.997635)"
         style="fill:#0d3c07;fill-rule:evenodd;stroke-width:1.0000000pt"
         id="path582" />
      <path
         d="M 51.550600,35.458900 C 53.544300,36.455700 64.224700,34.889200 64.509500,32.753200 C 64.794300,30.617100 61.661400,29.193000 62.088600,27.769000 C 62.515800,26.344900 69.493700,17.658200 68.212000,16.519000 C 66.930400,15.379700 62.658200,11.392400 61.519000,12.674000 C 60.379700,13.955700 55.110800,23.781600 53.544300,23.212000 C 51.977800,22.642400 50.696200,21.360800 50.269000,22.357600 C 49.841800,23.354400 49.272200,34.746800 51.550600,35.458900 z "
         style="fill:#2aaf18;fill-rule:evenodd;stroke-width:1.0000000pt"
         id="path581" />
      <path
         d="M 67.642400,15.949400 C 67.642400,15.949400 69.066500,16.803800 68.069600,18.512700 C 67.072800,20.221500 61.519000,27.769000 61.946200,28.338600 C 63.512600,29.620200 65.363900,32.753100 64.367100,33.607600 C 62.658300,35.174000 52.832300,36.313300 51.693000,35.743700 C 50.553800,35.174000 60.094900,33.465200 60.237300,31.044300 C 60.379700,28.623400 57.816500,27.626600 58.670900,26.202500 C 59.525300,24.778500 65.363900,14.952500 66.218400,15.237300 C 67.072800,15.522100 67.784800,16.519000 67.642400,15.949400 z "
         style="fill:#208c11;fill-rule:evenodd;stroke-width:1.0000000pt"
         id="path583" />
    </g>
    <path
       d="M 22.796634,5.9327538 C 22.796634,5.9327538 12.733313,18.418681 13.106029,19.536919 C 13.478744,20.655026 23.355688,10.964408 22.796634,5.9327538 z "
       style="font-size:12.000000;fill:#ffffff;fill-rule:evenodd;stroke-width:1.0000000pt"
       id="path588" />
    <path
       d="M 7.7016462,31.277441 C 7.7016462,31.277441 6.3971481,22.705021 6.9562150,21.214080 C 7.5152949,19.723270 9.3788729,22.145837 9.3788729,22.145837 C 9.3788729,22.145837 7.1425793,30.159333 7.7016462,31.277441 z "
       style="font-size:12.000000;fill:#ffffff;fill-rule:evenodd;stroke-width:1.0000000pt"
       id="path589" />
  </g>
</svg>
