<?xml version="1.0" encoding="UTF-8" standalone="no"?>
<!DOCTYPE svg PUBLIC "-//W3C//DTD SVG 20010904//EN"
"http://www.w3.org/TR/2001/REC-SVG-20010904/DTD/svg10.dtd">
<!-- Created with Inkscape (http://www.inkscape.org/) -->
<!-- 
Created By Andrew Fitzsimon.
Much of this document has been manually cleaned and crafted in a text editor so that only the colour definitions and basic presentation related data remain in the XML. 
Changes to this document may compromise the structure of this palette.
-->
<svg
   version="1.0"
   x="00"
   y="00"
   width="128"
   height="128"
   id="Etiquette"
   sodipodi:version="0.32"
   inkscape:version="0.40"
   sodipodi:docname="gnome-fs-network.svg"
   sodipodi:docbase="/usr/share/icons/dlg-etiquette/scalable/filesystems"
   xmlns="http://www.w3.org/2000/svg"
   xmlns:cc="http://web.resource.org/cc/"
   xmlns:inkscape="http://www.inkscape.org/namespaces/inkscape"
   xmlns:sodipodi="http://sodipodi.sourceforge.net/DTD/sodipodi-0.dtd"
   xmlns:rdf="http://www.w3.org/1999/02/22-rdf-syntax-ns#"
   xmlns:dc="http://purl.org/dc/elements/1.1/"
   xmlns:xlink="http://www.w3.org/1999/xlink">
  <metadata
     id="About">
    <rdf:RDF
       id="RDF232">
      <cc:Work
         rdf:about=""
         id="Work233">
        <dc:format
           id="format234">image/svg+xml</dc:format>
        <dc:type
           id="type236"
           rdf:resource="http://purl.org/dc/dcmitype/StillImage" />
        <dc:creator
           id="creator1291">
          <cc:Agent
             id="Agent1292">
            <dc:title
               id="title1293">Andrew Fitzsimon</dc:title>
          </cc:Agent>
        </dc:creator>
        <dc:date
           id="date1295">2004-12-25</dc:date>
        <dc:title
           id="title1297">Etiquette Icon</dc:title>
        <cc:license
           id="license1299"
           rdf:resource="http://creativecommons.org/licenses/by/2.0/" />
        <dc:rights
           id="rights1308">
          <cc:Agent
             id="Agent1309">
            <dc:title
               id="title1310">Andrew Fitzsimon</dc:title>
          </cc:Agent>
        </dc:rights>
      </cc:Work>
      <cc:License
         rdf:about="http://creativecommons.org/licenses/by/2.0/"
         id="License1300">
        <cc:permits
           rdf:resource="http://web.resource.org/cc/Reproduction"
           id="permits1301" />
        <cc:permits
           rdf:resource="http://web.resource.org/cc/Distribution"
           id="permits1302" />
        <cc:requires
           rdf:resource="http://web.resource.org/cc/Notice"
           id="requires1303" />
        <cc:requires
           rdf:resource="http://web.resource.org/cc/Attribution"
           id="requires1304" />
        <cc:prohibits
           rdf:resource="http://web.resource.org/cc/CommercialUse"
           id="prohibits1305" />
        <cc:permits
           rdf:resource="http://web.resource.org/cc/DerivativeWorks"
           id="permits1306" />
        <cc:requires
           rdf:resource="http://web.resource.org/cc/ShareAlike"
           id="requires1307" />
      </cc:License>
    </rdf:RDF>
  </metadata>
  <sodipodi:namedview
     id="base"
     pagecolor="#ffffff"
     bordercolor="#666666"
     borderopacity="1.0"
     inkscape:pageopacity="0.0"
     inkscape:pageshadow="0"
     inkscape:zoom="1.4294872"
     inkscape:cx="40.238369"
     inkscape:cy="75.122355"
     inkscape:window-width="915"
     inkscape:window-height="625"
     inkscape:window-x="308"
     inkscape:window-y="26"
     inkscape:current-layer="Etiquette"
     showgrid="false"
     gridspacingx="8.0000000pt"
     gridspacingy="8.0000000pt"
     gridoriginy="0.0000000pt"
     gridoriginx="0pt"
     inkscape:grid-points="false"
     gridtolerance="40pt"
     showborder="false"
     inkscape:grid-bbox="false"
     gridcolor="#3f3fff"
     gridopacity="0.082352941"
     gridempspacing="2"
     gridempcolor="#3f3fff"
     gridempopacity="0.082352941" />
  <defs
     id="Gradients">
    <linearGradient
       id="linearGradient3730">
      <stop
         style="stop-color:#ffffff;stop-opacity:0.76271188;"
         offset="0.0000000"
         id="stop3731" />
      <stop
         style="stop-color:#ffffff;stop-opacity:0.0000000;"
         offset="1.0000000"
         id="stop3732" />
    </linearGradient>
    <linearGradient
       id="linearGradient2439">
      <stop
         style="stop-color:#ffb100;stop-opacity:1.0000000;"
         offset="0.0000000"
         id="stop2440" />
      <stop
         style="stop-color:#fdf35e;stop-opacity:1.0000000;"
         offset="1.0000000"
         id="stop2441" />
    </linearGradient>
    <linearGradient
       id="linearGradient2341">
      <stop
         style="stop-color:#ffffff;stop-opacity:0.15686275;"
         offset="0.0000000"
         id="stop2342" />
      <stop
         style="stop-color:#ffffff;stop-opacity:1.0000000;"
         offset="1.0000000"
         id="stop2343" />
    </linearGradient>
    <linearGradient
       id="linearGradient2347">
      <stop
         style="stop-color:#ffffff;stop-opacity:0.0000000;"
         offset="0.0000000"
         id="stop2348" />
      <stop
         style="stop-color:#ffffff;stop-opacity:0.47058824;"
         offset="1.0000000"
         id="stop2349" />
    </linearGradient>
    <linearGradient
       id="linearGradient2372">
      <stop
         style="stop-color:#000000;stop-opacity:0.47058824;"
         offset="0.0000000"
         id="stop2373" />
      <stop
         style="stop-color:#000000;stop-opacity:0.0000000;"
         offset="1.0000000"
         id="stop2374" />
    </linearGradient>
    <linearGradient
       id="linearGradient2363">
      <stop
         style="stop-color:#ffffff;stop-opacity:0.0000000;"
         offset="0.0000000"
         id="stop2364" />
      <stop
         style="stop-color:#ffffff;stop-opacity:1.0000000;"
         offset="1.0000000"
         id="stop2365" />
    </linearGradient>
    <linearGradient
       id="linearGradient3057">
      <stop
         style="stop-color:#000000;stop-opacity:0.19191919;"
         offset="0.0000000"
         id="stop3058" />
      <stop
         style="stop-color:#000000;stop-opacity:0.14141414;"
         offset="0.34210527"
         id="stop3059" />
      <stop
         style="stop-color:#ffffff;stop-opacity:0.0000000;"
         offset="1.0000000"
         id="stop3060" />
    </linearGradient>
    <linearGradient
       id="TransparentWhite">
      <stop
         style="stop-color:#ffffff;stop-opacity:0;"
         offset="0"
         id="stopwhitefull" />
      <stop
         style="stop-color:#ffffff;stop-opacity:1;"
         offset="1"
         id="stopwhitetransparent" />
    </linearGradient>
    <linearGradient
       id="WhiteTransparent">
      <stop
         style="stop-color:#ffffff;stop-opacity:1;"
         offset="0"
         id="stopWhiteFull" />
      <stop
         style="stop-color:#ffffff;stop-opacity:0;"
         offset="1"
         id="stopWhiteTransparent" />
    </linearGradient>
    <radialGradient
       inkscape:collect="always"
       xlink:href="#linearGradient3057"
       id="radialGradient1772"
       gradientUnits="userSpaceOnUse"
       gradientTransform="scale(2.855494,0.350202)"
       cx="28.016157"
       cy="415.83115"
       fx="28.016165"
       fy="409.64447"
       r="23.200878" />
    <linearGradient
       inkscape:collect="always"
       xlink:href="#linearGradient2363"
       id="linearGradient1773"
       gradientUnits="userSpaceOnUse"
       gradientTransform="matrix(4.740851,0.000000,0.000000,0.158028,-4.655542,-8.616859)"
       x1="7.7594029"
       y1="801.04424"
       x2="21.452467"
       y2="801.04424" />
    <linearGradient
       inkscape:collect="always"
       xlink:href="#linearGradient2341"
       id="linearGradient1774"
       gradientUnits="userSpaceOnUse"
       gradientTransform="matrix(1.762836,0.000000,0.000000,0.479861,5.635742,8.976863)"
       x1="36.732960"
       y1="173.60512"
       x2="37.126789"
       y2="232.27026" />
    <linearGradient
       inkscape:collect="always"
       xlink:href="#linearGradient2372"
       id="linearGradient1775"
       gradientUnits="userSpaceOnUse"
       gradientTransform="matrix(2.138091,0.000000,0.000000,0.549583,0.000000,-17.43192)"
       x1="23.875151"
       y1="219.55704"
       x2="37.456448"
       y2="226.49693" />
    <linearGradient
       inkscape:collect="always"
       xlink:href="#linearGradient2347"
       id="linearGradient1776"
       gradientUnits="userSpaceOnUse"
       gradientTransform="matrix(1.043391,0.000000,0.000000,0.718032,-4.655542,-8.616859)"
       x1="89.696322"
       y1="145.41280"
       x2="89.696322"
       y2="29.382998" />
    <linearGradient
       inkscape:collect="always"
       xlink:href="#linearGradient2363"
       id="linearGradient1777"
       gradientUnits="userSpaceOnUse"
       gradientTransform="scale(1.130960,0.884205)"
       x1="45.608681"
       y1="30.109610"
       x2="30.970743"
       y2="16.618420" />
    <linearGradient
       inkscape:collect="always"
       xlink:href="#WhiteTransparent"
       id="linearGradient1778"
       gradientUnits="userSpaceOnUse"
       gradientTransform="matrix(1.224554,0.000000,0.000000,0.845503,-1.357986,-0.914568)"
       x1="70.459831"
       y1="87.961166"
       x2="-17.924658"
       y2="-56.903572" />
    <linearGradient
       inkscape:collect="always"
       xlink:href="#WhiteTransparent"
       id="linearGradient1779"
       gradientUnits="userSpaceOnUse"
       gradientTransform="scale(1.133893,0.881917)"
       x1="97.112358"
       y1="78.205666"
       x2="60.090755"
       y2="28.835091" />
    <linearGradient
       inkscape:collect="always"
       xlink:href="#TransparentWhite"
       id="linearGradient1780"
       gradientUnits="userSpaceOnUse"
       gradientTransform="scale(1.343102,0.744545)"
       x1="13.424465"
       y1="48.322319"
       x2="145.21112"
       y2="42.414890" />
    <linearGradient
       inkscape:collect="always"
       xlink:href="#TransparentWhite"
       id="linearGradient1781"
       gradientUnits="userSpaceOnUse"
       gradientTransform="matrix(1.138160,0.000000,0.000000,0.736843,3.949296,6.330589)"
       x1="75.969444"
       y1="67.614769"
       x2="75.969444"
       y2="114.96928" />
    <radialGradient
       inkscape:collect="always"
       xlink:href="#linearGradient3057"
       id="radialGradient1801"
       gradientUnits="userSpaceOnUse"
       gradientTransform="scale(2.855494,0.350202)"
       cx="28.016157"
       cy="415.83115"
       fx="28.016165"
       fy="409.64447"
       r="23.200878" />
    <linearGradient
       inkscape:collect="always"
       xlink:href="#linearGradient2363"
       id="linearGradient1802"
       gradientUnits="userSpaceOnUse"
       gradientTransform="matrix(4.740851,0.000000,0.000000,0.158028,-4.655542,-8.616859)"
       x1="7.7594029"
       y1="801.04424"
       x2="21.452467"
       y2="801.04424" />
    <linearGradient
       inkscape:collect="always"
       xlink:href="#linearGradient2341"
       id="linearGradient1803"
       gradientUnits="userSpaceOnUse"
       gradientTransform="matrix(1.762836,0.000000,0.000000,0.479861,5.635742,8.976863)"
       x1="36.732960"
       y1="173.60512"
       x2="37.126789"
       y2="232.27026" />
    <linearGradient
       inkscape:collect="always"
       xlink:href="#linearGradient2372"
       id="linearGradient1804"
       gradientUnits="userSpaceOnUse"
       gradientTransform="matrix(2.138091,0.000000,0.000000,0.549583,7.896461e-15,-17.43192)"
       x1="23.875151"
       y1="219.55704"
       x2="37.456448"
       y2="226.49693" />
    <linearGradient
       inkscape:collect="always"
       xlink:href="#linearGradient2347"
       id="linearGradient1805"
       gradientUnits="userSpaceOnUse"
       gradientTransform="matrix(1.043391,0.000000,0.000000,0.718032,-4.655542,-8.616859)"
       x1="89.696322"
       y1="145.41280"
       x2="89.696322"
       y2="29.382998" />
    <linearGradient
       inkscape:collect="always"
       xlink:href="#linearGradient2363"
       id="linearGradient1806"
       gradientUnits="userSpaceOnUse"
       gradientTransform="scale(1.130960,0.884205)"
       x1="45.608681"
       y1="30.109610"
       x2="30.970743"
       y2="16.618420" />
    <linearGradient
       inkscape:collect="always"
       xlink:href="#WhiteTransparent"
       id="linearGradient1807"
       gradientUnits="userSpaceOnUse"
       gradientTransform="matrix(1.224554,0.000000,0.000000,0.845503,-1.357986,-0.914568)"
       x1="70.459831"
       y1="87.961166"
       x2="-17.924658"
       y2="-56.903572" />
    <linearGradient
       inkscape:collect="always"
       xlink:href="#WhiteTransparent"
       id="linearGradient1808"
       gradientUnits="userSpaceOnUse"
       gradientTransform="scale(1.133893,0.881917)"
       x1="97.112358"
       y1="78.205666"
       x2="60.090755"
       y2="28.835091" />
    <linearGradient
       inkscape:collect="always"
       xlink:href="#TransparentWhite"
       id="linearGradient1809"
       gradientUnits="userSpaceOnUse"
       gradientTransform="scale(1.343102,0.744545)"
       x1="13.424465"
       y1="48.322319"
       x2="145.21112"
       y2="42.414890" />
    <linearGradient
       inkscape:collect="always"
       xlink:href="#TransparentWhite"
       id="linearGradient1810"
       gradientUnits="userSpaceOnUse"
       gradientTransform="matrix(1.138160,0.000000,0.000000,0.736843,3.949296,6.330589)"
       x1="75.969444"
       y1="67.614769"
       x2="75.969444"
       y2="114.96928" />
    <linearGradient
       inkscape:collect="always"
       xlink:href="#linearGradient2439"
       id="linearGradient2442"
       gradientTransform="scale(1.067745,0.936553)"
       x1="46.818287"
       y1="89.667397"
       x2="33.369186"
       y2="98.512222"
       gradientUnits="userSpaceOnUse" />
    <linearGradient
       inkscape:collect="always"
       xlink:href="#linearGradient3730"
       id="linearGradient3729"
       gradientTransform="scale(0.611593,1.635074)"
       x1="56.118649"
       y1="45.025970"
       x2="60.050484"
       y2="45.025967"
       gradientUnits="userSpaceOnUse" />
    <linearGradient
       inkscape:collect="always"
       xlink:href="#linearGradient3730"
       id="linearGradient3734"
       gradientUnits="userSpaceOnUse"
       gradientTransform="matrix(0.611593,5.414300e-20,-1.470473e-22,1.597634,-128.7982,-15.44980)"
       x1="56.118649"
       y1="45.025970"
       x2="60.050484"
       y2="45.025967" />
    <radialGradient
       inkscape:collect="always"
       xlink:href="#linearGradient3057"
       id="radialGradient3754"
       gradientUnits="userSpaceOnUse"
       gradientTransform="scale(2.855494,0.350202)"
       cx="28.016157"
       cy="415.83115"
       fx="28.016165"
       fy="409.64447"
       r="23.200878" />
    <linearGradient
       inkscape:collect="always"
       xlink:href="#linearGradient2363"
       id="linearGradient3755"
       gradientUnits="userSpaceOnUse"
       gradientTransform="matrix(4.740851,0.000000,0.000000,0.158028,-4.655542,-8.616859)"
       x1="7.7594029"
       y1="801.04424"
       x2="21.452467"
       y2="801.04424" />
    <linearGradient
       inkscape:collect="always"
       xlink:href="#linearGradient2341"
       id="linearGradient3756"
       gradientUnits="userSpaceOnUse"
       gradientTransform="matrix(1.762836,0.000000,0.000000,0.479861,5.635742,8.976863)"
       x1="36.732960"
       y1="173.60512"
       x2="37.126789"
       y2="232.27026" />
    <linearGradient
       inkscape:collect="always"
       xlink:href="#linearGradient2372"
       id="linearGradient3757"
       gradientUnits="userSpaceOnUse"
       gradientTransform="matrix(2.138091,0.000000,0.000000,0.549583,7.915976e-15,-17.43192)"
       x1="23.875151"
       y1="219.55704"
       x2="37.456448"
       y2="226.49693" />
    <linearGradient
       inkscape:collect="always"
       xlink:href="#linearGradient2347"
       id="linearGradient3758"
       gradientUnits="userSpaceOnUse"
       gradientTransform="matrix(1.043391,0.000000,0.000000,0.718032,-4.655542,-8.616859)"
       x1="89.696322"
       y1="145.41280"
       x2="89.696322"
       y2="29.382998" />
    <linearGradient
       inkscape:collect="always"
       xlink:href="#linearGradient2363"
       id="linearGradient3759"
       gradientUnits="userSpaceOnUse"
       gradientTransform="scale(1.130960,0.884205)"
       x1="45.608681"
       y1="30.109610"
       x2="30.970743"
       y2="16.618420" />
    <linearGradient
       inkscape:collect="always"
       xlink:href="#WhiteTransparent"
       id="linearGradient3760"
       gradientUnits="userSpaceOnUse"
       gradientTransform="matrix(1.224554,0.000000,0.000000,0.845503,-1.357986,-0.914568)"
       x1="70.459831"
       y1="87.961166"
       x2="-17.924658"
       y2="-56.903572" />
    <linearGradient
       inkscape:collect="always"
       xlink:href="#WhiteTransparent"
       id="linearGradient3761"
       gradientUnits="userSpaceOnUse"
       gradientTransform="scale(1.133893,0.881917)"
       x1="97.112358"
       y1="78.205666"
       x2="60.090755"
       y2="28.835091" />
    <linearGradient
       inkscape:collect="always"
       xlink:href="#TransparentWhite"
       id="linearGradient3762"
       gradientUnits="userSpaceOnUse"
       gradientTransform="scale(1.343102,0.744545)"
       x1="13.424465"
       y1="48.322319"
       x2="145.21112"
       y2="42.414890" />
    <linearGradient
       inkscape:collect="always"
       xlink:href="#TransparentWhite"
       id="linearGradient3763"
       gradientUnits="userSpaceOnUse"
       gradientTransform="matrix(1.138160,0.000000,0.000000,0.736843,3.949296,6.330589)"
       x1="75.969444"
       y1="67.614769"
       x2="75.969444"
       y2="114.96928" />
    <radialGradient
       inkscape:collect="always"
       xlink:href="#linearGradient3057"
       id="radialGradient3783"
       gradientUnits="userSpaceOnUse"
       gradientTransform="scale(2.855494,0.350202)"
       cx="28.016157"
       cy="415.83115"
       fx="28.016165"
       fy="409.64447"
       r="23.200878" />
    <linearGradient
       inkscape:collect="always"
       xlink:href="#linearGradient2363"
       id="linearGradient3784"
       gradientUnits="userSpaceOnUse"
       gradientTransform="matrix(4.740851,0.000000,0.000000,0.158028,-4.655542,-8.616859)"
       x1="7.7594029"
       y1="801.04424"
       x2="21.452467"
       y2="801.04424" />
    <linearGradient
       inkscape:collect="always"
       xlink:href="#linearGradient2341"
       id="linearGradient3785"
       gradientUnits="userSpaceOnUse"
       gradientTransform="matrix(1.762836,0.000000,0.000000,0.479861,5.635742,8.976863)"
       x1="36.732960"
       y1="173.60512"
       x2="37.126789"
       y2="232.27026" />
    <linearGradient
       inkscape:collect="always"
       xlink:href="#linearGradient2372"
       id="linearGradient3786"
       gradientUnits="userSpaceOnUse"
       gradientTransform="matrix(2.138091,0.000000,0.000000,0.549583,2.074729e-15,-17.43192)"
       x1="23.875151"
       y1="219.55704"
       x2="37.456448"
       y2="226.49693" />
    <linearGradient
       inkscape:collect="always"
       xlink:href="#linearGradient2347"
       id="linearGradient3787"
       gradientUnits="userSpaceOnUse"
       gradientTransform="matrix(1.043391,0.000000,0.000000,0.718032,-4.655542,-8.616859)"
       x1="89.696322"
       y1="145.41280"
       x2="89.696322"
       y2="29.382998" />
    <linearGradient
       inkscape:collect="always"
       xlink:href="#linearGradient2363"
       id="linearGradient3788"
       gradientUnits="userSpaceOnUse"
       gradientTransform="scale(1.130960,0.884205)"
       x1="45.608681"
       y1="30.109610"
       x2="30.970743"
       y2="16.618420" />
    <linearGradient
       inkscape:collect="always"
       xlink:href="#WhiteTransparent"
       id="linearGradient3789"
       gradientUnits="userSpaceOnUse"
       gradientTransform="matrix(1.224554,0.000000,0.000000,0.845503,-1.357986,-0.914568)"
       x1="70.459831"
       y1="87.961166"
       x2="-17.924658"
       y2="-56.903572" />
    <linearGradient
       inkscape:collect="always"
       xlink:href="#WhiteTransparent"
       id="linearGradient3790"
       gradientUnits="userSpaceOnUse"
       gradientTransform="scale(1.133893,0.881917)"
       x1="97.112358"
       y1="78.205666"
       x2="60.090755"
       y2="28.835091" />
    <linearGradient
       inkscape:collect="always"
       xlink:href="#TransparentWhite"
       id="linearGradient3791"
       gradientUnits="userSpaceOnUse"
       gradientTransform="scale(1.343102,0.744545)"
       x1="13.424465"
       y1="48.322319"
       x2="145.21112"
       y2="42.414890" />
    <linearGradient
       inkscape:collect="always"
       xlink:href="#TransparentWhite"
       id="linearGradient3792"
       gradientUnits="userSpaceOnUse"
       gradientTransform="matrix(1.138160,0.000000,0.000000,0.736843,3.949296,6.330589)"
       x1="75.969444"
       y1="67.614769"
       x2="75.969444"
       y2="114.96928" />
  </defs>
  <path
     style="fill:#e1e1e1;fill-opacity:1.0000000;stroke:#000000;stroke-width:1.5625000;stroke-linejoin:round;stroke-miterlimit:4.0000000;stroke-dashoffset:0.0000000;stroke-opacity:1.0000000;stroke-dasharray:none;"
     d="M 33.589150,45.799333 L 33.589150,95.299333 L 85.745400,95.299333 L 85.745400,88.236833 L 40.651650,88.236833 L 40.651650,45.799333 L 33.589150,45.799333 z "
     id="rect1812" />
  <path
     style="fill:url(#linearGradient2442);fill-opacity:1.0;stroke:#000000;stroke-width:1.4500000;stroke-linejoin:round;stroke-miterlimit:4.0000000;stroke-dashoffset:0.0000000;stroke-opacity:1.0000000;stroke-dasharray:none;"
     d="M 31.002830,81.665326 L 31.002830,89.418288 C 31.005389,95.281757 32.647522,97.210248 39.864207,97.171251 L 48.725584,97.171251 L 48.725584,86.233202 C 43.033698,86.240846 43.025669,86.904319 43.126945,81.665326 L 31.002830,81.665326 z "
     id="path2438"
     sodipodi:nodetypes="ccccccc" />
  <rect
     style="fill:url(#linearGradient3729);fill-opacity:1.0;stroke:none;stroke-width:3.5937152;stroke-linejoin:round;stroke-miterlimit:4.0000000;stroke-dashoffset:0.0000000;stroke-opacity:1.0000000;"
     id="rect3100"
     width="5.3559418"
     height="14.318947"
     x="34.321747"
     y="66.461327"
     ry="0.0000000" />
  <rect
     style="fill:url(#linearGradient3734);fill-opacity:1.0000000;stroke:none;stroke-width:3.5937152;stroke-linejoin:round;stroke-miterlimit:4.0000000;stroke-dashoffset:0.0000000;stroke-opacity:1.0000000"
     id="rect3733"
     width="5.3559427"
     height="13.991077"
     x="-94.476456"
     y="49.489704"
     ry="0.0000000"
     transform="matrix(3.387301e-4,-1.000000,1.000000,3.547920e-4,0.000000,0.000000)" />
  <g
     id="g3735"
     transform="matrix(1.133756,0.000000,0.000000,1.133756,-3.985711,0.859325)">
    <path
       sodipodi:type="arc"
       style="fill:url(#radialGradient3754);fill-opacity:1.0000000;stroke:none;stroke-width:3.7500000;stroke-linecap:round;stroke-linejoin:round;stroke-miterlimit:4.0000000;stroke-dashoffset:0.0000000;stroke-opacity:1.0000000"
       id="path1783"
       sodipodi:cx="80.000000"
       sodipodi:cy="145.62500"
       sodipodi:rx="66.250000"
       sodipodi:ry="8.1250000"
       d="M 146.25000 145.62500 A 66.250000 8.1250000 0 1 1  13.750000,145.62500 A 66.250000 8.1250000 0 1 1  146.25000 145.62500 z"
       transform="matrix(0.491942,0.000000,0.000000,0.636740,-3.116134,-26.79469)" />
    <path
       style="fill:url(#linearGradient3755);fill-opacity:1.0000000;fill-rule:evenodd;stroke:none;stroke-width:1.0000000pt;stroke-linecap:butt;stroke-linejoin:miter;stroke-opacity:1.0000000"
       d="M 32.130630,116.88891 L 32.130630,119.05280 L 97.047405,119.05280 L 97.047405,116.88891 L 32.130630,116.88891 z "
       id="path1784"
       sodipodi:nodetypes="ccccc"
       transform="matrix(0.507831,0.000000,0.000000,0.507831,3.648058,5.086146)" />
    <path
       style="fill:#666666;fill-opacity:1.0000000;fill-rule:evenodd;stroke:#000000;stroke-width:3.5937152;stroke-linecap:butt;stroke-linejoin:miter;stroke-miterlimit:4.0000000;stroke-opacity:1.0000000"
       d="M 47.277878,99.577770 L 47.277878,108.23334 C 47.277878,114.04862 32.130630,111.07362 32.130630,116.88891 L 32.130630,119.05280 L 97.047405,119.05280 L 97.047405,116.88891 C 97.047405,111.07362 81.900158,114.04862 81.900158,108.23334 L 81.900158,99.577770 L 47.277878,99.577770 z "
       id="path1785"
       sodipodi:nodetypes="czzcczzcc"
       transform="matrix(0.507831,0.000000,0.000000,0.507831,3.648058,5.086146)" />
    <path
       style="fill:url(#linearGradient3756);fill-opacity:1.0000000;fill-rule:evenodd;stroke:none;stroke-width:1.0000000pt;stroke-linecap:butt;stroke-linejoin:miter;stroke-opacity:1.0000000"
       d="M 48.673996,101.50933 L 48.673996,109.55250 C 48.673996,114.95634 34.885072,112.19182 34.885072,117.59567 L 93.980463,117.59567 C 93.980463,112.19182 80.191540,114.95634 80.191540,109.55250 L 80.191540,101.50933 L 48.673996,101.50933 z "
       id="path1786"
       sodipodi:nodetypes="czzzzcc"
       transform="matrix(0.507831,0.000000,0.000000,0.507831,3.648058,5.086146)" />
    <path
       style="opacity:0.67924529;fill:url(#linearGradient3757);fill-opacity:1.0000000;fill-rule:evenodd;stroke:none;stroke-width:1.0000000pt;stroke-linecap:butt;stroke-linejoin:miter;stroke-opacity:1.0000000"
       d="M 47.277878,99.577770 L 47.277878,108.47722 C 54.851501,102.12047 73.244588,102.12047 81.900158,105.93452 L 81.900158,99.577770 L 47.277878,99.577770 z "
       id="path1787"
       sodipodi:nodetypes="ccccc"
       transform="matrix(0.507831,0.000000,0.000000,0.507831,3.648058,5.086146)" />
    <path
       style="fill:none;fill-opacity:1.0000000;fill-rule:evenodd;stroke:none;stroke-width:0.86555700pt;stroke-linecap:butt;stroke-linejoin:miter;stroke-opacity:1.0000000"
       d="M 79.465778,97.402630 C 68.934832,97.402630 58.403894,97.402630 47.872948,97.402630 C 47.664608,100.40082 48.289532,106.31052 47.565727,109.22129 C 46.698941,112.01594 43.211707,112.06967 40.850000,112.89047 C 38.397626,113.60475 35.641978,114.01545 33.530651,115.43479 C 32.247887,116.59797 32.986259,117.24701 34.671447,117.08086 L 96.452335,116.80549 C 96.886524,114.26608 94.642334,114.10828 92.303348,113.92746 C 89.247871,113.09080 85.996553,112.47511 83.158175,111.13478 C 80.386186,109.37266 81.563941,105.68900 81.299115,102.95976 C 81.278203,102.23322 81.385593,98.598860 81.215355,98.000050 C 81.045108,97.401245 80.597235,97.067780 79.465778,97.402630 z "
       id="path1788"
       sodipodi:nodetypes="ccccccccccsc"
       transform="matrix(0.507831,0.000000,0.000000,0.507831,3.648058,5.086146)" />
    <path
       style="fill:none;fill-opacity:1.0000000;fill-rule:evenodd;stroke:#ffffff;stroke-width:0.86555700pt;stroke-linecap:butt;stroke-linejoin:miter;stroke-opacity:0.18421049"
       d="M 15.901436,16.267905 L 113.27660,16.267905 L 113.27660,82.266626 L 15.901436,82.266626 L 15.901436,16.267905 z "
       id="path1789"
       sodipodi:nodetypes="ccccc"
       transform="matrix(0.507831,0.000000,0.000000,0.507831,3.648058,5.086146)" />
    <path
       style="fill:#dadada;fill-opacity:1.0000000;fill-rule:evenodd;stroke:#000000;stroke-width:6.2028508;stroke-linecap:butt;stroke-linejoin:miter;stroke-miterlimit:4.0000000;stroke-opacity:1.0000000"
       d="M 4.0000275,8.6942810 C 4.0000275,6.6541430 6.2876773,4.3664958 8.3278125,4.3664958 L 120.85022,4.3664958 C 122.89036,4.3664958 125.17801,6.6541430 125.17801,8.6942810 L 125.17801,95.249981 C 125.17801,97.290116 122.89036,99.577770 120.85022,99.577770 L 8.3278125,99.577770 C 6.2876773,99.577770 4.0000275,97.290116 4.0000275,95.249981 L 4.0000275,8.6942810 z "
       id="path1790"
       sodipodi:nodetypes="czzzzzzzz"
       transform="matrix(0.507831,0.000000,0.000000,0.507831,3.648058,5.086146)" />
    <path
       style="fill:none;fill-opacity:1.0000000;fill-rule:evenodd;stroke:#000000;stroke-width:2.4243219;stroke-linecap:butt;stroke-linejoin:miter;stroke-miterlimit:4.0000000;stroke-opacity:0.74074072"
       d="M 16.088383,16.379615 L 113.08966,16.379615 L 113.08966,82.154915 L 16.088383,82.154915 L 16.088383,16.379615 z "
       id="path1791"
       sodipodi:nodetypes="ccccc"
       transform="matrix(0.507831,0.000000,0.000000,0.507831,3.648058,5.086146)" />
    <path
       style="fill:url(#linearGradient3758);fill-opacity:1.0000000;fill-rule:evenodd;stroke:none;stroke-width:0.86555700pt;stroke-linecap:butt;stroke-linejoin:miter;stroke-opacity:0.33552632"
       d="M 14.819490,15.185958 L 114.35855,15.185958 L 114.35855,83.348572 L 14.819490,83.348572 L 14.819490,15.185958 z "
       id="path1792"
       sodipodi:nodetypes="ccccc"
       transform="matrix(0.507831,0.000000,0.000000,0.507831,3.648058,5.086146)" />
    <path
       style="fill:none;fill-opacity:0.75000000;fill-rule:evenodd;stroke:url(#linearGradient3759);stroke-width:2.1499896;stroke-linecap:butt;stroke-linejoin:miter;stroke-miterlimit:4.0000000;stroke-opacity:1.0000000"
       d="M 6.5392995,11.122329 C 6.5392995,7.8973443 7.6142943,6.8223501 10.839278,6.8223501 L 118.33875,6.8223501 C 121.56374,6.8223501 122.63874,7.8973443 122.63874,11.122329 L 122.63874,92.821932 C 122.63874,96.046917 121.56374,97.121911 118.33875,97.121911 L 10.839278,97.121911 C 7.6142943,97.121911 6.5392995,96.046917 6.5392995,92.821932 L 6.5392995,11.122329 z "
       id="path1793"
       sodipodi:nodetypes="czzzzzzzz"
       transform="matrix(0.507831,0.000000,0.000000,0.507831,3.648058,5.086146)" />
    <path
       style="fill:#0066af;fill-opacity:0.83552629;fill-rule:evenodd;stroke:none;stroke-width:0.86555700pt;stroke-linecap:butt;stroke-linejoin:miter;stroke-opacity:1.0000000"
       d="M 12.319490,15.185958 L 111.85855,15.185958 L 111.85855,83.348572 L 12.319490,83.348572 L 12.319490,15.185958 z "
       id="path1794"
       sodipodi:nodetypes="ccccc"
       transform="matrix(0.507831,0.000000,0.000000,0.507831,3.648058,5.086146)" />
    <path
       style="fill:none;fill-opacity:1.0000000;fill-rule:evenodd;stroke:url(#linearGradient3760);stroke-width:2.4485693;stroke-linecap:butt;stroke-linejoin:round;stroke-miterlimit:4.0000000;stroke-opacity:1.0000000"
       d="M 13.238904,13.845834 L 115.58558,13.845834 L 115.58558,84.511919 L 13.238904,84.511919 L 13.238904,13.845834 z "
       id="path1795"
       sodipodi:nodetypes="ccccc"
       transform="matrix(0.507831,0.000000,0.000000,0.507831,3.648058,5.086146)" />
    <path
       style="fill:none;fill-opacity:0.75000000;fill-rule:evenodd;stroke:url(#linearGradient3761);stroke-width:2.1499896;stroke-linecap:butt;stroke-linejoin:miter;stroke-miterlimit:4.0000000;stroke-opacity:1.0000000"
       d="M 6.5392995,11.122329 C 6.5392995,7.8973443 7.6142943,6.8223501 10.839278,6.8223501 L 118.33875,6.8223501 C 121.56374,6.8223501 122.63874,7.8973443 122.63874,11.122329 L 122.63874,92.821932 C 122.63874,96.046917 121.56374,97.121911 118.33875,97.121911 L 10.839278,97.121911 C 7.6142943,97.121911 6.5392995,96.046917 6.5392995,92.821932 L 6.5392995,11.122329 z "
       id="path1796"
       sodipodi:nodetypes="czzzzzzzz"
       transform="matrix(0.507831,0.000000,0.000000,0.507831,3.648058,5.086146)" />
    <path
       style="fill:url(#linearGradient3762);fill-opacity:1.0000000;fill-rule:evenodd;stroke:none;stroke-width:1.0000000pt;stroke-linecap:butt;stroke-linejoin:miter;stroke-opacity:1.0000000"
       d="M 14.819490,15.185958 L 114.35855,15.185958 L 114.35855,30.333206 C 68.916803,31.415152 35.376469,50.890185 15.901436,70.365217 L 14.819490,15.185958 z "
       id="path1797"
       sodipodi:nodetypes="ccccc"
       transform="matrix(0.507831,0.000000,0.000000,0.507831,3.648058,5.086146)" />
    <path
       style="opacity:0.51479292;fill:url(#linearGradient3763);fill-opacity:1.0000000;fill-rule:evenodd;stroke:none;stroke-width:1.0000000pt;stroke-linecap:butt;stroke-linejoin:miter;stroke-opacity:1.0000000"
       d="M 18.465230,21.348956 L 41.402127,21.348956 L 87.275922,21.348956 L 110.21282,21.348956 L 110.21282,36.198276 L 110.21282,65.896914 L 110.21282,80.746234 L 87.275922,80.746234 L 41.402127,80.746234 L 18.465230,80.746234 L 18.465230,65.896914 L 18.465230,36.198276 L 18.465230,21.348956 z "
       id="path1798"
       sodipodi:nodetypes="ccccccccccccc"
       transform="matrix(0.507831,0.000000,0.000000,0.507831,3.648058,5.086146)" />
    <path
       style="fill:none;fill-opacity:0.75000000;fill-rule:evenodd;stroke:none;stroke-width:3.7500000;stroke-linecap:butt;stroke-linejoin:miter;stroke-miterlimit:4.0000000;stroke-opacity:1.0000000"
       d="M 104.30192,50.021103 L 31.961181,12.420897 C 28.412778,10.576560 26.463347,11.260561 26.987715,13.136367 C 27.512084,15.012174 40.597553,36.470574 40.484467,50.220762 C 40.371384,63.970952 26.694401,91.600104 26.222268,93.460595 C 25.750130,95.321091 27.436179,95.764833 31.556811,93.627159 L 104.25345,55.914042 C 108.12416,53.906021 108.26582,52.081399 104.30192,50.021103 z "
       id="path1799"
       sodipodi:nodetypes="czzzzzzz"
       transform="matrix(0.507831,0.000000,0.000000,0.507831,3.648058,5.086146)" />
    <path
       style="fill:none;fill-opacity:0.75000000;fill-rule:evenodd;stroke:none;stroke-width:1.2500000;stroke-linecap:butt;stroke-linejoin:miter;stroke-miterlimit:4.0000000;stroke-opacity:1.0000000"
       d="M 104.30192,50.021103 L 31.961181,12.420897 C 28.412778,10.576560 26.463347,11.260561 26.987715,13.136367 C 27.512084,15.012174 40.597553,36.470574 40.484467,50.220762 C 40.371384,63.970952 26.694401,91.600104 26.222268,93.460595 C 25.750130,95.321091 27.436179,95.764833 31.556811,93.627159 L 104.25345,55.914042 C 108.12416,53.906021 108.26582,52.081399 104.30192,50.021103 z "
       id="path1800"
       sodipodi:nodetypes="czzzzzzz"
       transform="matrix(0.507831,0.000000,0.000000,0.507831,3.648058,5.086146)" />
  </g>
  <g
     id="g3764"
     transform="matrix(1.134103,0.000000,0.000000,1.134103,-17.21593,-17.43332)">
    <path
       sodipodi:type="arc"
       style="fill:url(#radialGradient3783);fill-opacity:1.0000000;stroke:none;stroke-width:3.7500000;stroke-linecap:round;stroke-linejoin:round;stroke-miterlimit:4.0000000;stroke-dashoffset:0.0000000;stroke-opacity:1.0000000"
       id="path3396"
       sodipodi:cx="80.000000"
       sodipodi:cy="145.62500"
       sodipodi:rx="66.250000"
       sodipodi:ry="8.1250000"
       d="M 146.25000 145.62500 A 66.250000 8.1250000 0 1 1  13.750000,145.62500 A 66.250000 8.1250000 0 1 1  146.25000 145.62500 z"
       transform="matrix(0.491942,0.000000,0.000000,0.636740,56.40787,32.10113)" />
    <path
       style="fill:url(#linearGradient3784);fill-opacity:1.0000000;fill-rule:evenodd;stroke:none;stroke-width:1.0000000pt;stroke-linecap:butt;stroke-linejoin:miter;stroke-opacity:1.0000000"
       d="M 32.130630,116.88891 L 32.130630,119.05280 L 97.047405,119.05280 L 97.047405,116.88891 L 32.130630,116.88891 z "
       id="path3397"
       sodipodi:nodetypes="ccccc"
       transform="matrix(0.507831,0.000000,0.000000,0.507831,63.17206,63.98196)" />
    <path
       style="fill:#666666;fill-opacity:1.0000000;fill-rule:evenodd;stroke:#000000;stroke-width:4.3321500;stroke-linecap:butt;stroke-linejoin:miter;stroke-miterlimit:4.0000000;stroke-opacity:1.0000000"
       d="M 47.277878,99.577770 L 47.277878,108.23334 C 47.277878,114.04862 32.130630,111.07362 32.130630,116.88891 L 32.130630,119.05280 L 97.047405,119.05280 L 97.047405,116.88891 C 97.047405,111.07362 81.900158,114.04862 81.900158,108.23334 L 81.900158,99.577770 L 47.277878,99.577770 z "
       id="path3398"
       sodipodi:nodetypes="czzcczzcc"
       transform="matrix(0.507831,0.000000,0.000000,0.507831,63.17206,63.98196)" />
    <path
       style="fill:url(#linearGradient3785);fill-opacity:1.0000000;fill-rule:evenodd;stroke:none;stroke-width:1.0000000pt;stroke-linecap:butt;stroke-linejoin:miter;stroke-opacity:1.0000000"
       d="M 48.673996,101.50933 L 48.673996,109.55250 C 48.673996,114.95634 34.885072,112.19182 34.885072,117.59567 L 93.980463,117.59567 C 93.980463,112.19182 80.191540,114.95634 80.191540,109.55250 L 80.191540,101.50933 L 48.673996,101.50933 z "
       id="path3410"
       sodipodi:nodetypes="czzzzcc"
       transform="matrix(0.507831,0.000000,0.000000,0.507831,63.17206,63.98196)" />
    <path
       style="opacity:0.67924529;fill:url(#linearGradient3786);fill-opacity:1.0000000;fill-rule:evenodd;stroke:none;stroke-width:1.0000000pt;stroke-linecap:butt;stroke-linejoin:miter;stroke-opacity:1.0000000"
       d="M 47.277878,99.577770 L 47.277878,108.47722 C 54.851501,102.12047 73.244588,102.12047 81.900158,105.93452 L 81.900158,99.577770 L 47.277878,99.577770 z "
       id="path3399"
       sodipodi:nodetypes="ccccc"
       transform="matrix(0.507831,0.000000,0.000000,0.507831,63.17206,63.98196)" />
    <path
       style="fill:none;fill-opacity:1.0000000;fill-rule:evenodd;stroke:none;stroke-width:0.86555700pt;stroke-linecap:butt;stroke-linejoin:miter;stroke-opacity:1.0000000"
       d="M 79.465778,97.402630 C 68.934832,97.402630 58.403894,97.402630 47.872948,97.402630 C 47.664608,100.40082 48.289532,106.31052 47.565727,109.22129 C 46.698941,112.01594 43.211707,112.06967 40.850000,112.89047 C 38.397626,113.60475 35.641978,114.01545 33.530651,115.43479 C 32.247887,116.59797 32.986259,117.24701 34.671447,117.08086 L 96.452335,116.80549 C 96.886524,114.26608 94.642334,114.10828 92.303348,113.92746 C 89.247871,113.09080 85.996553,112.47511 83.158175,111.13478 C 80.386186,109.37266 81.563941,105.68900 81.299115,102.95976 C 81.278203,102.23322 81.385593,98.598860 81.215355,98.000050 C 81.045108,97.401245 80.597235,97.067780 79.465778,97.402630 z "
       id="path3400"
       sodipodi:nodetypes="ccccccccccsc"
       transform="matrix(0.507831,0.000000,0.000000,0.507831,63.17206,63.98196)" />
    <path
       style="fill:none;fill-opacity:1.0000000;fill-rule:evenodd;stroke:#ffffff;stroke-width:0.86555700pt;stroke-linecap:butt;stroke-linejoin:miter;stroke-opacity:0.18421049"
       d="M 15.901436,16.267905 L 113.27660,16.267905 L 113.27660,82.266626 L 15.901436,82.266626 L 15.901436,16.267905 z "
       id="path3401"
       sodipodi:nodetypes="ccccc"
       transform="matrix(0.507831,0.000000,0.000000,0.507831,63.17206,63.98196)" />
    <path
       style="fill:#dadada;fill-opacity:1.0000000;fill-rule:evenodd;stroke:#000000;stroke-width:6.4489956;stroke-linecap:butt;stroke-linejoin:miter;stroke-miterlimit:4.0000000;stroke-opacity:1.0000000"
       d="M 4.0000275,8.6942810 C 4.0000275,6.6541430 6.2876773,4.3664958 8.3278125,4.3664958 L 120.85022,4.3664958 C 122.89036,4.3664958 125.17801,6.6541430 125.17801,8.6942810 L 125.17801,95.249981 C 125.17801,97.290116 122.89036,99.577770 120.85022,99.577770 L 8.3278125,99.577770 C 6.2876773,99.577770 4.0000275,97.290116 4.0000275,95.249981 L 4.0000275,8.6942810 z "
       id="path3402"
       sodipodi:nodetypes="czzzzzzzz"
       transform="matrix(0.507831,0.000000,0.000000,0.507831,63.17206,63.98196)" />
    <path
       style="fill:none;fill-opacity:1.0000000;fill-rule:evenodd;stroke:#000000;stroke-width:2.4243219;stroke-linecap:butt;stroke-linejoin:miter;stroke-miterlimit:4.0000000;stroke-opacity:0.74074072"
       d="M 16.088383,16.379615 L 113.08966,16.379615 L 113.08966,82.154915 L 16.088383,82.154915 L 16.088383,16.379615 z "
       id="path3406"
       sodipodi:nodetypes="ccccc"
       transform="matrix(0.507831,0.000000,0.000000,0.507831,63.17206,63.98196)" />
    <path
       style="fill:url(#linearGradient3787);fill-opacity:1.0000000;fill-rule:evenodd;stroke:none;stroke-width:0.86555700pt;stroke-linecap:butt;stroke-linejoin:miter;stroke-opacity:0.33552632"
       d="M 14.819490,15.185958 L 114.35855,15.185958 L 114.35855,83.348572 L 14.819490,83.348572 L 14.819490,15.185958 z "
       id="path3403"
       sodipodi:nodetypes="ccccc"
       transform="matrix(0.507831,0.000000,0.000000,0.507831,63.17206,63.98196)" />
    <path
       style="fill:none;fill-opacity:0.75000000;fill-rule:evenodd;stroke:url(#linearGradient3788);stroke-width:2.1499896;stroke-linecap:butt;stroke-linejoin:miter;stroke-miterlimit:4.0000000;stroke-opacity:1.0000000"
       d="M 6.5392995,11.122329 C 6.5392995,7.8973443 7.6142943,6.8223501 10.839278,6.8223501 L 118.33875,6.8223501 C 121.56374,6.8223501 122.63874,7.8973443 122.63874,11.122329 L 122.63874,92.821932 C 122.63874,96.046917 121.56374,97.121911 118.33875,97.121911 L 10.839278,97.121911 C 7.6142943,97.121911 6.5392995,96.046917 6.5392995,92.821932 L 6.5392995,11.122329 z "
       id="path1925"
       sodipodi:nodetypes="czzzzzzzz"
       transform="matrix(0.507831,0.000000,0.000000,0.507831,63.17206,63.98196)" />
    <path
       style="fill:#0066af;fill-opacity:0.83552629;fill-rule:evenodd;stroke:none;stroke-width:0.86555700pt;stroke-linecap:butt;stroke-linejoin:miter;stroke-opacity:1.0000000"
       d="M 12.319490,15.185958 L 111.85855,15.185958 L 111.85855,83.348572 L 12.319490,83.348572 L 12.319490,15.185958 z "
       id="path3405"
       sodipodi:nodetypes="ccccc"
       transform="matrix(0.507831,0.000000,0.000000,0.507831,63.17206,63.98196)" />
    <path
       style="fill:none;fill-opacity:1.0000000;fill-rule:evenodd;stroke:url(#linearGradient3789);stroke-width:2.4485693;stroke-linecap:butt;stroke-linejoin:round;stroke-miterlimit:4.0000000;stroke-opacity:1.0000000"
       d="M 13.238904,13.845834 L 115.58558,13.845834 L 115.58558,84.511919 L 13.238904,84.511919 L 13.238904,13.845834 z "
       id="path3407"
       sodipodi:nodetypes="ccccc"
       transform="matrix(0.507831,0.000000,0.000000,0.507831,63.17206,63.98196)" />
    <path
       style="fill:none;fill-opacity:0.75000000;fill-rule:evenodd;stroke:url(#linearGradient3790);stroke-width:2.1499896;stroke-linecap:butt;stroke-linejoin:miter;stroke-miterlimit:4.0000000;stroke-opacity:1.0000000"
       d="M 6.5392995,11.122329 C 6.5392995,7.8973443 7.6142943,6.8223501 10.839278,6.8223501 L 118.33875,6.8223501 C 121.56374,6.8223501 122.63874,7.8973443 122.63874,11.122329 L 122.63874,92.821932 C 122.63874,96.046917 121.56374,97.121911 118.33875,97.121911 L 10.839278,97.121911 C 7.6142943,97.121911 6.5392995,96.046917 6.5392995,92.821932 L 6.5392995,11.122329 z "
       id="path3408"
       sodipodi:nodetypes="czzzzzzzz"
       transform="matrix(0.507831,0.000000,0.000000,0.507831,63.17206,63.98196)" />
    <path
       style="fill:url(#linearGradient3791);fill-opacity:1.0000000;fill-rule:evenodd;stroke:none;stroke-width:1.0000000pt;stroke-linecap:butt;stroke-linejoin:miter;stroke-opacity:1.0000000"
       d="M 14.819490,15.185958 L 114.35855,15.185958 L 114.35855,30.333206 C 68.916803,31.415152 35.376469,50.890185 15.901436,70.365217 L 14.819490,15.185958 z "
       id="path3409"
       sodipodi:nodetypes="ccccc"
       transform="matrix(0.507831,0.000000,0.000000,0.507831,63.17206,63.98196)" />
    <path
       style="opacity:0.51479292;fill:url(#linearGradient3792);fill-opacity:1.0000000;fill-rule:evenodd;stroke:none;stroke-width:1.0000000pt;stroke-linecap:butt;stroke-linejoin:miter;stroke-opacity:1.0000000"
       d="M 18.465230,21.348956 L 41.402127,21.348956 L 87.275922,21.348956 L 110.21282,21.348956 L 110.21282,36.198276 L 110.21282,65.896914 L 110.21282,80.746234 L 87.275922,80.746234 L 41.402127,80.746234 L 18.465230,80.746234 L 18.465230,65.896914 L 18.465230,36.198276 L 18.465230,21.348956 z "
       id="path1946"
       sodipodi:nodetypes="ccccccccccccc"
       transform="matrix(0.507831,0.000000,0.000000,0.507831,63.17206,63.98196)" />
    <path
       style="fill:none;fill-opacity:0.75000000;fill-rule:evenodd;stroke:none;stroke-width:3.7500000;stroke-linecap:butt;stroke-linejoin:miter;stroke-miterlimit:4.0000000;stroke-opacity:1.0000000"
       d="M 104.30192,50.021103 L 31.961181,12.420897 C 28.412778,10.576560 26.463347,11.260561 26.987715,13.136367 C 27.512084,15.012174 40.597553,36.470574 40.484467,50.220762 C 40.371384,63.970952 26.694401,91.600104 26.222268,93.460595 C 25.750130,95.321091 27.436179,95.764833 31.556811,93.627159 L 104.25345,55.914042 C 108.12416,53.906021 108.26582,52.081399 104.30192,50.021103 z "
       id="path2493"
       sodipodi:nodetypes="czzzzzzz"
       transform="matrix(0.507831,0.000000,0.000000,0.507831,63.17206,63.98196)" />
    <path
       style="fill:none;fill-opacity:0.75000000;fill-rule:evenodd;stroke:none;stroke-width:1.2500000;stroke-linecap:butt;stroke-linejoin:miter;stroke-miterlimit:4.0000000;stroke-opacity:1.0000000"
       d="M 104.30192,50.021103 L 31.961181,12.420897 C 28.412778,10.576560 26.463347,11.260561 26.987715,13.136367 C 27.512084,15.012174 40.597553,36.470574 40.484467,50.220762 C 40.371384,63.970952 26.694401,91.600104 26.222268,93.460595 C 25.750130,95.321091 27.436179,95.764833 31.556811,93.627159 L 104.25345,55.914042 C 108.12416,53.906021 108.26582,52.081399 104.30192,50.021103 z "
       id="path2496"
       sodipodi:nodetypes="czzzzzzz"
       transform="matrix(0.507831,0.000000,0.000000,0.507831,63.17206,63.98196)" />
  </g>
</svg>
