<?xml version="1.0" encoding="UTF-8" standalone="no"?>
<!-- Created with Inkscape (http://www.inkscape.org/) -->
<svg
   xmlns:dc="http://purl.org/dc/elements/1.1/"
   xmlns:cc="http://web.resource.org/cc/"
   xmlns:rdf="http://www.w3.org/1999/02/22-rdf-syntax-ns#"
   xmlns:svg="http://www.w3.org/2000/svg"
   xmlns="http://www.w3.org/2000/svg"
   xmlns:xlink="http://www.w3.org/1999/xlink"
   xmlns:sodipodi="http://inkscape.sourceforge.net/DTD/sodipodi-0.dtd"
   xmlns:inkscape="http://www.inkscape.org/namespaces/inkscape"
   sodipodi:docbase="/usr/share/icons/dlg-etiquette/scalable/apps"
   sodipodi:docname="inkscape.svg"
   height="128.00000pt"
   width="128.00000pt"
   inkscape:version="0.41"
   sodipodi:version="0.32"
   id="svg1161">
  <metadata
     id="metadata55">
    <rdf:RDF
       id="RDF56">
      <cc:Work
         id="Work57"
         rdf:about="">
        <dc:format
           id="format58">image/svg+xml</dc:format>
        <dc:type
           rdf:resource="http://purl.org/dc/dcmitype/StillImage"
           id="type60" />
      </cc:Work>
    </rdf:RDF>
  </metadata>
  <defs
     id="defs1163">
    <linearGradient
       id="linearGradient909">
      <stop
         id="stop910"
         offset="0.00000000"
         style="stop-color:#000000;stop-opacity:0.00000000;" />
      <stop
         id="stop913"
         offset="1.0000000"
         style="stop-color:#000000;stop-opacity:0.17000000;" />
    </linearGradient>
    <linearGradient
       y2="-1.7333326"
       x2="0.50000000"
       y1="0.66667551"
       x1="0.50000000"
       id="linearGradient907"
       xlink:href="#linearGradient909" />
    <linearGradient
       id="linearGradient826">
      <stop
         id="stop827"
         offset="0.00000000"
         style="stop-color:#000000;stop-opacity:0.95294118;" />
      <stop
         id="stop830"
         offset="0.36585677"
         style="stop-color:#000000;stop-opacity:0.76078433;" />
      <stop
         id="stop847"
         offset="0.47107276"
         style="stop-color:#000000;stop-opacity:0.52941179;" />
      <stop
         id="stop828"
         offset="1.0000000"
         style="stop-color:#ffffff;stop-opacity:0.00000000;" />
    </linearGradient>
    <radialGradient
       fy="0.15625000"
       fx="0.50617284"
       r="0.41400504"
       cy="0.46875000"
       cx="0.49382716"
       id="radialGradient829"
       xlink:href="#linearGradient826" />
    <linearGradient
       id="linearGradient1323">
      <stop
         id="stop1324"
         offset="0.00000000"
         style="stop-color:#000000;stop-opacity:0.77685952;" />
      <stop
         id="stop1325"
         offset="1.0000000"
         style="stop-color:#000000;stop-opacity:0.00000000;" />
    </linearGradient>
    <linearGradient
       id="linearGradient1273">
      <stop
         id="stop1274"
         offset="0.00000000"
         style="stop-color:#ffffff;stop-opacity:1.0000000;" />
      <stop
         id="stop1275"
         offset="1.0000000"
         style="stop-color:#ffffff;stop-opacity:0.00000000;" />
    </linearGradient>
    <linearGradient
       id="linearGradient1222">
      <stop
         id="stop1223"
         offset="0.00000000"
         style="stop-color:#000000;stop-opacity:0.32231405;" />
      <stop
         id="stop1224"
         offset="1.0000000"
         style="stop-color:#000000;stop-opacity:0.00000000;" />
    </linearGradient>
    <linearGradient
       id="linearGradient1218">
      <stop
         id="stop1219"
         offset="0.00000000"
         style="stop-color:#000000;stop-opacity:1.0000000;" />
      <stop
         id="stop1321"
         offset="0.073255815"
         style="stop-color:#323232;stop-opacity:1.0000000;" />
      <stop
         id="stop1320"
         offset="0.65260679"
         style="stop-color:#000000;stop-opacity:1.0000000;" />
      <stop
         id="stop1220"
         offset="1"
         style="stop-color:#fff;stop-opacity:1;" />
    </linearGradient>
    <linearGradient
       y2="0.24742271"
       x2="0.42605633"
       y1="2.1597939"
       x1="-0.96478873"
       id="linearGradient1221"
       xlink:href="#linearGradient1222" />
    <linearGradient
       y2="0.50000000"
       x2="1.0000000"
       y1="0.50000000"
       x1="0.00000000"
       id="linearGradient1231"
       xlink:href="#linearGradient1323" />
    <linearGradient
       id="linearGradient1270"
       xlink:href="#linearGradient1222" />
    <linearGradient
       y2="0.55458528"
       x2="0.53521127"
       y1="0.23580793"
       x1="1.0739436"
       id="linearGradient1272"
       xlink:href="#linearGradient1273" />
    <linearGradient
       y2="0.80203044"
       x2="0.36971831"
       y1="1.5228426"
       x1="-0.36619717"
       id="linearGradient1277"
       xlink:href="#linearGradient1273" />
    <linearGradient
       gradientTransform="scale(1.002016,0.997989)"
       y2="0.13959341"
       x2="0.42603236"
       y1="1.8676205"
       x1="0.45839140"
       id="linearGradient1305"
       xlink:href="#linearGradient1222" />
    <linearGradient
       gradientTransform="scale(1.006361,0.993679)"
       y2="0.11846013"
       x2="0.41548476"
       y1="1.9667202"
       x1="0.45009527"
       id="linearGradient1306"
       xlink:href="#linearGradient1222" />
    <linearGradient
       gradientTransform="scale(1.004208,0.995809)"
       y2="0.12454049"
       x2="0.41986585"
       y1="1.9347328"
       x1="0.45376351"
       id="linearGradient1307"
       xlink:href="#linearGradient1222" />
    <linearGradient
       gradientTransform="scale(1.003964,0.996052)"
       y2="0.13620205"
       x2="0.42305115"
       y1="1.8884484"
       x1="0.45586374"
       id="linearGradient1308"
       xlink:href="#linearGradient1222" />
    <linearGradient
       gradientTransform="scale(1.004830,0.995194)"
       y2="0.13148114"
       x2="0.42086881"
       y1="1.9081270"
       x1="0.45413828"
       id="linearGradient1309"
       xlink:href="#linearGradient1222" />
    <linearGradient
       y2="0.99354839"
       x2="-0.17253521"
       y1="0.27741936"
       x1="0.50704223"
       id="linearGradient1318"
       xlink:href="#linearGradient1273" />
    <linearGradient
       y2="0.98555958"
       x2="0.27112675"
       y1="0.097472921"
       x1="0.50352114"
       id="linearGradient1322"
       xlink:href="#linearGradient1218" />
    <radialGradient
       gradientUnits="userSpaceOnUse"
       r="248.40302"
       fy="93.750000"
       fx="303.70370"
       cy="281.25000"
       cx="296.29630"
       id="radialGradient1127"
       xlink:href="#linearGradient826"
       inkscape:collect="always" />
    <radialGradient
       gradientUnits="userSpaceOnUse"
       r="248.40302"
       fy="93.750000"
       fx="303.70370"
       cy="281.25000"
       cx="296.29630"
       id="radialGradient1128"
       xlink:href="#linearGradient826"
       inkscape:collect="always" />
    <linearGradient
       gradientUnits="userSpaceOnUse"
       gradientTransform="scale(1.021116,0.979320)"
       y2="28.120696"
       x2="130.70353"
       y1="170.27164"
       x1="27.318817"
       id="linearGradient1129"
       xlink:href="#linearGradient1222"
       inkscape:collect="always" />
    <linearGradient
       gradientUnits="userSpaceOnUse"
       gradientTransform="scale(1.016208,0.984050)"
       y2="28.775105"
       x2="131.82116"
       y1="164.17808"
       x1="33.344169"
       id="linearGradient1130"
       xlink:href="#linearGradient1222"
       inkscape:collect="always" />
    <linearGradient
       y2="28.120696"
       x2="130.70353"
       y1="170.27164"
       x1="27.318817"
       gradientTransform="scale(1.021116,0.979320)"
       gradientUnits="userSpaceOnUse"
       id="linearGradient1131"
       xlink:href="#linearGradient1222"
       inkscape:collect="always" />
    <linearGradient
       y2="28.120696"
       x2="130.70353"
       y1="170.27164"
       x1="27.318817"
       gradientTransform="scale(1.021116,0.979320)"
       gradientUnits="userSpaceOnUse"
       id="linearGradient1132"
       xlink:href="#linearGradient1222"
       inkscape:collect="always" />
    <linearGradient
       y2="28.120696"
       x2="130.70353"
       y1="170.27164"
       x1="27.318817"
       gradientTransform="scale(1.021116,0.979320)"
       gradientUnits="userSpaceOnUse"
       id="linearGradient1133"
       xlink:href="#linearGradient1222"
       inkscape:collect="always" />
    <linearGradient
       y2="28.120696"
       x2="130.70353"
       y1="170.27164"
       x1="27.318817"
       gradientTransform="scale(1.021116,0.979320)"
       gradientUnits="userSpaceOnUse"
       id="linearGradient1134"
       xlink:href="#linearGradient1222"
       inkscape:collect="always" />
    <linearGradient
       y2="28.120696"
       x2="130.70353"
       y1="170.27164"
       x1="27.318817"
       gradientTransform="scale(1.021116,0.979320)"
       gradientUnits="userSpaceOnUse"
       id="linearGradient1135"
       xlink:href="#linearGradient1222"
       inkscape:collect="always" />
    <linearGradient
       gradientUnits="userSpaceOnUse"
       gradientTransform="scale(1.016208,0.984050)"
       y2="114.57422"
       x2="53.030737"
       y1="20.687101"
       x1="77.599106"
       id="linearGradient1136"
       xlink:href="#linearGradient1218"
       inkscape:collect="always" />
    <linearGradient
       gradientUnits="userSpaceOnUse"
       gradientTransform="scale(1.394315,0.717198)"
       y2="120.74315"
       x2="94.698939"
       y1="120.74315"
       x1="17.696665"
       id="linearGradient1137"
       xlink:href="#linearGradient1323"
       inkscape:collect="always" />
    <linearGradient
       gradientUnits="userSpaceOnUse"
       gradientTransform="scale(1.118063,0.894404)"
       y2="62.493129"
       x2="90.285630"
       y1="45.700580"
       x1="118.66497"
       id="linearGradient1138"
       xlink:href="#linearGradient1273"
       inkscape:collect="always" />
    <linearGradient
       gradientUnits="userSpaceOnUse"
       gradientTransform="scale(1.206369,0.828933)"
       y2="80.482086"
       x2="51.413385"
       y1="119.11808"
       x1="11.967844"
       id="linearGradient1139"
       xlink:href="#linearGradient1273"
       inkscape:collect="always" />
    <linearGradient
       gradientUnits="userSpaceOnUse"
       gradientTransform="scale(1.337417,0.747710)"
       y2="58.199241"
       x2="33.266399"
       y1="30.563196"
       x1="59.491886"
       id="linearGradient1140"
       xlink:href="#linearGradient1273"
       inkscape:collect="always" />
    <linearGradient
       y2="58.199241"
       x2="33.266399"
       y1="30.563196"
       x1="59.491886"
       gradientTransform="matrix(1.715780,0.000000,0.000000,0.959242,-69.86061,2.182154e-2)"
       gradientUnits="userSpaceOnUse"
       id="linearGradient1156"
       xlink:href="#linearGradient1273"
       inkscape:collect="always" />
    <linearGradient
       y2="62.493129"
       x2="90.285630"
       y1="45.700580"
       x1="118.66497"
       gradientTransform="matrix(1.434370,0.000000,0.000000,1.147436,-69.86061,2.182154e-2)"
       gradientUnits="userSpaceOnUse"
       id="linearGradient1157"
       xlink:href="#linearGradient1273"
       inkscape:collect="always" />
    <linearGradient
       y2="114.57422"
       x2="53.030737"
       y1="20.687101"
       x1="77.599106"
       gradientTransform="matrix(1.303699,0.000000,0.000000,1.262444,-69.86060,2.182154e-2)"
       gradientUnits="userSpaceOnUse"
       id="linearGradient1158"
       xlink:href="#linearGradient1218"
       inkscape:collect="always" />
    <linearGradient
       y2="120.74315"
       x2="94.698939"
       y1="120.74315"
       x1="17.696665"
       gradientTransform="matrix(1.788775,0.000000,0.000000,0.920098,-69.86061,2.182154e-2)"
       gradientUnits="userSpaceOnUse"
       id="linearGradient1159"
       xlink:href="#linearGradient1323"
       inkscape:collect="always" />
    <linearGradient
       y2="28.775105"
       x2="131.82116"
       y1="164.17808"
       x1="33.344169"
       gradientTransform="scale(1.016208,0.984050)"
       gradientUnits="userSpaceOnUse"
       id="linearGradient1160"
       xlink:href="#linearGradient1222"
       inkscape:collect="always" />
    <linearGradient
       y2="28.120696"
       x2="130.70353"
       y1="170.27164"
       x1="27.318817"
       gradientTransform="scale(1.021116,0.979320)"
       gradientUnits="userSpaceOnUse"
       id="linearGradient1161"
       xlink:href="#linearGradient1222"
       inkscape:collect="always" />
    <linearGradient
       y2="28.120696"
       x2="130.70353"
       y1="170.27164"
       x1="27.318817"
       gradientTransform="scale(1.021116,0.979320)"
       gradientUnits="userSpaceOnUse"
       id="linearGradient1162"
       xlink:href="#linearGradient1222"
       inkscape:collect="always" />
    <linearGradient
       y2="28.120696"
       x2="130.70353"
       y1="170.27164"
       x1="27.318817"
       gradientTransform="scale(1.021116,0.979320)"
       gradientUnits="userSpaceOnUse"
       id="linearGradient1163"
       xlink:href="#linearGradient1222"
       inkscape:collect="always" />
    <linearGradient
       y2="28.120696"
       x2="130.70353"
       y1="170.27164"
       x1="27.318817"
       gradientTransform="scale(1.021116,0.979320)"
       gradientUnits="userSpaceOnUse"
       id="linearGradient1164"
       xlink:href="#linearGradient1222"
       inkscape:collect="always" />
    <linearGradient
       y2="28.120696"
       x2="130.70353"
       y1="170.27164"
       x1="27.318817"
       gradientTransform="scale(1.021116,0.979320)"
       gradientUnits="userSpaceOnUse"
       id="linearGradient1165"
       xlink:href="#linearGradient1222"
       inkscape:collect="always" />
    <radialGradient
       r="248.40302"
       fy="93.750000"
       fx="303.70370"
       cy="281.25000"
       cx="296.29630"
       gradientUnits="userSpaceOnUse"
       id="radialGradient1166"
       xlink:href="#linearGradient826"
       inkscape:collect="always" />
    <radialGradient
       r="248.40302"
       fy="93.750000"
       fx="303.70370"
       cy="281.25000"
       cx="296.29630"
       gradientUnits="userSpaceOnUse"
       id="radialGradient1167"
       xlink:href="#linearGradient826"
       inkscape:collect="always" />
    <linearGradient
       y2="28.775105"
       x2="131.82116"
       y1="164.17808"
       x1="33.344169"
       gradientTransform="scale(1.016208,0.984050)"
       gradientUnits="userSpaceOnUse"
       id="linearGradient1181"
       xlink:href="#linearGradient1222"
       inkscape:collect="always" />
    <linearGradient
       y2="28.120696"
       x2="130.70353"
       y1="170.27164"
       x1="27.318817"
       gradientTransform="scale(1.021116,0.979320)"
       gradientUnits="userSpaceOnUse"
       id="linearGradient1182"
       xlink:href="#linearGradient1222"
       inkscape:collect="always" />
    <linearGradient
       y2="28.120696"
       x2="130.70353"
       y1="170.27164"
       x1="27.318817"
       gradientTransform="scale(1.021116,0.979320)"
       gradientUnits="userSpaceOnUse"
       id="linearGradient1183"
       xlink:href="#linearGradient1222"
       inkscape:collect="always" />
    <linearGradient
       y2="28.120696"
       x2="130.70353"
       y1="170.27164"
       x1="27.318817"
       gradientTransform="scale(1.021116,0.979320)"
       gradientUnits="userSpaceOnUse"
       id="linearGradient1184"
       xlink:href="#linearGradient1222"
       inkscape:collect="always" />
    <linearGradient
       y2="28.120696"
       x2="130.70353"
       y1="170.27164"
       x1="27.318817"
       gradientTransform="scale(1.021116,0.979320)"
       gradientUnits="userSpaceOnUse"
       id="linearGradient1185"
       xlink:href="#linearGradient1222"
       inkscape:collect="always" />
    <linearGradient
       y2="28.120696"
       x2="130.70353"
       y1="170.27164"
       x1="27.318817"
       gradientTransform="scale(1.021116,0.979320)"
       gradientUnits="userSpaceOnUse"
       id="linearGradient1186"
       xlink:href="#linearGradient1222"
       inkscape:collect="always" />
    <linearGradient
       y2="58.199241"
       x2="33.266399"
       y1="30.563196"
       x1="59.491886"
       gradientTransform="matrix(1.793838,0.000000,0.000000,1.002882,-25.06826,-3.226127)"
       gradientUnits="userSpaceOnUse"
       id="linearGradient1379"
       xlink:href="#linearGradient1273"
       inkscape:collect="always" />
    <linearGradient
       y2="117.97830"
       x2="61.013550"
       y1="164.37500"
       x1="27.262810"
       gradientTransform="scale(1.206370,0.828933)"
       gradientUnits="userSpaceOnUse"
       id="linearGradient1382"
       xlink:href="#linearGradient1273"
       inkscape:collect="always" />
    <linearGradient
       y2="62.493129"
       x2="90.285630"
       y1="45.700580"
       x1="118.66497"
       gradientTransform="matrix(1.499625,0.000000,0.000000,1.199637,-25.06826,-3.226127)"
       gradientUnits="userSpaceOnUse"
       id="linearGradient1385"
       xlink:href="#linearGradient1273"
       inkscape:collect="always" />
    <linearGradient
       y2="120.74315"
       x2="94.698939"
       y1="120.74315"
       x1="17.696665"
       gradientTransform="matrix(1.870154,0.000000,0.000000,0.961957,-25.06826,-3.226127)"
       gradientUnits="userSpaceOnUse"
       id="linearGradient1388"
       xlink:href="#linearGradient1323"
       inkscape:collect="always" />
    <linearGradient
       y2="114.57422"
       x2="53.030737"
       y1="20.687101"
       x1="77.599106"
       gradientTransform="matrix(1.363009,0.000000,0.000000,1.319878,-25.06825,-3.226127)"
       gradientUnits="userSpaceOnUse"
       id="linearGradient1391"
       xlink:href="#linearGradient1218"
       inkscape:collect="always" />
  </defs>
  <sodipodi:namedview
     inkscape:current-layer="svg1161"
     showborder="true"
     inkscape:window-y="126"
     inkscape:window-x="85"
     inkscape:window-height="543"
     inkscape:window-width="640"
     inkscape:cy="86.572888"
     inkscape:cx="78.701751"
     inkscape:zoom="1.4142136"
     inkscape:pageshadow="2"
     inkscape:pageopacity="0.0"
     borderopacity="1.0"
     bordercolor="#666666"
     pagecolor="#ffffff"
     id="base" />
  <g
     id="g2160">
    <g
       transform="matrix(0.920661,0.000000,0.000000,0.913803,0.945074,-10.72988)"
       id="g1394">
      <path
         transform="matrix(0.394071,0.000000,0.000000,8.155385e-2,-31.69751,94.58860)"
         style="opacity:0.69398910;fill:url(#radialGradient1166);stroke-width:4.4309568;stroke-dasharray:17.723827 17.723827 ;stroke-dashoffset:0.0000000"
         d="M 600.00000 300.00000 A 300.00000 300.00000 0 1 1  0.0000000,300.00000 A 300.00000 300.00000 0 1 1  600.00000 300.00000 z"
         sodipodi:ry="300.00000"
         sodipodi:rx="300.00000"
         sodipodi:cy="300.00000"
         sodipodi:cx="300.00000"
         id="path898"
         sodipodi:type="arc" />
      <path
         transform="matrix(0.280658,0.000000,0.000000,0.148676,4.082687,91.98483)"
         style="fill:url(#radialGradient1167);stroke-width:4.4309568;stroke-dasharray:17.723827 17.723827 ;stroke-dashoffset:0.0000000"
         d="M 600.00000 300.00000 A 300.00000 300.00000 0 1 1  0.0000000,300.00000 A 300.00000 300.00000 0 1 1  600.00000 300.00000 z"
         sodipodi:ry="300.00000"
         sodipodi:rx="300.00000"
         sodipodi:cy="300.00000"
         sodipodi:cx="300.00000"
         id="ball1"
         sodipodi:type="arc" />
    </g>
    <g
       style="fill:url(#linearGradient1129)"
       transform="matrix(2.002677,0.000000,0.000000,1.827437,-200.7108,2.224585)"
       id="g1310">
      <path
         id="path1278"
         d="M 139.27138,11.077118 C 137.22042,11.077119 135.15548,11.849270 133.58388,13.420868 L 105.67763,41.358368 C 104.13725,42.898711 103.33325,44.910828 103.30263,46.920868 C 103.30220,46.954601 103.30263,47.012134 103.30263,47.045868 L 103.36513,47.045868 C 103.89976,49.079999 117.69889,51.660911 119.24013,53.202118 C 121.56768,55.529685 110.31886,57.249538 112.64638,59.577118 C 114.97392,61.904658 126.72486,64.062038 129.05263,66.389620 C 131.38019,68.717170 124.28755,71.187070 126.61513,73.514620 C 128.94268,75.842201 136.74995,72.943440 135.33388,79.014621 C 138.47707,82.157811 145.03666,80.657811 149.42763,77.514621 C 151.75518,75.187070 144.97506,75.404670 147.30263,73.077120 C 149.63018,70.749540 155.50836,70.738600 160.45888,65.170868 C 158.46624,62.071818 151.94381,60.748438 154.27138,58.420868 C 156.59893,56.093323 161.10115,57.261288 170.86513,52.827118 C 175.63150,50.662408 175.25838,49.039285 175.24013,47.045868 C 175.23975,47.003922 175.24013,46.963136 175.24013,46.920868 L 175.20888,46.920868 C 175.17827,44.910830 174.40547,42.898714 172.86513,41.358368 L 144.92763,13.420868 C 143.35604,11.849272 141.32234,11.077118 139.27138,11.077118 z M 139.02138,14.702118 C 139.93315,14.725869 140.67125,15.422422 142.11513,16.358368 L 155.30263,26.139618 C 155.44708,26.233292 155.58252,26.320552 155.70888,26.420868 C 155.83525,26.521171 155.97562,26.627132 156.08388,26.733368 C 156.19214,26.839410 156.27479,26.966073 156.36513,27.077118 C 156.45527,27.188145 156.54310,27.305955 156.61513,27.420868 C 156.68737,27.535969 156.74853,27.646585 156.80263,27.764618 C 156.85677,27.882866 156.89163,27.987920 156.92763,28.108368 C 156.96385,28.228632 157.00329,28.361823 157.02138,28.483368 C 157.03948,28.605130 157.05263,28.736271 157.05263,28.858368 L 149.24013,25.077118 L 148.45888,30.983368 L 144.14638,28.952118 L 137.52138,33.389618 L 134.95888,24.639618 L 131.70888,32.295868 L 122.55263,33.202118 L 122.64638,29.139618 C 122.64638,28.162533 127.93872,21.330614 131.14638,19.702118 L 137.02138,15.483368 C 137.88771,14.921800 138.47431,14.687867 139.02138,14.702118 z M 126.89638,54.639618 C 131.05584,55.718333 135.68346,57.114312 139.39638,57.139618 L 139.55263,58.827118 C 136.37321,58.499388 129.63884,56.949888 128.05263,56.139618 L 126.89638,54.639618 z M 170.24013,62.045868 C 169.60518,62.025518 169.00430,62.089178 168.55263,62.202118 C 167.70107,62.414898 163.56419,62.512928 163.89638,65.170868 C 167.55118,66.499190 173.20097,67.516500 173.86513,64.858368 C 174.36366,62.865308 172.14497,62.106908 170.24013,62.045868 z M 122.45888,67.452120 C 121.88389,67.385110 121.32136,67.455980 120.77138,67.733370 C 118.57203,68.842760 117.09168,71.307720 119.14638,72.327120 C 121.20129,73.346520 122.65747,72.185800 124.45888,70.920870 C 126.26050,69.656140 126.21414,69.408800 126.08388,68.920870 C 125.83449,68.987380 124.18386,67.653150 122.45888,67.452120 z M 162.64638,67.889620 C 160.98514,68.553960 161.00465,70.861860 162.33388,71.858370 C 163.66277,72.855080 165.32597,72.210400 165.99013,71.545870 C 166.65484,70.881530 165.96848,68.553970 162.64638,67.889620 z "
         style="fill:url(#linearGradient1181);fill-opacity:0.074380167;fill-rule:evenodd;stroke-width:1.0000000pt" />
      <path
         id="path1283"
         d="M 137.96875,10.718750 C 134.70402,11.060845 132.45341,13.855395 130.15790,15.940974 C 121.77155,24.503910 113.19525,32.911552 104.88478,41.529122 C 103.53165,43.257666 102.98133,45.293623 102.71875,47.437500 C 107.43946,50.886242 113.69835,50.905815 118.71875,53.781250 C 117.30484,56.014138 113.86394,55.927723 112.30534,58.153586 C 110.95047,59.066432 112.87438,60.562599 113.88390,60.907202 C 118.07998,63.025863 122.80956,63.838835 126.97834,66.068813 C 129.14039,66.223477 128.99465,68.397410 127.55968,69.465540 C 126.42313,70.610466 124.66557,72.512182 126.40386,73.938766 C 128.52893,75.415674 131.34635,75.011355 133.71875,75.875000 C 135.38587,76.789177 134.20286,78.442002 135.34375,79.593750 C 138.20878,81.840481 142.17613,81.444087 145.36980,80.162063 C 147.01184,79.679133 148.50293,78.612108 149.93750,77.781250 C 151.32137,76.168445 149.16317,75.014407 147.93750,74.343750 C 147.13207,73.007556 149.81258,72.471472 150.72621,71.835396 C 154.22932,70.415525 157.63139,68.772275 160.32323,66.076023 C 162.00146,65.040055 159.53684,63.566475 158.75000,62.750000 C 157.29555,61.671425 155.38495,61.005736 154.46875,59.343750 C 156.83166,56.736844 160.77991,57.222943 163.82692,55.886662 C 167.48614,54.956060 170.96688,53.327613 174.19128,51.441061 C 176.31894,49.855420 175.75931,47.094289 175.34438,44.858149 C 173.82714,40.146659 169.32671,37.346121 166.14614,33.782162 C 159.00255,26.737555 151.96598,19.558149 144.75603,12.597114 C 142.83187,11.117125 140.40461,10.324926 137.96875,10.718750 z M 140.15625,15.718750 C 145.33185,19.512142 150.51925,23.291773 155.68750,27.093750 C 155.79568,28.128330 152.96647,25.994412 151.88519,25.704486 C 150.56126,25.310550 148.23232,22.990502 148.60160,25.735802 C 148.03383,26.854222 148.89364,30.614243 147.25375,29.748789 C 145.77079,28.952048 143.79956,27.767016 142.39696,29.393778 C 140.87922,30.408352 139.36149,31.422926 137.84375,32.437500 C 136.92659,29.270978 136.01364,26.103230 135.09375,22.937500 C 133.83186,25.869891 132.59553,28.813265 131.34375,31.750000 C 128.60417,32.020833 125.86458,32.291667 123.12500,32.562500 C 122.93577,30.531586 123.37937,28.492090 124.78964,27.051727 C 127.83705,22.165897 132.91432,19.181067 137.48762,15.928279 C 138.38080,15.399443 139.18306,15.465846 140.15625,15.718750 z M 132.06250,56.562500 C 134.25968,57.131800 136.54653,57.244809 138.78125,57.625000 C 137.93164,58.641801 135.83490,57.320885 134.50134,57.277133 C 132.75919,56.896272 131.01731,56.527068 129.37500,55.812500 C 130.27083,56.062500 131.16667,56.312500 132.06250,56.562500 z M 168.50000,61.625000 C 166.47980,62.095190 163.59992,62.369201 163.34375,64.968750 C 164.00781,65.934196 166.11962,66.292948 167.47626,66.551501 C 169.60910,66.891924 172.52463,67.659468 174.01886,65.672524 C 175.29513,63.892929 173.38643,61.628153 171.40540,61.754929 C 170.44376,61.426788 169.48969,61.503021 168.50000,61.625000 z M 120.65625,67.156250 C 119.17864,68.173454 117.17273,69.706513 117.81250,71.750000 C 119.32360,73.943032 122.44871,73.328157 124.17581,71.744685 C 125.31806,71.095411 127.22708,69.849349 126.34375,68.406250 C 124.53029,67.617814 122.70705,66.421404 120.65625,67.156250 z M 162.25000,67.468750 C 160.98536,68.304844 160.47655,70.055902 161.35305,71.321264 C 162.02451,73.004295 164.27223,73.179865 165.64672,72.263080 C 167.48408,71.700360 166.67812,69.347513 165.33731,68.658474 C 164.66189,67.815250 163.12029,67.406310 162.25000,67.468750 z "
         style="fill:url(#linearGradient1182);fill-opacity:0.074380167;fill-rule:evenodd;stroke-width:1.0000000pt" />
      <path
         id="path1286"
         d="M 137.09375,12.062500 C 133.45264,13.658306 130.89510,17.054651 128.02763,19.760075 C 120.64992,27.277135 113.11748,34.668181 105.81675,42.244521 C 104.77302,43.583830 104.19848,45.113312 103.93750,46.781250 C 108.02500,49.661848 113.35464,49.814484 117.77247,52.034312 C 119.23732,52.180074 120.83004,53.663696 119.47530,54.914506 C 117.72685,56.714093 114.64707,56.868986 113.18750,58.937500 C 116.98689,61.678185 121.72461,62.314645 125.91888,64.199775 C 127.35246,65.248996 129.93899,65.341959 130.00000,67.531250 C 129.61283,69.469175 127.68115,70.594821 126.84375,72.343750 C 128.66657,74.916318 132.41661,73.526770 134.81763,75.194505 C 136.12150,75.998634 135.76289,77.719238 136.33739,78.786112 C 139.34189,80.984126 143.56705,80.023489 146.59979,78.262860 C 147.57821,77.931235 150.25551,76.737683 148.25234,75.866570 C 146.79311,75.539319 145.57083,73.791727 146.98575,72.676315 C 150.59379,69.928273 155.52636,69.300230 158.75379,65.912819 C 160.44061,64.636839 157.51978,63.512312 156.64603,62.784855 C 155.31686,61.805358 153.02074,60.864770 153.31250,58.906250 C 155.52467,55.836091 159.76350,56.249927 162.98171,54.909139 C 166.64088,54.011598 170.17880,52.442724 173.39619,50.585767 C 175.44759,48.766928 174.40312,45.854433 173.70402,43.674602 C 170.01715,38.505895 164.93468,34.528530 160.60640,29.906454 C 155.05848,24.484276 149.68028,18.831089 144.02714,13.552135 C 142.01313,12.267231 139.68457,11.155741 137.26959,12.030263 L 137.09375,12.062500 z M 139.25000,14.156250 C 144.36849,16.573687 148.44456,20.615673 153.06166,23.857057 C 154.79682,25.417824 157.75256,26.462276 157.65625,29.218750 C 155.98301,29.620934 154.51821,27.909197 152.92283,27.467153 C 151.47889,26.979622 149.05912,24.688826 149.46490,27.619328 C 148.95092,28.676042 149.67609,32.096323 148.30430,31.528870 C 146.86362,30.916675 145.25114,29.742049 143.73062,29.880583 C 141.56112,31.359522 139.38321,32.826259 137.21875,34.312500 C 136.40063,31.654144 135.63994,28.977747 134.84375,26.312500 C 133.78712,28.431959 132.98467,30.961875 131.78125,32.843750 C 128.52084,33.166779 125.26035,33.488957 122.00000,33.812500 C 122.02692,31.439278 121.58820,28.751334 123.45144,26.900643 C 126.38650,21.928911 131.54097,18.937382 135.96875,15.531250 C 137.05500,15.131227 138.17386,14.356070 139.25000,14.156250 z M 126.34375,53.906250 C 130.81931,55.099287 135.33348,56.080112 139.93750,56.625000 C 140.81508,58.380031 139.61654,59.889689 137.75155,59.030564 C 134.35469,58.342143 130.95451,57.411091 127.62500,56.500000 C 127.37596,56.018046 124.72663,53.333015 126.34375,53.906250 z M 168.68750,62.750000 C 167.26725,63.145732 165.19352,63.022642 164.68750,64.750000 C 167.41558,65.272026 170.36127,66.626958 173.03125,65.187500 C 173.94813,63.333514 171.22391,62.807999 169.92452,62.707344 C 169.51218,62.721563 169.09984,62.735781 168.68750,62.750000 z M 120.96875,68.250000 C 119.88102,69.094191 117.71809,71.141191 120.00567,71.867660 C 122.11744,72.377527 123.71955,70.573549 125.28125,69.468750 C 124.17010,68.379529 122.48301,67.967608 120.96875,68.250000 z M 162.25000,68.937500 C 161.26655,70.838341 164.03769,72.707639 165.32625,71.028976 C 165.98639,69.968138 163.10932,68.105539 162.25000,68.937500 z "
         style="fill:url(#linearGradient1183);fill-opacity:0.074380167;fill-rule:evenodd;stroke-width:1.0000000pt" />
      <path
         id="path1295"
         d="M 137.50000,12.562500 C 131.56402,15.884438 127.47918,21.513076 122.59316,26.106819 C 117.07494,31.800872 111.33765,37.333066 105.95500,43.127274 C 105.27016,44.232264 103.90274,46.716455 105.88806,47.110513 C 110.48303,49.525949 116.07018,49.897473 120.25000,52.937500 C 121.19557,55.258014 118.31954,56.204644 116.77699,57.135076 C 115.14828,57.646504 113.25757,59.174666 115.98524,59.736007 C 120.51650,62.179113 125.90956,62.812244 130.06250,65.968750 C 131.40440,68.155882 128.87852,70.088345 127.96429,71.816940 C 127.97548,73.606583 130.61198,73.210238 131.85374,73.694589 C 134.00698,73.861384 136.31306,75.067306 136.52629,77.437982 C 137.24770,79.315251 139.82104,79.377347 141.56250,79.375000 C 143.88381,79.081698 145.88731,77.848938 148.00000,76.937500 C 147.89289,75.484280 145.47385,75.343455 145.78125,73.562500 C 147.65028,70.568783 151.46696,69.934698 154.32757,68.211442 C 155.95166,67.507534 157.40819,66.436524 158.50000,65.031250 C 156.69534,62.893495 153.11684,62.207207 152.76893,59.025530 C 153.13476,57.911585 154.90043,56.856141 156.14992,56.314935 C 161.47352,54.305871 167.29666,53.530281 172.18291,50.436255 C 174.75469,49.397100 173.90347,46.181096 173.15013,44.168122 C 170.99740,41.143850 168.08639,38.542958 165.64236,35.681332 C 163.12371,33.093790 160.49665,30.610931 157.93750,28.062500 C 158.99092,29.594714 157.00835,30.333418 155.86310,29.376751 C 153.95887,28.546062 152.06033,27.726589 150.12500,26.968750 C 150.04976,28.633800 149.69671,30.253091 149.34375,31.875000 C 146.94959,32.517021 144.62510,29.359512 142.44997,31.405021 C 140.65579,32.399012 139.25573,34.074138 137.34005,34.698602 C 135.96867,34.449689 136.15225,31.657450 135.44638,30.368996 C 135.03220,27.477998 134.31032,28.114323 133.43720,30.484434 C 132.63691,31.983328 132.29360,34.079093 130.12469,33.576560 C 127.22896,33.863646 124.33317,34.149933 121.43750,34.437500 C 121.45635,31.458390 121.16984,28.094375 123.52595,25.839572 C 126.82257,21.188668 131.69023,18.019711 136.23357,14.793262 C 137.75437,14.087412 139.64327,13.037594 141.05071,14.536711 C 144.77608,17.093755 148.56965,19.491887 152.06250,22.343750 C 149.06655,19.513772 146.25485,16.420638 143.14594,13.751994 C 141.38445,12.871744 139.52020,11.789900 137.50000,12.562500 z M 126.40625,53.343750 C 131.09445,54.266714 135.77718,55.221773 140.46875,56.125000 C 140.66311,57.490600 140.90400,59.768414 138.90019,59.717011 C 134.99279,58.970773 131.04202,57.882901 127.18750,56.875000 C 126.61048,55.955764 124.83534,54.556620 125.40625,53.625000 C 125.73497,53.577157 126.08499,53.292470 126.40625,53.343750 z M 166.53125,63.812500 C 164.90117,64.830649 168.72302,64.879550 169.60036,65.161786 C 170.82454,65.513571 173.80209,64.644903 171.50000,63.593750 C 169.78209,63.217030 168.21140,63.255613 166.53125,63.812500 z M 120.81250,69.187500 C 118.77488,70.497531 120.63987,72.049766 122.29985,70.780747 C 124.22011,70.547064 124.25797,68.584075 122.13849,68.857155 C 121.62590,68.786616 121.20364,68.805690 120.81250,69.187500 z M 162.78125,70.250000 C 165.04372,72.410337 164.50416,68.582957 162.78125,69.787913 C 162.78125,69.883882 162.78125,70.191942 162.78125,70.250000 z "
         style="fill:url(#linearGradient1184);fill-opacity:0.074380167;fill-rule:evenodd;stroke-width:1.0000000pt" />
      <path
         id="path1300"
         d="M 137.25000,10.312500 C 134.57328,10.811904 132.67255,13.050780 130.64866,14.715585 C 121.77957,23.451854 113.11785,32.437236 104.37500,41.281250 C 103.17019,43.288146 102.47259,45.456013 102.06250,47.750000 C 105.83476,49.628698 109.64657,51.368815 113.75481,52.377095 C 114.74672,53.000901 118.15181,53.211596 117.03125,54.625000 C 114.87625,55.770623 112.18432,56.545814 111.25000,59.062500 C 113.07397,62.261249 117.13309,62.448994 120.14188,63.972108 C 122.66750,64.970987 125.19313,65.969869 127.71875,66.968750 C 127.79709,69.608591 127.12737,68.724937 125.79671,67.542170 C 123.76150,66.508388 120.74167,65.559916 119.14266,67.799744 C 117.68910,68.685330 116.55779,70.940149 117.66673,72.361712 C 119.74129,74.610002 123.29896,73.558599 125.22361,71.631365 C 125.39044,71.451948 124.94524,74.329263 126.55554,74.625682 C 128.75187,75.888131 131.56113,75.535204 133.75000,76.781250 C 134.17453,78.637203 134.92263,80.738750 137.10053,81.029661 C 140.53970,82.420114 144.41944,81.397273 147.50485,79.584682 C 148.81540,78.872018 151.32795,78.343669 150.75195,76.374975 C 150.70713,75.080531 147.53803,74.300613 149.31250,73.093750 C 153.55943,71.203594 157.91230,69.209830 161.18750,65.843750 C 161.99115,63.731003 159.07145,62.849633 157.93750,61.562500 C 156.57653,60.417748 154.30116,59.195844 157.17010,58.407983 C 162.44672,56.428116 168.30037,55.651561 173.14000,52.536010 C 175.69933,51.724285 176.75286,48.825627 176.01594,46.382200 C 175.99204,43.921497 174.36450,41.884430 172.99509,39.973772 C 168.23708,34.553265 162.73310,29.839073 157.72691,24.648245 C 153.37676,20.454464 149.19589,15.998891 144.74248,11.964991 C 142.49218,10.519398 139.90204,10.047325 137.25000,10.312500 z M 140.40625,16.625000 C 144.38180,19.415210 148.26381,22.371245 152.21875,25.218750 C 151.00059,24.471219 149.71107,24.008458 148.28125,23.906250 C 148.08169,25.616789 147.84012,27.322499 147.62500,29.031250 C 145.77312,28.480352 143.67622,27.363820 142.02088,28.944411 C 140.79579,29.321785 138.71876,32.029330 138.02739,30.946881 C 137.09069,27.714729 136.15797,24.481420 135.21875,21.250000 C 133.79126,24.568262 132.38708,27.896549 130.96875,31.218750 C 128.56250,31.458333 126.15625,31.697917 123.75000,31.937500 C 123.73611,28.504117 126.40867,25.941624 128.50533,23.538181 C 131.60340,20.877921 134.84009,18.280137 138.37100,16.266120 C 139.05687,15.927768 139.72649,16.501380 140.40625,16.625000 z M 165.12500,61.937500 C 163.94994,62.683294 162.04675,64.163789 163.31250,65.625000 C 165.77599,67.237331 168.84980,67.346191 171.68759,67.438839 C 173.79767,67.380039 175.87709,64.882603 174.44068,62.966319 C 173.10190,60.663393 170.05340,61.177216 167.81605,61.201002 C 166.91904,61.446503 166.02202,61.692001 165.12500,61.937500 z M 162.03125,67.031250 C 160.83535,68.000188 160.29043,69.695123 160.76346,71.258236 C 161.16730,73.039050 163.22496,73.494707 164.78719,72.992478 C 167.13879,73.181332 168.09248,69.825149 166.13394,68.653373 C 164.96960,67.668728 163.65541,66.689296 162.03125,67.031250 z "
         style="fill:url(#linearGradient1185);fill-opacity:0.074380167;fill-rule:evenodd;stroke-width:1.0000000pt" />
      <path
         id="path1304"
         d="M 136.87500,9.5625000 C 131.65304,11.769127 128.14544,16.384624 124.15881,20.216605 C 117.35142,27.117414 110.49657,33.984328 103.71875,40.906250 C 102.85273,43.332808 101.99819,45.763562 101.12500,48.187500 C 105.93068,50.283305 110.76347,52.276496 115.75000,53.906250 C 115.44333,55.363555 112.99770,55.191635 112.24058,56.587946 C 110.89606,57.445273 110.01695,59.785906 111.89556,60.567820 C 114.86490,63.357428 118.93991,64.363020 122.62500,65.875000 C 119.72774,65.033632 117.80750,68.090788 116.68750,70.250000 C 116.01105,72.950420 119.11437,74.651083 121.43923,74.259441 C 122.88425,74.778519 124.87048,71.894366 125.06555,74.129447 C 127.21708,76.574392 131.35224,75.998123 133.59751,78.288768 C 134.32398,80.302303 135.99246,81.986172 138.23383,82.006618 C 140.25772,82.589257 142.23898,82.314480 144.19142,81.614260 C 146.47188,81.098710 148.64271,79.959926 150.63761,78.824244 C 152.14711,77.754911 151.81527,75.346631 150.43750,74.312500 C 150.23406,72.704926 152.73875,72.682794 153.75639,71.819616 C 156.49819,70.564020 158.90600,68.804050 161.21875,66.906250 C 160.19643,68.376408 159.81043,70.315970 160.38112,71.987759 C 161.34634,74.267655 164.22210,73.656108 166.15625,73.531250 C 168.08949,72.610730 168.83732,69.631414 166.87500,68.343750 C 164.02568,66.581529 166.47357,67.403459 168.27836,67.911665 C 170.51415,68.044548 173.31226,68.747610 174.83495,66.581402 C 176.52328,64.952843 175.46252,62.386049 173.84375,61.125000 C 171.82924,60.052772 169.41179,60.364713 167.22781,60.468857 C 165.26732,60.816302 163.77932,61.981088 162.56250,63.500000 C 161.07416,64.693238 164.27576,66.891706 162.51264,66.451187 C 161.23611,66.670932 162.80138,64.122782 161.27178,63.293106 C 160.27477,61.829766 158.59216,60.917429 157.34375,59.656250 C 163.37320,56.739900 170.41697,55.950383 175.81250,51.750000 C 177.79054,49.403625 176.89111,46.297658 176.31250,43.625000 C 172.71709,37.077334 166.72680,32.381991 161.58112,27.092054 C 156.10204,21.754721 150.65568,16.371055 145.15625,11.062500 C 142.76062,10.099303 140.31053,9.4347862 137.70606,9.5684113 C 137.43820,9.5943662 137.13013,9.4705862 136.87500,9.5625000 z M 144.00000,20.125000 C 145.41913,21.217458 146.85549,22.290152 148.28125,23.375000 C 146.97140,24.376925 147.43473,26.306660 146.96875,27.718750 C 145.01335,27.188020 142.88412,27.117042 141.28969,28.567875 C 140.30436,29.400862 138.46017,30.323076 138.31032,28.383898 C 137.43025,25.351664 136.59470,22.304201 135.68750,19.281250 C 137.21838,18.817776 138.78213,16.344334 140.28250,17.745803 C 141.52167,18.538869 142.76083,19.331934 144.00000,20.125000 z M 130.53125,30.406250 C 128.68750,30.593750 126.84375,30.781250 125.00000,30.968750 C 125.70615,27.451641 128.61722,24.990200 131.09307,22.632488 C 132.44877,21.648343 133.72082,20.531920 135.12500,19.625000 C 133.59375,23.218750 132.06250,26.812500 130.53125,30.406250 z "
         style="fill:url(#linearGradient1186);fill-opacity:0.074380167;fill-rule:evenodd;stroke-width:1.0000000pt" />
    </g>
    <path
       sodipodi:nodetypes="cccccccccccccccccccccccccccccccccccccccccc"
       id="path1217"
       d="M 80.179284,10.477395 C 76.071872,10.477397 71.936463,12.023766 68.789055,15.171170 L 12.901833,71.120976 C 9.8169488,74.205786 8.2067960,78.235407 8.1454736,82.260871 C 8.1446121,82.328426 8.1454736,82.443647 8.1454736,82.511205 L 8.2706402,82.511205 C 9.3413327,86.584913 36.976542,91.753648 40.063149,94.840190 C 44.724481,99.501555 22.196720,102.94587 26.857993,107.60726 C 31.519305,112.26857 55.052649,116.58910 59.714422,121.25050 C 64.375775,125.91185 50.171502,130.85825 54.832895,135.51958 C 59.494228,140.18098 75.129673,134.37569 72.293741,146.53430 C 78.588537,152.82910 91.725281,149.82509 100.51898,143.53029 C 105.18031,138.86896 91.601916,139.30474 96.263288,134.64341 C 100.92462,129.98203 112.69672,129.96011 122.61102,118.80973 C 118.62039,112.60334 105.55808,109.95303 110.21945,105.29166 C 114.88078,100.63034 123.89727,102.96940 143.45138,94.089185 C 152.99687,89.753968 152.24963,86.503375 152.21309,82.511205 C 152.21232,82.427200 152.21309,82.345519 152.21309,82.260871 L 152.15050,82.260871 C 152.08919,78.235411 150.54153,74.205792 147.45673,71.120976 L 91.506929,15.171170 C 88.359541,12.023770 84.286696,10.477395 80.179284,10.477395 z M 55.396148,97.719037 C 63.726205,99.879356 72.993837,102.67505 80.429619,102.72573 L 80.742537,106.10525 C 74.375184,105.44892 60.888413,102.34576 57.711744,100.72305 L 55.396148,97.719037 z M 142.19970,112.55136 C 140.92810,112.51062 139.72473,112.63811 138.82018,112.86428 C 137.11478,113.29042 128.82994,113.48675 129.49521,118.80973 C 136.81460,121.46994 148.12930,123.50728 149.45940,118.18390 C 150.45779,114.19244 146.01448,112.67361 142.19970,112.55136 z M 46.509266,123.37834 C 45.357747,123.24415 44.231180,123.38608 43.129748,123.94160 C 38.725159,126.16336 35.760495,131.09987 39.875398,133.14140 C 43.990718,135.18293 46.906979,132.85839 50.514622,130.32514 C 54.122685,127.79229 54.029841,127.29695 53.768973,126.31978 C 53.269525,126.45299 49.963846,123.78095 46.509266,123.37834 z M 126.99186,124.25452 C 123.66493,125.58497 123.70402,130.20696 126.36603,132.20264 C 129.02736,134.19874 132.35822,132.90766 133.68831,131.57680 C 135.01952,130.24635 133.64497,125.58501 126.99186,124.25452 z "
       style="fill:url(#linearGradient1391);fill-rule:evenodd;stroke-width:1.0000000pt" />
    <path
       sodipodi:nodetypes="ccccccccccccccccccccccccccccccccccccccccccccccccccccccccccc"
       id="path1269"
       d="M 9.4670366,75.887108 C 8.5562775,77.900380 8.0604677,80.051195 8.0276120,82.208059 C 8.0267536,82.275610 8.0276120,82.390843 8.0276120,82.458394 L 8.1527795,82.458394 C 9.1773208,86.356505 33.993628,91.229681 38.881364,94.349292 C 41.036670,93.067238 42.452323,91.724484 41.009209,90.281353 C 37.922601,87.194807 10.287395,82.026076 9.2167014,77.952369 L 9.0915338,77.952369 C 9.0915338,77.884800 9.0906755,77.769584 9.0915338,77.702035 C 9.1009841,77.081825 9.3843286,76.504032 9.4670366,75.887108 z M 152.03262,84.022986 C 150.93920,85.754100 148.83789,87.513653 144.39742,89.530348 C 124.84334,98.410552 115.82685,96.071505 111.16551,100.73282 C 109.75338,102.14495 110.25722,103.35264 111.35327,104.55042 C 116.28788,101.06124 125.17187,102.28421 143.33350,94.036374 C 151.58153,90.290405 152.05549,87.327483 152.03262,84.022986 z M 56.342210,93.160202 L 58.657805,96.164208 C 61.834472,97.786919 75.321242,100.89009 81.688598,101.54640 L 81.375680,98.166886 C 73.939898,98.116198 64.672266,95.320530 56.342210,93.160202 z M 28.742808,103.54909 C 26.658478,104.81065 25.321817,106.13608 26.740131,107.55444 C 31.401445,112.21575 54.934788,116.53629 59.596561,121.19768 C 59.801562,121.40266 59.774245,121.61746 59.909479,121.82352 C 61.357331,120.10039 62.336404,118.36757 60.660484,116.69166 C 56.168389,112.19993 34.510084,108.01772 28.742808,103.54909 z M 132.00585,114.62640 C 130.40487,115.45803 129.11157,116.63033 129.37734,118.75691 C 136.69672,121.41711 148.01142,123.45445 149.34152,118.13108 C 149.60037,117.09625 149.45810,116.22376 149.09119,115.50256 C 145.92915,118.05481 138.10673,116.62980 132.00585,114.62640 z M 120.49048,116.87941 C 111.31936,125.03666 101.40156,125.89232 97.209349,130.08456 C 95.523029,131.77087 96.474435,132.69186 97.835186,133.52666 C 103.18424,129.94361 113.48645,128.88654 122.49316,118.75691 C 122.03152,118.03896 121.15342,117.51081 120.49048,116.87941 z M 125.68491,125.14045 C 123.75991,127.01125 124.00547,130.46849 126.24817,132.14982 C 128.90949,134.14590 132.24034,132.85482 133.57044,131.52399 C 134.25452,130.84029 134.16385,129.30783 133.06978,127.76897 C 131.44678,128.60474 129.31341,129.14486 127.31209,127.64380 C 126.46636,127.00977 125.97733,126.11487 125.68491,125.14045 z M 51.898768,125.39078 C 51.675663,125.55325 51.720990,125.58355 51.460682,125.76629 C 47.853039,128.29954 44.936779,130.62411 40.821457,128.58255 C 39.960970,128.15565 39.612343,127.52159 39.319449,126.89279 C 37.489591,129.14932 37.042070,131.74136 39.757535,133.08858 C 43.872860,135.13010 46.789117,132.80555 50.396761,130.27231 C 54.004827,127.73945 53.911980,127.24411 53.651111,126.26696 C 53.479747,126.31266 52.623504,125.80058 51.898768,125.39078 z M 55.466038,130.33489 C 54.018190,132.05801 53.039099,133.79083 54.715034,135.46674 C 59.376368,140.12814 75.011811,134.32286 72.175880,146.48147 C 78.470677,152.77627 91.607425,149.77226 100.40112,143.47745 C 102.11826,141.76030 101.12235,140.81615 99.712697,139.97277 C 90.997581,145.48239 79.149006,147.88469 73.239802,141.97544 C 76.075734,129.81685 60.440287,135.62215 55.778956,130.96074 C 55.573952,130.75574 55.601273,130.54094 55.466038,130.33489 z "
       style="fill:url(#linearGradient1388);fill-rule:evenodd;stroke-width:1.0000000pt" />
    <path
       sodipodi:nodetypes="cccccc"
       id="path1271"
       d="M 107.96710,37.546131 L 141.84219,73.943858 C 141.84219,73.943858 151.93266,84.755065 144.00446,89.079546 C 136.07623,93.404028 111.93122,99.890753 111.93122,99.890753 L 68.046116,36.696248 L 107.96710,37.546131 z "
       style="fill:url(#linearGradient1385);fill-opacity:0.75000000;fill-rule:evenodd;stroke-width:1.0000000pt" />
    <path
       sodipodi:nodetypes="ccccccccccczz"
       id="path1317"
       d="M 81.659244,16.688968 C 86.300457,16.723269 105.79294,35.683190 111.37192,39.594593 C 116.95092,43.505997 115.64251,46.071354 115.64251,46.315876 L 99.996610,38.743251 L 98.432018,50.571566 L 89.795470,46.503627 L 76.527723,55.390508 L 71.395862,37.867080 L 64.887159,53.200080 L 46.550139,55.015006 L 46.737890,46.879129 L 73.824382,20.210863 C 75.789568,18.276020 77.103132,16.654668 81.659244,16.688968 z "
       style="fill:url(#linearGradient1379);fill-rule:evenodd;stroke-width:1.0000000pt" />
  </g>
</svg>
