<?xml version="1.0" encoding="UTF-8" standalone="no"?>
<!-- Created with Inkscape (http://www.inkscape.org/) -->
<svg
   xmlns:dc="http://purl.org/dc/elements/1.1/"
   xmlns:cc="http://web.resource.org/cc/"
   xmlns:rdf="http://www.w3.org/1999/02/22-rdf-syntax-ns#"
   xmlns:svg="http://www.w3.org/2000/svg"
   xmlns="http://www.w3.org/2000/svg"
   xmlns:xlink="http://www.w3.org/1999/xlink"
   xmlns:sodipodi="http://inkscape.sourceforge.net/DTD/sodipodi-0.dtd"
   xmlns:inkscape="http://www.inkscape.org/namespaces/inkscape"
   id="svg1408"
   sodipodi:version="0.32"
   inkscape:version="0.41"
   width="256.00000px"
   height="256.00000px"
   sodipodi:docbase="/usr/share/icons/dlg-etiquette/scalable/apps"
   sodipodi:docname="limewire.svg">
  <metadata
     id="metadata1413">
    <rdf:RDF
       id="RDF1415">
      <cc:Work
         rdf:about=""
         id="Work1417">
        <dc:format
           id="format1419">image/svg+xml</dc:format>
        <dc:type
           id="type1421"
           rdf:resource="http://purl.org/dc/dcmitype/StillImage" />
      </cc:Work>
    </rdf:RDF>
  </metadata>
  <defs
     id="defs1411">
    <linearGradient
       id="linearGradient4411">
      <stop
         id="stop4413"
         offset="0.0000000"
         style="stop-color:#000000;stop-opacity:0.18750000;" />
      <stop
         id="stop4415"
         offset="1"
         style="stop-color:#000000;stop-opacity:0;" />
    </linearGradient>
    <linearGradient
       id="linearGradient6873">
      <stop
         style="stop-color:#ffffff;stop-opacity:1.0000000;"
         offset="0.0000000"
         id="stop6875" />
      <stop
         style="stop-color:#ffffff;stop-opacity:0.0000000;"
         offset="1.0000000"
         id="stop6877" />
    </linearGradient>
    <linearGradient
       id="linearGradient6075">
      <stop
         style="stop-color:#ffffff;stop-opacity:1.0000000;"
         offset="0.0000000"
         id="stop6077" />
      <stop
         style="stop-color:#f7fcf0;stop-opacity:1.0000000;"
         offset="0.80291969"
         id="stop6087" />
      <stop
         style="stop-color:#e6faca;stop-opacity:1.0000000;"
         offset="1.0000000"
         id="stop6079" />
    </linearGradient>
    <linearGradient
       id="linearGradient5309">
      <stop
         style="stop-color:#87dc00;stop-opacity:1.0000000;"
         offset="0.0000000"
         id="stop5311" />
      <stop
         style="stop-color:#5eca00;stop-opacity:1.0000000;"
         offset="0.78102189"
         id="stop11207" />
      <stop
         style="stop-color:#35b900;stop-opacity:1.0000000;"
         offset="1.0000000"
         id="stop5313" />
    </linearGradient>
    <linearGradient
       id="linearGradient4543">
      <stop
         style="stop-color:#c7ff00;stop-opacity:1.0000000;"
         offset="0.0000000"
         id="stop4545" />
      <stop
         style="stop-color:#a0f500;stop-opacity:0.50588235;"
         offset="1.0000000"
         id="stop6090" />
      <stop
         style="stop-color:#7aec00;stop-opacity:0.016483517;"
         offset="1.0000000"
         id="stop4547" />
    </linearGradient>
    <radialGradient
       inkscape:collect="always"
       xlink:href="#linearGradient4543"
       id="radialGradient4549"
       gradientTransform="matrix(1.444585,0.000000,0.000000,0.738587,-13.29133,3.858126)"
       cx="94.833065"
       cy="137.63778"
       fx="94.833065"
       fy="137.63778"
       r="72.864662"
       gradientUnits="userSpaceOnUse" />
    <linearGradient
       inkscape:collect="always"
       xlink:href="#linearGradient5309"
       id="linearGradient5315"
       gradientTransform="scale(1.464151,0.682990)"
       x1="6.4884033"
       y1="242.75160"
       x2="162.46620"
       y2="242.75160"
       gradientUnits="userSpaceOnUse" />
    <radialGradient
       inkscape:collect="always"
       xlink:href="#linearGradient6075"
       id="radialGradient6081"
       gradientTransform="scale(1.343271,0.744452)"
       cx="92.090997"
       cy="141.73603"
       fx="92.090997"
       fy="141.73603"
       r="85.570532"
       gradientUnits="userSpaceOnUse" />
    <radialGradient
       inkscape:collect="always"
       xlink:href="#linearGradient6075"
       id="radialGradient6097"
       gradientUnits="userSpaceOnUse"
       gradientTransform="scale(1.343271,0.744452)"
       cx="92.090997"
       cy="141.73603"
       fx="92.090997"
       fy="141.73603"
       r="85.570532" />
    <linearGradient
       inkscape:collect="always"
       xlink:href="#linearGradient5309"
       id="linearGradient6099"
       gradientUnits="userSpaceOnUse"
       gradientTransform="scale(1.464151,0.682990)"
       x1="6.4884033"
       y1="242.75160"
       x2="162.46620"
       y2="242.75160" />
    <radialGradient
       inkscape:collect="always"
       xlink:href="#linearGradient4543"
       id="radialGradient6101"
       gradientUnits="userSpaceOnUse"
       gradientTransform="matrix(1.444585,1.519236e-17,-5.665502e-18,0.738587,-13.29133,3.858126)"
       cx="94.833065"
       cy="137.63778"
       fx="94.833065"
       fy="137.63778"
       r="72.864662" />
    <radialGradient
       inkscape:collect="always"
       xlink:href="#linearGradient4543"
       id="radialGradient6105"
       gradientUnits="userSpaceOnUse"
       gradientTransform="matrix(1.006608,1.036130,-0.529752,0.514659,117.5008,-56.53492)"
       cx="94.833065"
       cy="137.63778"
       fx="94.833065"
       fy="137.63778"
       r="72.864662" />
    <linearGradient
       inkscape:collect="always"
       xlink:href="#linearGradient5309"
       id="linearGradient6108"
       gradientUnits="userSpaceOnUse"
       gradientTransform="matrix(1.020242,1.050164,-0.489875,0.475918,129.5296,-49.69010)"
       x1="6.4884033"
       y1="242.75160"
       x2="162.46620"
       y2="242.75160" />
    <radialGradient
       inkscape:collect="always"
       xlink:href="#linearGradient6075"
       id="radialGradient6111"
       gradientUnits="userSpaceOnUse"
       gradientTransform="matrix(0.936011,0.963462,-0.533959,0.518745,129.5296,-49.69010)"
       cx="92.090997"
       cy="141.73603"
       fx="92.090997"
       fy="141.73603"
       r="85.570532" />
    <linearGradient
       inkscape:collect="always"
       xlink:href="#linearGradient6873"
       id="linearGradient6879"
       gradientUnits="userSpaceOnUse"
       gradientTransform="matrix(1.020242,1.050164,-0.489875,0.475918,0.000000,0.000000)"
       x1="44.773224"
       y1="-12.614342"
       x2="122.67918"
       y2="43.407391" />
    <radialGradient
       r="156.48903"
       fy="64.974648"
       fx="132.65741"
       cy="64.974648"
       cx="132.65741"
       gradientTransform="matrix(0.927229,-7.076503e-2,7.257486e-2,0.929448,2.291920,17.81851)"
       gradientUnits="userSpaceOnUse"
       id="radialGradient2885"
       xlink:href="#linearGradient5309"
       inkscape:collect="always" />
    <linearGradient
       y2="43.407391"
       x2="122.67918"
       y1="-12.614342"
       x1="44.773224"
       gradientTransform="matrix(1.204117,1.050022,-0.495435,0.555310,-20.44757,4.805461)"
       gradientUnits="userSpaceOnUse"
       id="linearGradient2887"
       xlink:href="#linearGradient6873"
       inkscape:collect="always" />
    <radialGradient
       r="85.570532"
       fy="141.73603"
       fx="92.090997"
       cy="141.73603"
       cx="92.090997"
       gradientTransform="matrix(1.104705,0.963332,-0.540020,0.605283,116.9794,-59.71441)"
       gradientUnits="userSpaceOnUse"
       id="radialGradient2889"
       xlink:href="#linearGradient6075"
       inkscape:collect="always" />
    <radialGradient
       r="85.570534"
       fy="141.73602"
       fx="92.090996"
       cy="141.73602"
       cx="92.090996"
       gradientTransform="matrix(0.974993,0.848088,-0.439468,0.491239,114.6734,-32.93771)"
       gradientUnits="userSpaceOnUse"
       id="radialGradient2891"
       xlink:href="#linearGradient4543"
       inkscape:collect="always" />
    <radialGradient
       gradientUnits="userSpaceOnUse"
       r="34.790039"
       fy="582.29535"
       fx="41.940929"
       cy="582.29535"
       cx="41.940929"
       gradientTransform="scale(2.593698,0.385550)"
       id="radialGradient4417"
       xlink:href="#linearGradient4411"
       inkscape:collect="always" />
  </defs>
  <sodipodi:namedview
     id="base"
     pagecolor="#ffffff"
     bordercolor="#666666"
     borderopacity="1.0"
     inkscape:pageopacity="0.0"
     inkscape:pageshadow="2"
     inkscape:window-width="1278"
     inkscape:window-height="945"
     inkscape:cy="7.7455375"
     inkscape:cx="189.81197"
     inkscape:zoom="0.76200000"
     inkscape:window-x="0"
     inkscape:window-y="27"
     inkscape:current-layer="svg1408" />
  <path
     transform="matrix(1.236486,0.000000,0.000000,1.227273,-3.174431,-45.11811)"
     d="M 202.09974 224.50394 A 97.112862 14.435696 0 1 1  7.8740158,224.50394 A 97.112862 14.435696 0 1 1  202.09974 224.50394 z"
     sodipodi:ry="14.435696"
     sodipodi:rx="97.112862"
     sodipodi:cy="224.50394"
     sodipodi:cx="104.98688"
     id="path2893"
     style="color:#000000;fill:url(#radialGradient4417);fill-opacity:1.0000000;fill-rule:evenodd;stroke:none;stroke-width:10.025000;stroke-linecap:round;stroke-linejoin:round;stroke-miterlimit:4.0000000;stroke-dashoffset:0.0000000;stroke-opacity:0.80859375;marker:none;marker-start:none;marker-mid:none;marker-end:none;visibility:visible;display:inline;overflow:visible"
     sodipodi:type="arc" />
  <g
     transform="matrix(0.891313,0.000000,0.000000,0.869857,26.12397,21.30811)"
     id="g2860">
    <path
       sodipodi:nodetypes="ccc"
       style="fill:none;fill-opacity:1.0000000;fill-rule:evenodd;stroke:#000000;stroke-width:11.775000;stroke-linecap:round;stroke-linejoin:round;stroke-miterlimit:4.0000000;stroke-dashoffset:0.0000000;stroke-opacity:1.0000000"
       d="M 43.162961,38.592991 C 2.6299379,88.962440 9.4412333,163.19036 59.819517,207.12153 C 110.16201,251.02151 185.39065,248.42958 230.88784,202.47469"
       id="path4379" />
    <path
       style="fill:url(#radialGradient2885);fill-opacity:1.0000000;fill-rule:evenodd;stroke:none;stroke-width:1.8750000;stroke-linecap:butt;stroke-linejoin:round;stroke-miterlimit:4.0000000;stroke-dashoffset:0.0000000;stroke-opacity:1.0000000"
       d="M 230.88784,202.47469 C 229.17853,203.75956 227.42374,204.97805 225.50286,206.00082 C 223.36924,207.13683 221.11163,208.09769 218.74380,208.91599 C 216.37598,209.73428 213.87372,210.40801 211.29532,210.91373 C 208.71695,211.41945 206.04215,211.76439 203.27684,211.96264 C 200.51154,212.16092 197.64263,212.18919 194.71403,212.08516 C 191.78543,211.98112 188.80064,211.74666 185.73238,211.34549 C 182.66411,210.94431 179.51311,210.38900 176.32885,209.69583 C 173.14458,209.00263 169.92822,208.15502 166.65158,207.17499 C 163.37494,206.19495 160.04896,205.09257 156.70359,203.83081 C 153.35824,202.56906 149.96906,201.14777 146.57860,199.60947 C 143.18815,198.07115 139.81702,196.43275 136.40511,194.62303 C 132.99321,192.81329 129.56107,190.82942 126.15137,188.75342 C 122.74167,186.67743 119.35543,184.47226 115.97154,182.13513 C 112.58766,179.79800 109.22273,177.33585 105.88832,174.74274 C 102.55391,172.14963 99.237067,169.43960 95.975775,166.59567 C 92.714476,163.75173 89.580638,160.83659 86.561932,157.88961 C 83.543233,154.94265 80.652136,151.94938 77.884153,148.92193 C 75.116168,145.89447 72.454634,142.82582 69.945483,139.74042 C 67.436334,136.65502 65.068239,133.58094 62.826045,130.46014 C 60.583845,127.33935 58.467272,124.19233 56.500136,121.05869 C 54.533006,117.92504 52.683482,114.77804 50.999530,111.65410 C 49.315573,108.53017 47.819666,105.42773 46.427010,102.33603 C 45.034361,99.244318 43.782126,96.195195 42.688888,93.158280 C 41.595652,90.121366 40.644929,87.099858 39.859223,84.140278 C 39.073515,81.180696 38.465538,78.282173 37.995479,75.422475 C 37.525414,72.562784 37.195587,69.745142 37.049290,67.007872 C 36.902987,64.270610 36.915196,61.603820 37.100784,59.011522 C 37.286370,56.419222 37.650082,53.880609 38.175663,51.455835 C 38.701242,49.031059 39.383628,46.696562 40.257321,44.461852 C 41.062200,42.403153 42.055152,40.469208 43.162961,38.592991 C 2.6299380,88.962440 9.4412330,163.19036 59.819517,207.12153 C 110.16201,251.02151 185.39065,248.42958 230.88784,202.47469 z "
       id="path2216" />
    <path
       style="fill:url(#linearGradient2887);fill-opacity:1.0000000;fill-rule:evenodd;stroke:none;stroke-width:1.8750000;stroke-linecap:butt;stroke-linejoin:round;stroke-miterlimit:4.0000000;stroke-dashoffset:0.0000000;stroke-opacity:1.0000000"
       d="M 230.88784,202.47469 C 229.17853,203.75956 227.42374,204.97805 225.50286,206.00082 C 223.36924,207.13683 221.11163,208.09769 218.74380,208.91599 C 216.37598,209.73428 213.87372,210.40801 211.29532,210.91373 C 208.71695,211.41945 206.04215,211.76439 203.27684,211.96264 C 200.51154,212.16092 197.64263,212.18919 194.71403,212.08516 C 191.78543,211.98112 188.80064,211.74666 185.73238,211.34549 C 182.66411,210.94431 179.51311,210.38900 176.32885,209.69583 C 173.14458,209.00263 169.92822,208.15502 166.65158,207.17499 C 163.37494,206.19495 160.04896,205.09257 156.70359,203.83081 C 153.35824,202.56906 149.96906,201.14777 146.57860,199.60947 C 143.18815,198.07115 139.81702,196.43275 136.40511,194.62303 C 132.99321,192.81329 129.56107,190.82942 126.15137,188.75342 C 122.74167,186.67743 119.35543,184.47226 115.97154,182.13513 C 112.58766,179.79800 109.22273,177.33585 105.88832,174.74274 C 102.55391,172.14963 99.237067,169.43960 95.975775,166.59567 C 92.714476,163.75173 89.580638,160.83659 86.561932,157.88961 C 83.543233,154.94265 80.652136,151.94938 77.884153,148.92193 C 75.116168,145.89447 72.454634,142.82582 69.945483,139.74042 C 67.436334,136.65502 65.068239,133.58094 62.826045,130.46014 C 60.583845,127.33935 58.467272,124.19233 56.500136,121.05869 C 54.533006,117.92504 52.683482,114.77804 50.999530,111.65410 C 49.315573,108.53017 47.819666,105.42773 46.427010,102.33603 C 45.034361,99.244318 43.782126,96.195195 42.688888,93.158280 C 41.595652,90.121366 40.644929,87.099858 39.859223,84.140278 C 39.073515,81.180696 38.465538,78.282173 37.995479,75.422475 C 37.525414,72.562784 37.195587,69.745142 37.049290,67.007872 C 36.902987,64.270610 36.915196,61.603820 37.100784,59.011522 C 37.286370,56.419222 37.650082,53.880609 38.175663,51.455835 C 38.701242,49.031059 39.383628,46.696562 40.257321,44.461852 C 41.062200,42.403153 42.055152,40.469208 43.162961,38.592991 C 22.896453,63.777712 14.466021,94.927055 17.399499,125.27161 C 18.132872,132.85775 19.576484,140.39360 21.722968,147.77337 C 23.869447,155.15314 185.39065,248.42958 230.88784,202.47469 z "
       id="path6113"
       sodipodi:nodetypes="cccccccccccccccccccccccccccccccssc" />
    <path
       style="fill:none;fill-opacity:1.0000000;fill-rule:evenodd;stroke:#000000;stroke-width:10.025000;stroke-linecap:round;stroke-linejoin:round;stroke-miterlimit:4.0000000;stroke-dashoffset:0.0000000;stroke-opacity:1.0000000"
       d="M 188.39579,63.007449 C 191.65708,65.851385 194.81629,68.743463 197.83498,71.690436 C 200.85369,74.637409 203.73563,77.622695 206.50362,80.650152 C 209.27159,83.677615 211.91111,86.727044 214.42025,89.812442 C 216.92940,92.897841 219.31590,96.033152 221.55811,99.153949 C 223.80029,102.27474 225.88827,105.39682 227.85540,108.53047 C 229.82253,111.66410 231.65087,114.79263 233.33482,117.91657 C 235.01879,121.04053 236.57285,124.14848 237.96550,127.24020 C 239.35816,130.33190 240.60062,133.41768 241.69386,136.45459 C 242.78710,139.49150 243.72600,142.50271 244.51169,145.46228 C 245.29740,148.42186 245.91806,151.33145 246.38814,154.19115 C 246.85819,157.05084 247.17276,159.85517 247.31905,162.59244 C 247.46534,165.32970 247.45918,168.00175 247.27358,170.59403 C 247.08799,173.18634 246.74640,175.69907 246.22083,178.12385 C 245.69525,180.54863 244.98095,182.90046 244.10726,185.13518 C 243.23357,187.36988 242.17724,189.48300 240.94731,191.50510 C 239.71738,193.52718 238.30849,195.42330 236.71422,197.21025 C 235.11995,198.99719 233.37030,200.64134 231.49455,202.10025 C 229.61879,203.55917 227.63003,204.85917 225.49642,205.99521 C 223.36281,207.13123 221.11443,208.10013 218.74662,208.91843 C 216.37878,209.73673 213.87706,210.41093 211.29867,210.91664 C 208.72029,211.42236 206.03947,211.76205 203.27415,211.96032 C 200.50884,212.15856 197.65523,212.20017 194.72663,212.09613 C 191.79801,211.99210 188.80053,211.74658 185.73228,211.34539 C 182.66402,210.94422 179.52484,210.39923 176.34057,209.70605 C 173.15631,209.01287 169.92703,208.15400 166.65040,207.17397 C 163.37375,206.19393 160.03799,205.08300 156.69262,203.82124 C 153.34726,202.55950 149.97928,201.15670 146.58883,199.61838 C 143.19837,198.08007 139.80446,196.42177 136.39255,194.61206 C 132.98063,192.80232 129.55882,190.82745 126.14912,188.75146 C 122.73939,186.67546 119.34951,184.46709 115.96563,182.12998 C 112.58175,179.79284 109.22597,177.33867 105.89155,174.74555 C 102.55714,172.15244 99.237609,169.44007 95.976304,166.59614 C 92.715004,163.75219 89.578483,160.83470 86.559776,157.88773 C 83.541071,154.94078 80.659125,151.95549 77.891148,148.92803 C 75.123158,145.90056 72.456887,142.82780 69.947736,139.74239 C 67.438585,136.65699 65.056193,133.57043 62.813994,130.44964 C 60.571799,127.32883 58.457051,124.18342 56.489919,121.04978 C 54.522783,117.91613 52.694445,114.78760 51.010487,111.66367 C 49.326536,108.53972 47.821911,105.42970 46.429262,102.33799 C 45.036614,99.246282 43.771473,96.185907 42.678235,93.148991 C 41.584997,90.112076 40.646109,87.100879 39.860396,84.141305 C 39.074690,81.181724 38.454023,78.272133 37.983966,75.412436 C 37.513901,72.552745 37.199345,69.748413 37.053042,67.011150 C 36.906745,64.273881 36.912929,61.601845 37.098516,59.009546 C 37.284103,56.417247 37.648347,53.879107 38.173933,51.454326 C 38.699512,49.029550 39.391147,46.703119 40.264840,44.468408 C 41.138533,42.233697 42.194861,40.120596 43.424783,38.098496 C 44.654706,36.076398 46.059502,34.131525 47.653768,32.344585 C 49.248036,30.557645 51.001790,28.962247 52.877547,27.503334 C 54.753303,26.044423 56.742072,24.744419 58.875676,23.608388 C 61.009281,22.472357 63.280338,21.478047 65.648154,20.659751 C 68.015969,19.841453 70.495039,19.192655 73.073427,18.686945 C 75.651812,18.181236 78.332624,17.841545 81.097939,17.643275 C 83.863255,17.445006 86.716871,17.403425 89.645477,17.507452 C 92.574087,17.611480 95.571559,17.857011 98.639819,18.258187 C 101.70807,18.659364 104.84725,19.204357 108.03151,19.897538 C 111.21579,20.590716 114.46773,21.424178 117.74437,22.404213 C 121.02100,23.384249 124.30733,24.497239 127.65269,25.758986 C 130.99806,27.020732 134.36603,28.423544 137.75649,29.961855 C 141.14694,31.500165 144.56765,33.181801 147.97955,34.991530 C 151.39145,36.801259 154.80917,38.727373 158.21888,40.803374 C 161.62860,42.879376 165.04526,45.111077 168.42914,47.448205 C 171.81301,49.785331 175.16880,52.239520 178.50321,54.832621 C 181.83763,57.425733 185.13447,60.163505 188.39579,63.007449 z "
       id="path5897" />
    <path
       style="fill:url(#radialGradient2889);fill-opacity:1.0000000;fill-rule:evenodd;stroke:none;stroke-width:1.8750000;stroke-linecap:butt;stroke-linejoin:round;stroke-miterlimit:4.0000000;stroke-dashoffset:0.0000000;stroke-opacity:1.0000000"
       d="M 188.39579,63.007449 C 191.65708,65.851385 194.81629,68.743463 197.83498,71.690436 C 200.85369,74.637409 203.73563,77.622695 206.50362,80.650152 C 209.27159,83.677615 211.91111,86.727044 214.42025,89.812442 C 216.92940,92.897841 219.31590,96.033152 221.55811,99.153949 C 223.80029,102.27474 225.88827,105.39682 227.85540,108.53047 C 229.82253,111.66410 231.65087,114.79263 233.33482,117.91657 C 235.01879,121.04053 236.57285,124.14848 237.96550,127.24020 C 239.35816,130.33190 240.60062,133.41768 241.69386,136.45459 C 242.78710,139.49150 243.72600,142.50271 244.51169,145.46228 C 245.29740,148.42186 245.91806,151.33145 246.38814,154.19115 C 246.85819,157.05084 247.17276,159.85517 247.31905,162.59244 C 247.46534,165.32970 247.45918,168.00175 247.27358,170.59403 C 247.08799,173.18634 246.74640,175.69907 246.22083,178.12385 C 245.69525,180.54863 244.98095,182.90046 244.10726,185.13518 C 243.23357,187.36988 242.17724,189.48300 240.94731,191.50510 C 239.71738,193.52718 238.30849,195.42330 236.71422,197.21025 C 235.11995,198.99719 233.37030,200.64134 231.49455,202.10025 C 229.61879,203.55917 227.63003,204.85917 225.49642,205.99521 C 223.36281,207.13123 221.11443,208.10013 218.74662,208.91843 C 216.37878,209.73673 213.87706,210.41093 211.29867,210.91664 C 208.72029,211.42236 206.03947,211.76205 203.27415,211.96032 C 200.50884,212.15856 197.65523,212.20017 194.72663,212.09613 C 191.79801,211.99210 188.80053,211.74658 185.73228,211.34539 C 182.66402,210.94422 179.52484,210.39923 176.34057,209.70605 C 173.15631,209.01287 169.92703,208.15400 166.65040,207.17397 C 163.37375,206.19393 160.03799,205.08300 156.69262,203.82124 C 153.34726,202.55950 149.97928,201.15670 146.58883,199.61838 C 143.19837,198.08007 139.80446,196.42177 136.39255,194.61206 C 132.98063,192.80232 129.55882,190.82745 126.14912,188.75146 C 122.73939,186.67546 119.34951,184.46709 115.96563,182.12998 C 112.58175,179.79284 109.22597,177.33867 105.89155,174.74555 C 102.55714,172.15244 99.237609,169.44007 95.976304,166.59614 C 92.715004,163.75219 89.578483,160.83470 86.559776,157.88773 C 83.541071,154.94078 80.659125,151.95549 77.891148,148.92803 C 75.123158,145.90056 72.456887,142.82780 69.947736,139.74239 C 67.438585,136.65699 65.056193,133.57043 62.813994,130.44964 C 60.571799,127.32883 58.457051,124.18342 56.489919,121.04978 C 54.522783,117.91613 52.694445,114.78760 51.010487,111.66367 C 49.326536,108.53972 47.821911,105.42970 46.429262,102.33799 C 45.036614,99.246282 43.771473,96.185907 42.678235,93.148991 C 41.584997,90.112076 40.646109,87.100879 39.860396,84.141305 C 39.074690,81.181724 38.454023,78.272133 37.983966,75.412436 C 37.513901,72.552745 37.199345,69.748413 37.053042,67.011150 C 36.906745,64.273881 36.912929,61.601845 37.098516,59.009546 C 37.284103,56.417247 37.648347,53.879107 38.173933,51.454326 C 38.699512,49.029550 39.391147,46.703119 40.264840,44.468408 C 41.138533,42.233697 42.194861,40.120596 43.424783,38.098496 C 44.654706,36.076398 46.059502,34.131525 47.653768,32.344585 C 49.248036,30.557645 51.001790,28.962247 52.877547,27.503334 C 54.753303,26.044423 56.742072,24.744419 58.875676,23.608388 C 61.009281,22.472357 63.280338,21.478047 65.648154,20.659751 C 68.015969,19.841453 70.495039,19.192655 73.073427,18.686945 C 75.651812,18.181236 78.332624,17.841545 81.097939,17.643275 C 83.863255,17.445006 86.716871,17.403425 89.645477,17.507452 C 92.574087,17.611480 95.571559,17.857011 98.639819,18.258187 C 101.70807,18.659364 104.84725,19.204357 108.03151,19.897538 C 111.21579,20.590716 114.46773,21.424178 117.74437,22.404213 C 121.02100,23.384249 124.30733,24.497239 127.65269,25.758986 C 130.99806,27.020732 134.36603,28.423544 137.75649,29.961855 C 141.14694,31.500165 144.56765,33.181801 147.97955,34.991530 C 151.39145,36.801259 154.80917,38.727373 158.21888,40.803374 C 161.62860,42.879376 165.04526,45.111077 168.42914,47.448205 C 171.81301,49.785331 175.16880,52.239520 178.50321,54.832621 C 181.83763,57.425733 185.13447,60.163505 188.39579,63.007449 z "
       id="path2982" />
    <path
       style="fill:url(#radialGradient2891);fill-opacity:1.0000000;fill-rule:evenodd;stroke:none;stroke-width:1.8750000;stroke-linecap:butt;stroke-linejoin:round;stroke-miterlimit:4.0000000;stroke-dashoffset:0.0000000;stroke-opacity:1.0000000"
       d="M 175.84213,69.496963 C 174.25778,68.179456 172.68889,66.811387 171.08686,65.557394 C 168.15483,63.262341 165.20736,61.082643 162.24200,59.001374 C 159.27662,56.920094 156.27817,54.910383 153.29979,53.048021 C 150.32141,51.185661 147.34579,49.470395 144.37473,47.832076 C 141.40368,46.193758 138.42275,44.659106 135.47935,43.249962 C 132.53594,41.840817 129.61706,40.529687 126.72164,39.354843 C 124.49872,38.452875 122.33341,37.689673 120.15660,36.930877 L 144.24447,104.37645 L 175.84213,69.496963 z M 182.12346,74.877436 L 152.42272,110.90222 L 220.46139,121.33051 C 220.30014,121.04556 220.16344,120.76905 219.99967,120.48402 C 218.45632,117.79785 216.78428,115.12226 214.99918,112.41836 C 213.21407,109.71447 211.32897,107.00602 209.30982,104.30366 C 207.29065,101.60130 205.16133,98.884277 202.91584,96.202708 C 200.67034,93.521131 198.31012,90.857410 195.84598,88.215872 C 193.38182,85.574332 190.81985,82.962984 188.14474,80.380732 C 186.21420,78.517208 184.16513,76.697656 182.12346,74.877436 z M 224.95196,130.03092 L 159.20007,122.25666 L 229.21353,182.29384 C 230.09381,180.74931 230.86811,179.14663 231.48408,177.43859 C 232.15176,175.58714 232.69029,173.63491 233.05465,171.61174 C 233.41900,169.58858 233.62563,167.47886 233.69437,165.30322 C 233.76312,163.12759 233.68917,160.87822 233.47000,158.56939 C 233.25081,156.26053 232.86519,153.89586 232.36579,151.47304 C 231.86636,149.05022 231.23943,146.56608 230.46748,144.04855 C 229.69554,141.53103 228.79935,138.99247 227.76257,136.39948 C 226.92660,134.30874 225.95420,132.16633 224.95196,130.03092 z M 110.75314,34.050437 C 110.43910,33.968469 110.10973,33.854741 109.79727,33.775913 C 107.05881,33.085054 104.36161,32.504857 101.73213,32.063687 C 99.102635,31.622517 96.539882,31.309138 94.039695,31.122784 C 91.539512,30.936431 89.111775,30.876406 86.761229,30.949995 C 84.410681,31.023588 82.140818,31.222238 79.960237,31.560903 C 77.779655,31.899570 75.671507,32.384217 73.681221,32.993089 C 71.690936,33.601958 69.786354,34.355933 68.006696,35.240136 C 66.227039,36.124338 64.590124,37.149762 63.041429,38.314419 C 61.828858,39.226308 60.738680,40.284912 59.672687,41.367164 L 131.46300,99.214122 L 110.75314,34.050437 z M 224.68170,188.20730 L 152.82788,130.34476 L 173.60124,195.52403 C 173.92375,195.60891 174.25808,195.73629 174.57937,195.81735 C 177.31783,196.50820 180.01502,197.08840 182.64451,197.52957 C 185.27398,197.97074 187.83675,198.28411 190.33694,198.47047 C 192.83713,198.65683 195.26488,198.71684 197.61541,198.64326 C 199.96597,198.56966 202.23583,198.37104 204.41640,198.03236 C 206.59700,197.69369 208.70511,197.20905 210.69542,196.60017 C 212.68571,195.99130 214.57128,195.25933 216.35094,194.37512 C 218.13059,193.49093 219.78650,192.44351 221.33521,191.27884 C 222.54756,190.36711 223.62177,189.29435 224.68170,188.20730 z M 55.163107,47.299419 C 54.276835,48.851185 53.492721,50.459732 52.873549,52.176665 C 52.205869,54.028108 51.686349,55.958353 51.321990,57.981515 C 50.957623,60.004683 50.751004,62.114408 50.682267,64.290041 C 50.613523,66.465679 50.687442,68.715025 50.906634,71.023871 C 51.125828,73.332718 51.492426,75.719399 51.991844,78.142218 C 52.491260,80.565035 53.137206,83.027178 53.909157,85.544713 C 54.681109,88.062248 55.558274,90.622779 56.595065,93.215774 C 57.430435,95.305040 58.432687,97.417532 59.443684,99.540344 L 125.17657,107.33660 L 55.163107,47.299419 z M 140.10667,125.15723 L 108.51226,160.07751 C 110.10921,161.39558 111.69917,162.75393 113.30879,164.01387 C 116.24082,166.30893 119.18827,168.48861 122.15364,170.56989 C 125.11901,172.65114 128.09521,174.64210 131.07360,176.50445 C 134.05197,178.36680 137.01184,180.14484 139.98290,181.78318 C 142.95396,183.42149 145.91264,184.93734 148.85603,186.34650 C 151.79945,187.75566 154.73732,189.04478 157.63275,190.21962 C 159.83787,191.11438 162.00428,191.87101 164.17554,192.62480 L 140.10667,125.15723 z M 131.89041,118.67545 L 63.915252,108.26275 C 64.071541,108.54029 64.195244,108.81290 64.354714,109.09045 C 65.898081,111.77662 67.551091,114.47422 69.336205,117.17811 C 71.121305,119.88201 73.047666,122.58724 75.066821,125.28960 C 77.085975,127.99196 79.212054,130.66819 81.457556,133.34976 C 83.703053,136.03134 86.085512,138.71384 88.549669,141.35539 C 91.013817,143.99694 93.575804,146.60828 96.250908,149.19053 C 98.167487,151.04058 100.20702,152.84253 102.22768,154.65624 L 131.89041,118.67545 z "
       id="path1334" />
    <path
       sodipodi:nodetypes="cccc"
       id="path2099"
       d="M 139.09540,141.17873 C 88.567841,141.17873 37.270717,109.56642 37.270717,76.424685 C 37.270717,43.282952 82.062130,19.658306 130.90552,17.154858 C 75.691891,56.290323 169.47204,84.187800 139.09540,141.17873 z "
       style="color:#000000;fill:#ffffff;fill-opacity:0.62890625;fill-rule:evenodd;stroke:none;stroke-width:10.025000;stroke-linecap:round;stroke-linejoin:round;stroke-miterlimit:4.0000000;stroke-dashoffset:0.0000000;stroke-opacity:0.80859375;marker:none;marker-start:none;marker-mid:none;marker-end:none;visibility:visible;display:inline;overflow:visible"
       transform="matrix(0.829717,0.606951,-0.558184,0.902208,57.50551,-52.54734)" />
  </g>
</svg>
