<?xml version="1.0" encoding="UTF-8" standalone="no"?>
<!DOCTYPE svg PUBLIC "-//W3C//DTD SVG 20010904//EN"
"http://www.w3.org/TR/2001/REC-SVG-20010904/DTD/svg10.dtd">
<!-- Created with Inkscape (http://www.inkscape.org/) -->
<!-- 
Created By Andrew Fitzsimon.
Much of this document has been manually cleaned and crafted in a text editor so that only the colour definitions and basic presentation related data remain in the XML. 
Changes to this document may compromise the structure of this palette.
-->
<svg
   version="1.0"
   x="00"
   y="00"
   width="128"
   height="128"
   id="Etiquette"
   sodipodi:version="0.32"
   inkscape:version="0.40"
   sodipodi:docname="xscreensaver.svg"
   sodipodi:docbase="/usr/share/icons/etiqueta/scalable/apps"
   xmlns="http://www.w3.org/2000/svg"
   xmlns:cc="http://web.resource.org/cc/"
   xmlns:inkscape="http://www.inkscape.org/namespaces/inkscape"
   xmlns:sodipodi="http://sodipodi.sourceforge.net/DTD/sodipodi-0.dtd"
   xmlns:rdf="http://www.w3.org/1999/02/22-rdf-syntax-ns#"
   xmlns:dc="http://purl.org/dc/elements/1.1/"
   xmlns:xlink="http://www.w3.org/1999/xlink">
  <metadata
     id="About">
    <rdf:RDF
       id="RDF232">
      <cc:Work
         rdf:about=""
         id="Work233">
        <dc:format
           id="format234">image/svg+xml</dc:format>
        <dc:type
           id="type236"
           rdf:resource="http://purl.org/dc/dcmitype/StillImage" />
        <dc:creator
           id="creator1291">
          <cc:Agent
             id="Agent1292">
            <dc:title
               id="title1293">Andrew Fitzsimon</dc:title>
          </cc:Agent>
        </dc:creator>
        <dc:date
           id="date1295">2004-12-25</dc:date>
        <dc:title
           id="title1297">Etiquette Icon</dc:title>
        <cc:license
           id="license1299"
           rdf:resource="http://creativecommons.org/licenses/by/2.0/" />
        <dc:rights
           id="rights1308">
          <cc:Agent
             id="Agent1309">
            <dc:title
               id="title1310">Andrew Fitzsimon</dc:title>
          </cc:Agent>
        </dc:rights>
      </cc:Work>
      <cc:License
         rdf:about="http://creativecommons.org/licenses/by/2.0/"
         id="License1300">
        <cc:permits
           rdf:resource="http://web.resource.org/cc/Reproduction"
           id="permits1301" />
        <cc:permits
           rdf:resource="http://web.resource.org/cc/Distribution"
           id="permits1302" />
        <cc:requires
           rdf:resource="http://web.resource.org/cc/Notice"
           id="requires1303" />
        <cc:requires
           rdf:resource="http://web.resource.org/cc/Attribution"
           id="requires1304" />
        <cc:prohibits
           rdf:resource="http://web.resource.org/cc/CommercialUse"
           id="prohibits1305" />
        <cc:permits
           rdf:resource="http://web.resource.org/cc/DerivativeWorks"
           id="permits1306" />
        <cc:requires
           rdf:resource="http://web.resource.org/cc/ShareAlike"
           id="requires1307" />
      </cc:License>
    </rdf:RDF>
  </metadata>
  <sodipodi:namedview
     id="base"
     pagecolor="#ffffff"
     bordercolor="#666666"
     borderopacity="1.0"
     inkscape:pageopacity="0.0"
     inkscape:pageshadow="0"
     inkscape:zoom="2.8284271"
     inkscape:cx="11.826969"
     inkscape:cy="38.166373"
     inkscape:window-width="640"
     inkscape:window-height="538"
     inkscape:window-x="84"
     inkscape:window-y="83"
     inkscape:current-layer="Etiquette"
     showgrid="false"
     gridspacingx="8.0000000pt"
     gridspacingy="8.0000000pt"
     gridoriginy="0.0000000pt"
     gridoriginx="0pt"
     inkscape:grid-points="false"
     gridtolerance="40pt"
     showborder="false"
     inkscape:grid-bbox="false"
     gridcolor="#3f3fff"
     gridopacity="0.082352941"
     gridempspacing="2"
     gridempcolor="#3f3fff"
     gridempopacity="0.082352941" />
  <defs
     id="Gradients">
    <linearGradient
       id="linearGradient2341">
      <stop
         style="stop-color:#ffffff;stop-opacity:0.15686275;"
         offset="0.0000000"
         id="stop2342" />
      <stop
         style="stop-color:#ffffff;stop-opacity:1.0000000;"
         offset="1.0000000"
         id="stop2343" />
    </linearGradient>
    <linearGradient
       inkscape:collect="always"
       xlink:href="#linearGradient2363"
       id="linearGradient3419"
       gradientUnits="userSpaceOnUse"
       gradientTransform="matrix(0.978910,0.000000,0.000000,0.765330,-4.655542,-8.616859)"
       x1="8.1236319"
       y1="-41.234426"
       x2="81.070528"
       y2="172.11564" />
    <linearGradient
       id="linearGradient2347">
      <stop
         style="stop-color:#ffffff;stop-opacity:0.0000000;"
         offset="0.0000000"
         id="stop2348" />
      <stop
         style="stop-color:#ffffff;stop-opacity:0.47058824;"
         offset="1.0000000"
         id="stop2349" />
    </linearGradient>
    <linearGradient
       inkscape:collect="always"
       xlink:href="#linearGradient2347"
       id="linearGradient3415"
       gradientUnits="userSpaceOnUse"
       gradientTransform="matrix(1.043391,0.000000,0.000000,0.718032,-4.655542,-8.616859)"
       x1="89.696322"
       y1="145.41280"
       x2="89.696322"
       y2="29.382998" />
    <linearGradient
       id="linearGradient2372">
      <stop
         style="stop-color:#000000;stop-opacity:0.47058824;"
         offset="0.0000000"
         id="stop2373" />
      <stop
         style="stop-color:#000000;stop-opacity:0.0000000;"
         offset="1.0000000"
         id="stop2374" />
    </linearGradient>
    <linearGradient
       inkscape:collect="always"
       xlink:href="#linearGradient2372"
       id="linearGradient3413"
       gradientUnits="userSpaceOnUse"
       gradientTransform="matrix(2.138091,0.000000,0.000000,0.549583,0.000000,-17.43192)"
       x1="23.875151"
       y1="219.55704"
       x2="37.456448"
       y2="226.49693" />
    <linearGradient
       id="linearGradient2363">
      <stop
         style="stop-color:#ffffff;stop-opacity:0.0000000;"
         offset="0.0000000"
         id="stop2364" />
      <stop
         style="stop-color:#ffffff;stop-opacity:1.0000000;"
         offset="1.0000000"
         id="stop2365" />
    </linearGradient>
    <linearGradient
       inkscape:collect="always"
       xlink:href="#linearGradient2363"
       id="linearGradient3412"
       gradientUnits="userSpaceOnUse"
       gradientTransform="matrix(4.740851,0.000000,0.000000,0.158028,-4.655542,-8.616859)"
       x1="7.7594029"
       y1="801.04424"
       x2="21.452467"
       y2="801.04424" />
    <linearGradient
       id="linearGradient3057">
      <stop
         style="stop-color:#000000;stop-opacity:0.19191919;"
         offset="0.0000000"
         id="stop3058" />
      <stop
         style="stop-color:#000000;stop-opacity:0.14141414;"
         offset="0.34210527"
         id="stop3059" />
      <stop
         style="stop-color:#ffffff;stop-opacity:0.0000000;"
         offset="1.0000000"
         id="stop3060" />
    </linearGradient>
    <radialGradient
       inkscape:collect="always"
       xlink:href="#linearGradient3057"
       id="radialGradient3411"
       gradientUnits="userSpaceOnUse"
       gradientTransform="scale(2.855494,0.350202)"
       cx="28.016161"
       cy="415.83121"
       fx="27.829060"
       fy="401.33081"
       r="23.200882" />
    <linearGradient
       id="linearGradient2386">
      <stop
         style="stop-color:#ffffff;stop-opacity:1.0000000;"
         offset="0.0000000"
         id="stop2387" />
      <stop
         style="stop-color:#46a046;stop-opacity:1.0000000;"
         offset="0.50000000"
         id="stop2414" />
      <stop
         style="stop-color:#267726;stop-opacity:1.0000000;"
         offset="1.0000000"
         id="stop2388" />
    </linearGradient>
    <linearGradient
       id="linearGradient1958">
      <stop
         style="stop-color:#000000;stop-opacity:0.19607843;"
         offset="0.0000000"
         id="stop1959" />
      <stop
         style="stop-color:#000000;stop-opacity:0.0000000;"
         offset="1.0000000"
         id="stop1960" />
    </linearGradient>
    <linearGradient
       id="TransparentWhite">
      <stop
         style="stop-color:#ffffff;stop-opacity:0;"
         offset="0"
         id="stopwhitefull" />
      <stop
         style="stop-color:#ffffff;stop-opacity:1;"
         offset="1"
         id="stopwhitetransparent" />
    </linearGradient>
    <linearGradient
       id="WhiteTransparent">
      <stop
         style="stop-color:#ffffff;stop-opacity:1;"
         offset="0"
         id="stopWhiteFull" />
      <stop
         style="stop-color:#ffffff;stop-opacity:0;"
         offset="1"
         id="stopWhiteTransparent" />
    </linearGradient>
    <linearGradient
       inkscape:collect="always"
       xlink:href="#linearGradient2341"
       id="linearGradient1297"
       gradientUnits="userSpaceOnUse"
       gradientTransform="matrix(1.910124,0.000000,0.000000,0.481661,0.879421,7.943368)"
       x1="36.732960"
       y1="173.60512"
       x2="37.126789"
       y2="232.27026" />
    <linearGradient
       inkscape:collect="always"
       xlink:href="#TransparentWhite"
       id="linearGradient1935"
       gradientTransform="scale(1.343102,0.744545)"
       x1="13.424465"
       y1="48.322319"
       x2="145.21112"
       y2="42.414890"
       gradientUnits="userSpaceOnUse" />
    <linearGradient
       inkscape:collect="always"
       xlink:href="#WhiteTransparent"
       id="linearGradient1939"
       gradientTransform="scale(1.128152,0.886405)"
       x1="-7.6677785"
       y1="-22.305346"
       x2="108.59772"
       y2="145.62173"
       gradientUnits="userSpaceOnUse" />
    <linearGradient
       inkscape:collect="always"
       xlink:href="#WhiteTransparent"
       id="linearGradient1943"
       gradientTransform="scale(1.202561,0.831558)"
       x1="70.459831"
       y1="87.961166"
       x2="-17.924658"
       y2="-56.903572"
       gradientUnits="userSpaceOnUse" />
    <linearGradient
       inkscape:collect="always"
       xlink:href="#WhiteTransparent"
       id="linearGradient1945"
       gradientUnits="userSpaceOnUse"
       gradientTransform="scale(1.128152,0.886405)"
       x1="119.22096"
       y1="138.05745"
       x2="80.859245"
       y2="69.978905" />
    <linearGradient
       inkscape:collect="always"
       xlink:href="#WhiteTransparent"
       id="linearGradient1954"
       gradientTransform="matrix(1.126260,0.000000,0.000000,0.739153,4.392217,5.260823)"
       x1="58.872913"
       y1="144.63060"
       x2="56.428001"
       y2="50.783859"
       gradientUnits="userSpaceOnUse" />
    <radialGradient
       inkscape:collect="always"
       xlink:href="#linearGradient1958"
       id="radialGradient689"
       gradientUnits="userSpaceOnUse"
       gradientTransform="scale(2.855494,0.350202)"
       cx="28.016165"
       cy="415.83127"
       fx="46.312798"
       fy="414.28464"
       r="23.200886" />
    <linearGradient
       inkscape:collect="always"
       xlink:href="#linearGradient2386"
       id="linearGradient690"
       gradientUnits="userSpaceOnUse"
       gradientTransform="matrix(0.968820,0.000000,0.000000,1.032183,-128.1631,-93.24971)"
       x1="91.891685"
       y1="79.108795"
       x2="70.566475"
       y2="35.202347" />
    <linearGradient
       inkscape:collect="always"
       xlink:href="#TransparentWhite"
       id="linearGradient691"
       gradientUnits="userSpaceOnUse"
       gradientTransform="matrix(0.984072,0.000000,0.000000,1.016186,-128.1631,-93.24971)"
       x1="82.087418"
       y1="50.605812"
       x2="94.623985"
       y2="80.194122" />
    <linearGradient
       inkscape:collect="always"
       xlink:href="#WhiteTransparent"
       id="linearGradient692"
       gradientUnits="userSpaceOnUse"
       gradientTransform="matrix(1.342235,0.000000,0.000000,0.745026,-128.1631,-93.24971)"
       x1="44.411987"
       y1="-8.1991520"
       x2="24.145247"
       y2="76.784142" />
    <radialGradient
       inkscape:collect="always"
       xlink:href="#linearGradient1958"
       id="radialGradient1782"
       gradientUnits="userSpaceOnUse"
       gradientTransform="scale(2.855494,0.350202)"
       cx="28.016165"
       cy="415.83127"
       fx="46.312798"
       fy="414.28464"
       r="23.200886" />
    <linearGradient
       inkscape:collect="always"
       xlink:href="#linearGradient2386"
       id="linearGradient1783"
       gradientUnits="userSpaceOnUse"
       gradientTransform="matrix(0.968820,0.000000,0.000000,1.032183,-128.1631,-93.24971)"
       x1="91.891685"
       y1="79.108795"
       x2="70.566475"
       y2="35.202347" />
    <linearGradient
       inkscape:collect="always"
       xlink:href="#TransparentWhite"
       id="linearGradient1784"
       gradientUnits="userSpaceOnUse"
       gradientTransform="matrix(0.984072,0.000000,0.000000,1.016186,-128.1631,-93.24971)"
       x1="82.087418"
       y1="50.605812"
       x2="94.623985"
       y2="80.194122" />
    <linearGradient
       inkscape:collect="always"
       xlink:href="#WhiteTransparent"
       id="linearGradient1785"
       gradientUnits="userSpaceOnUse"
       gradientTransform="matrix(1.342235,0.000000,0.000000,0.745026,-128.1631,-93.24971)"
       x1="44.411987"
       y1="-8.1991520"
       x2="24.145247"
       y2="76.784142" />
  </defs>
  <path
     sodipodi:type="arc"
     style="fill:url(#radialGradient3411);fill-opacity:1.0000000;stroke:none;stroke-width:3.7500000;stroke-linecap:round;stroke-linejoin:round;stroke-miterlimit:4.0000000;stroke-dashoffset:0.0000000;stroke-opacity:1.0000000"
     id="path3396"
     sodipodi:cx="80.000000"
     sodipodi:cy="145.62500"
     sodipodi:rx="66.250000"
     sodipodi:ry="8.1250000"
     d="M 146.25000 145.62500 A 66.250000 8.1250000 0 1 1  13.750000,145.62500 A 66.250000 8.1250000 0 1 1  146.25000 145.62500 z"
     transform="matrix(0.968712,0.000000,0.000000,0.884612,-13.31977,-8.009195)" />
  <path
     style="fill:url(#linearGradient3412);fill-opacity:1.0000000;fill-rule:evenodd;stroke:none;stroke-width:1.0000000pt;stroke-linecap:butt;stroke-linejoin:miter;stroke-opacity:1.0000000"
     d="M 32.130630,116.88891 L 32.130630,119.05280 L 97.047405,119.05280 L 97.047405,116.88891 L 32.130630,116.88891 z "
     id="path3397"
     sodipodi:nodetypes="ccccc" />
  <path
     style="fill:#666666;fill-opacity:1.0000000;fill-rule:evenodd;stroke:#000000;stroke-width:3.1250000;stroke-linecap:butt;stroke-linejoin:miter;stroke-opacity:1.0000000;stroke-miterlimit:4.0000000;stroke-dasharray:none;"
     d="M 47.277878,99.577770 L 47.277878,108.23334 C 47.277878,114.04862 32.130630,111.07362 32.130630,116.88891 L 32.130630,119.05280 L 97.047405,119.05280 L 97.047405,116.88891 C 97.047405,111.07362 81.900158,114.04862 81.900158,108.23334 L 81.900158,99.577770 L 47.277878,99.577770 z "
     id="path3398"
     sodipodi:nodetypes="czzcczzcc" />
  <path
     style="fill:url(#linearGradient1297);fill-opacity:1.0000000;fill-rule:evenodd;stroke:none;stroke-width:1.0000000pt;stroke-linecap:butt;stroke-linejoin:miter;stroke-opacity:1.0000000;"
     d="M 47.513580,100.82291 L 47.513580,108.89625 C 47.513580,114.32036 32.572572,111.54547 32.572572,116.96959 L 96.605463,116.96959 C 96.605463,111.54547 81.664456,114.32036 81.664456,108.89625 L 81.664456,100.82291 L 47.513580,100.82291 z "
     id="path3410"
     sodipodi:nodetypes="czzzzcc" />
  <path
     style="fill:url(#linearGradient3413);fill-opacity:1.0000000;fill-rule:evenodd;stroke:none;stroke-width:1.0000000pt;stroke-linecap:butt;stroke-linejoin:miter;stroke-opacity:1.0000000;opacity:0.67924528;"
     d="M 47.277878,99.577770 L 47.277878,108.47722 C 54.851501,102.12047 73.244588,102.12047 81.900158,105.93452 L 81.900158,99.577770 L 47.277878,99.577770 z "
     id="path3399"
     sodipodi:nodetypes="ccccc" />
  <path
     style="fill:none;fill-opacity:1.0000000;fill-rule:evenodd;stroke:none;stroke-width:0.86555700pt;stroke-linecap:butt;stroke-linejoin:miter;stroke-opacity:1.0000000;"
     d="M 79.465778,97.402630 C 68.934832,97.402630 58.403894,97.402630 47.872948,97.402630 C 47.664608,100.40082 48.289532,106.31052 47.565727,109.22129 C 46.698941,112.01594 43.211707,112.06967 40.850000,112.89047 C 38.397626,113.60475 35.641978,114.01545 33.530651,115.43479 C 32.247887,116.59797 32.986259,117.24701 34.671447,117.08086 L 96.452335,116.80549 C 96.886524,114.26608 94.642334,114.10828 92.303348,113.92746 C 89.247871,113.09080 85.996553,112.47511 83.158175,111.13478 C 80.386186,109.37266 81.563941,105.68900 81.299115,102.95976 C 81.278203,102.23322 81.385593,98.598860 81.215355,98.000050 C 81.045108,97.401245 80.597235,97.067780 79.465778,97.402630 z "
     id="path3400"
     sodipodi:nodetypes="ccccccccccsc" />
  <path
     style="fill:none;fill-opacity:1.0000000;fill-rule:evenodd;stroke:#ffffff;stroke-width:0.86555700pt;stroke-linecap:butt;stroke-linejoin:miter;stroke-opacity:0.18421049"
     d="M 15.901436,16.267905 L 113.27660,16.267905 L 113.27660,82.266626 L 15.901436,82.266626 L 15.901436,16.267905 z "
     id="path3401"
     sodipodi:nodetypes="ccccc" />
  <path
     style="fill:#dddddd;fill-opacity:1.0000000;fill-rule:evenodd;stroke:#000000;stroke-width:1.2500000;stroke-linecap:butt;stroke-linejoin:miter;stroke-opacity:0.29605263;stroke-miterlimit:4.0000000;stroke-dasharray:none;"
     d="M 4.0000275,8.6942810 C 4.0000275,6.6541430 6.2876773,4.3664958 8.3278125,4.3664958 L 120.85022,4.3664958 C 122.89036,4.3664958 125.17801,6.6541430 125.17801,8.6942810 L 125.17801,95.249981 C 125.17801,97.290116 122.89036,99.577770 120.85022,99.577770 L 8.3278125,99.577770 C 6.2876773,99.577770 4.0000275,97.290116 4.0000275,95.249981 L 4.0000275,8.6942810 z "
     id="path3402"
     sodipodi:nodetypes="czzzzzzzz" />
  <path
     style="fill:url(#linearGradient3415);fill-opacity:1.0000000;fill-rule:evenodd;stroke:#000000;stroke-width:0.86555700pt;stroke-linecap:butt;stroke-linejoin:miter;stroke-opacity:0.33552632"
     d="M 14.819490,15.185958 L 114.35855,15.185958 L 114.35855,83.348572 L 14.819490,83.348572 L 14.819490,15.185958 z "
     id="path3403"
     sodipodi:nodetypes="ccccc" />
  <path
     style="fill:url(#linearGradient1939);fill-opacity:1.0;fill-rule:evenodd;stroke:none;stroke-width:1.0000000pt;stroke-linecap:butt;stroke-linejoin:miter;stroke-opacity:1.0000000;"
     d="M 4.0000275,8.6942810 C 4.0000275,6.6541430 6.2876773,4.3664958 8.3278125,4.3664958 L 120.85022,4.3664958 C 122.89036,4.3664958 125.17801,6.6541430 125.17801,8.6942810 L 125.17801,95.249981 C 125.17801,97.290116 122.89036,99.577770 120.85022,99.577770 L 8.3278125,99.577770 C 6.2876773,99.577770 4.0000275,97.290116 4.0000275,95.249981 L 4.0000275,8.6942810 z "
     id="path3404"
     sodipodi:nodetypes="czzzzzzzz" />
  <path
     style="fill:#314e6c;fill-opacity:0.83552629;fill-rule:evenodd;stroke:#000000;stroke-width:0.86555700pt;stroke-linecap:butt;stroke-linejoin:miter;stroke-opacity:1.0000000"
     d="M 14.819490,15.185958 L 114.35855,15.185958 L 114.35855,83.348572 L 14.819490,83.348572 L 14.819490,15.185958 z "
     id="path3405"
     sodipodi:nodetypes="ccccc" />
  <path
     style="fill:url(#linearGradient1945);fill-opacity:1.0;fill-rule:evenodd;stroke:#000000;stroke-width:4.3750000;stroke-linecap:butt;stroke-linejoin:miter;stroke-opacity:1.0000000;opacity:1.0000000;stroke-miterlimit:4.0000000;stroke-dasharray:none;"
     d="M 4.0000275,8.6942810 C 4.0000275,6.6541430 6.2876773,4.3664958 8.3278125,4.3664958 L 120.85022,4.3664958 C 122.89036,4.3664958 125.17801,6.6541430 125.17801,8.6942810 L 125.17801,95.249981 C 125.17801,97.290116 122.89036,99.577770 120.85022,99.577770 L 8.3278125,99.577770 C 6.2876773,99.577770 4.0000275,97.290116 4.0000275,95.249981 L 4.0000275,8.6942810 z "
     id="path1944"
     sodipodi:nodetypes="czzzzzzzz" />
  <path
     style="fill:#000000;fill-opacity:1.0000000;fill-rule:evenodd;stroke:#000000;stroke-width:1.0000000pt;stroke-linecap:butt;stroke-linejoin:miter;stroke-opacity:1.0000000;"
     d="M 14.819490,15.185958 L 114.35855,15.185958 L 114.35855,83.348572 L 14.819490,83.348572 L 14.819490,15.185958 z "
     id="path3406"
     sodipodi:nodetypes="ccccc" />
  <path
     style="fill:none;fill-opacity:1.0000000;fill-rule:evenodd;stroke:url(#linearGradient1943);stroke-width:3.2077200;stroke-linecap:butt;stroke-linejoin:miter;stroke-miterlimit:4.0000000;stroke-opacity:1.0000000"
     d="M 14.334735,14.516963 L 114.84330,14.516963 L 114.84330,84.017567 L 14.334735,84.017567 L 14.334735,14.516963 z "
     id="path3407"
     sodipodi:nodetypes="ccccc" />
  <path
     style="fill:none;fill-opacity:0.75000000;fill-rule:evenodd;stroke:url(#linearGradient3419);stroke-width:2.1638925;stroke-linecap:butt;stroke-linejoin:miter;stroke-miterlimit:4.0000000;stroke-opacity:1.0000000"
     d="M 6.1639200,10.858173 C 6.1639200,7.6123340 7.2458663,6.5303883 10.491705,6.5303883 L 118.68633,6.5303883 C 121.93217,6.5303883 123.01412,7.6123340 123.01412,10.858173 L 123.01412,93.086088 C 123.01412,96.331927 121.93217,97.413873 118.68633,97.413873 L 10.491705,97.413873 C 7.2458663,97.413873 6.1639200,96.331927 6.1639200,93.086088 L 6.1639200,10.858173 z "
     id="path3408"
     sodipodi:nodetypes="czzzzzzzz" />
  <path
     style="fill:url(#linearGradient1935);fill-opacity:1.0;fill-rule:evenodd;stroke:none;stroke-width:1.0000000pt;stroke-linecap:butt;stroke-linejoin:miter;stroke-opacity:1.0000000;"
     d="M 14.819490,15.185958 L 114.35855,15.185958 L 114.35855,30.333206 C 68.916803,31.415152 35.376469,50.890185 15.901436,70.365217 L 14.819490,15.185958 z "
     id="path3409"
     sodipodi:nodetypes="ccccc" />
  <path
     style="fill:url(#linearGradient1954);fill-opacity:1.0000000;fill-rule:evenodd;stroke:none;stroke-width:1.0000000pt;stroke-linecap:butt;stroke-linejoin:miter;stroke-opacity:1.0000000"
     d="M 19.525846,19.692756 L 109.65220,19.692756 L 109.65220,78.841774 L 19.525846,78.841774 L 19.525846,19.692756 z "
     id="path1946"
     sodipodi:nodetypes="ccccc" />
  <path
     style="fill:none;fill-opacity:0.75000000;fill-rule:evenodd;stroke:none;stroke-width:3.7500000;stroke-linecap:butt;stroke-linejoin:miter;stroke-miterlimit:4.0000000;stroke-opacity:1.0000000"
     d="M 104.30192,50.021103 L 31.961181,12.420897 C 28.412778,10.576560 26.463347,11.260561 26.987715,13.136367 C 27.512084,15.012174 40.597553,36.470574 40.484467,50.220762 C 40.371384,63.970952 26.694401,91.600104 26.222268,93.460595 C 25.750130,95.321091 27.436179,95.764833 31.556811,93.627159 L 104.25345,55.914042 C 108.12416,53.906021 108.26582,52.081399 104.30192,50.021103 z "
     id="path2493"
     sodipodi:nodetypes="czzzzzzz" />
  <g
     id="g1776"
     transform="matrix(0.666132,0.000000,0.000000,0.666132,150.8765,37.66181)">
    <path
       style="fill:none;fill-opacity:1.0000000;fill-rule:evenodd;stroke:#000000;stroke-width:3.7500000;stroke-linecap:butt;stroke-linejoin:miter;stroke-miterlimit:4.0000000;stroke-opacity:0.32894734"
       d="M -21.813474,-43.228604 L -98.311460,-84.112709 C -101.36356,-85.743892 -103.39975,-82.995361 -102.87538,-81.119554 C -102.35101,-79.243748 -92.143917,-56.885002 -92.257002,-43.134812 C -92.370087,-29.384621 -103.08175,-0.47890109 -103.55389,1.3815949 C -104.02602,3.2420799 -101.98255,5.8689789 -99.038421,4.2813719 L -21.861934,-37.335665 C -19.237624,-38.750814 -18.822574,-41.630127 -21.813474,-43.228604 z "
       id="path687"
       sodipodi:nodetypes="czzzzzzz"
       transform="translate(-29.38932,107.1783)" />
    <path
       sodipodi:type="arc"
       style="opacity:0.62318844;fill:url(#radialGradient1782);fill-opacity:1.0000000;stroke:none;stroke-width:3.7500000;stroke-linecap:round;stroke-linejoin:round;stroke-miterlimit:4.0000000;stroke-dashoffset:0.0000000;stroke-opacity:1.0000000"
       id="path3349"
       sodipodi:cx="80.000000"
       sodipodi:cy="145.62500"
       sodipodi:rx="66.250000"
       sodipodi:ry="8.1250000"
       d="M 146.25000 145.62500 A 66.250000 8.1250000 0 1 1  13.750000,145.62500 A 66.250000 8.1250000 0 1 1  146.25000 145.62500 z"
       transform="matrix(-0.799216,0.000000,0.000000,0.792154,-22.90453,-3.694400)" />
    <path
       style="fill:url(#linearGradient1783);fill-opacity:1.0000000;fill-rule:evenodd;stroke:#000000;stroke-width:3.1250000;stroke-linecap:butt;stroke-linejoin:miter;stroke-miterlimit:4.0000000;stroke-opacity:1.0000000"
       d="M -21.813474,-43.228604 L -98.311460,-84.112709 C -101.36356,-85.743892 -103.39975,-82.995361 -102.87538,-81.119554 C -102.35101,-79.243748 -92.143917,-56.885002 -92.257002,-43.134812 C -92.370087,-29.384621 -103.08175,-0.47890109 -103.55389,1.3815949 C -104.02602,3.2420799 -101.98255,5.8689789 -99.038421,4.2813719 L -21.861934,-37.335665 C -19.237624,-38.750814 -18.822574,-41.630127 -21.813474,-43.228604 z "
       id="path2492"
       sodipodi:nodetypes="czzzzzzz"
       transform="translate(-29.38932,107.1783)" />
    <path
       style="fill:url(#linearGradient1784);fill-opacity:1.0000000;fill-rule:evenodd;stroke:none;stroke-width:3.7500000;stroke-linecap:butt;stroke-linejoin:miter;stroke-miterlimit:4.0000000;stroke-opacity:1.0000000"
       d="M -23.861184,-43.228604 L -96.201923,-80.828810 C -99.750326,-82.673147 -101.69976,-81.989146 -101.17539,-80.113340 C -100.65102,-78.237533 -88.872649,-58.233027 -88.985734,-44.482837 C -89.098816,-30.732647 -101.46870,-1.6496031 -101.94084,0.21088791 C -102.41297,2.0713839 -100.72693,2.5151259 -96.606293,0.37745191 L -23.909654,-37.335665 C -20.038944,-39.343686 -19.897284,-41.168308 -23.861184,-43.228604 z "
       id="path2495"
       sodipodi:nodetypes="czzzzzzz"
       transform="translate(-29.38932,107.1783)" />
    <path
       style="fill:url(#linearGradient1785);fill-opacity:1.0000000;fill-rule:evenodd;stroke:none;stroke-width:1.0000000pt;stroke-linecap:butt;stroke-linejoin:miter;stroke-opacity:1.0000000"
       d="M -23.861184,-43.228604 L -96.201923,-80.828810 C -99.750326,-82.673147 -101.69976,-81.989146 -101.17539,-80.113340 C -100.65102,-78.237533 -87.565551,-56.779133 -87.678637,-43.028945 C -81.073230,-48.344419 -68.634824,-49.856536 -56.095850,-48.572066 C -43.556876,-47.287595 -30.917333,-43.206538 -23.909654,-37.335665 C -20.038944,-39.343686 -19.897284,-41.168308 -23.861184,-43.228604 z "
       id="path2494"
       sodipodi:nodetypes="czzcscz"
       transform="translate(-29.38932,107.1783)" />
  </g>
  <path
     style="fill:none;fill-opacity:0.75000000;fill-rule:evenodd;stroke:none;stroke-width:1.2500000;stroke-linecap:butt;stroke-linejoin:miter;stroke-miterlimit:4.0000000;stroke-opacity:1.0000000"
     d="M 104.30192,50.021103 L 31.961181,12.420897 C 28.412778,10.576560 26.463347,11.260561 26.987715,13.136367 C 27.512084,15.012174 40.597553,36.470574 40.484467,50.220762 C 40.371384,63.970952 26.694401,91.600104 26.222268,93.460595 C 25.750130,95.321091 27.436179,95.764833 31.556811,93.627159 L 104.25345,55.914042 C 108.12416,53.906021 108.26582,52.081399 104.30192,50.021103 z "
     id="path2496"
     sodipodi:nodetypes="czzzzzzz" />
</svg>
